<?xml version="1.0" standalone="no"?>
<!DOCTYPE svg PUBLIC "-//W3C//DTD SVG 1.1//EN" "http://www.w3.org/Graphics/SVG/1.1/DTD/svg11.dtd" >
<svg>
<metadata>
Created by FontForge 20090622 at Tue Jul 26 16:52:41 2016
 By ffonts
Copyright (c) A.Gophmann, 2006. All rights reserved.
</metadata>
<defs>
<font id="OldComedy" horiz-adv-x="478" >
  <font-face 
    font-family="Old Comedy"
    font-weight="400"
    font-stretch="normal"
    units-per-em="1000"
    panose-1="2 0 0 0 0 0 0 0 0 0"
    ascent="800"
    descent="-200"
    x-height="451"
    cap-height="659"
    bbox="-63 -300 981 917"
    underline-thickness="50"
    underline-position="-75"
    unicode-range="U+0020-U+F003"
  />
<missing-glyph horiz-adv-x="301" 
 />
    <glyph glyph-name=".notdef" horiz-adv-x="301" 
 />
    <glyph glyph-name=".null" horiz-adv-x="0" 
 />
    <glyph glyph-name="nonmarkingreturn" horiz-adv-x="301" 
 />
    <glyph glyph-name="space" unicode=" " horiz-adv-x="301" 
 />
    <glyph glyph-name="numbersign" unicode="#" horiz-adv-x="450" 
d="M266 489q-20 2 -47.5 3.5l-62.5 3.5l-9 -105q26 -2 47 -3t36 -1q17 0 38 3zM453 519q-1 -5 -3.5 -16t-7.5 -28q-27 0 -151 12l2 -96q43 2 71 4t42 4l-8 -39q-20 8 -104 12q2 -56 2.5 -91.5t-0.5 -52.5l-44 -4q14 59 15 148q-35 -1 -65.5 -2t-56.5 -3q-7 -64 -11 -107.5
l-6 -66.5l-37 -1q17 56 27 173l-50 -3.5t-35 -1.5l-6 41q17 -1 41 -3t53 -5l9 104q-38 1 -66 1.5t-48 0.5l4 42q23 -5 50.5 -10t59.5 -9q0 22 -0.5 50.5t-1.5 64.5q9 0 20 -0.5t24 -1.5q-13 -78 -15 -116q55 -6 108 -9q-4 79 -18 136q39 16 59 16q-6 -34 -9.5 -72t-4.5 -81
q48 -2 88.5 0.5t72.5 9.5z" />
    <glyph glyph-name="dollar" unicode="$" horiz-adv-x="329" 
d="M202 589q25 -3 44.5 -11.5t32.5 -20.5t20 -26t7 -27q0 -26 -18 -51t-42 -25q-25 0 -39.5 16.5t-14.5 33.5t13 28t25 11q8 0 16.5 -4t8.5 -11q-13 -2 -22.5 -12t-9.5 -21q0 -10 8.5 -19t20.5 -9q4 0 8 5t7 12t4.5 15.5t1.5 15.5q0 36 -26 61.5t-63 25.5q-17 0 -30.5 -8
t-23.5 -22t-15.5 -32t-5.5 -38q0 -33 17.5 -74t66.5 -103q25 -31 41 -53t24 -36q16 -25 16 -55q0 -35 -27.5 -64.5t-74.5 -35.5q-4 -71 -6 -111t-2 -50l-31 -5q12 86 15 166q-46 6 -77 37q-30 31 -30 60q0 14 6 26.5t15 22.5t20.5 15.5t23.5 5.5q19 0 38.5 -12.5t19.5 -28.5
q0 -33 -25 -33q0 20 -8 38t-22 18q-9 0 -19 -14.5t-10 -32.5q0 -38 24.5 -63t56.5 -25t61 23q28 24 28 55q0 21 -15 51q-7 16 -27 39.5t-52 55.5q-65 64 -84 102q-20 38 -20 70q0 24 10 46t27.5 39t41.5 27.5t53 12.5q2 23 3 39.5t1 26.5q0 16 -1.5 38.5t-5.5 52.5l47 3
q-3 -20 -6.5 -38t-6.5 -36.5l-6.5 -39.5t-6.5 -47z" />
    <glyph glyph-name="percent" unicode="%" horiz-adv-x="529" 
d="M366 92q-37 4 -37 26q0 29 22.5 49.5t51.5 20.5q22 0 46 -25q24 -24 24 -64q0 -46 -38 -78q-38 -30 -88 -30q-46 0 -81 35t-35 80q0 42 38 82q39 39 82 39q36 0 60 -12l-8 -11q-20 10 -35 10q-17 0 -32 -8.5t-27 -22.5t-19 -34t-7 -42q0 -51 18 -77t48 -26q28 0 54 26
q27 27 27 57q0 40 -11 62t-29 22q-28 0 -28 -46q0 -18 4 -33zM189 529q21 0 21 -36q0 -13 -11 -25t-25 -12q-15 0 -27 13t-12 31q0 26 20 52q21 26 45 26q31 0 57 -29q27 -29 27 -53q0 -45 -37 -91q-36 -47 -77 -47q-27 0 -51 7.5t-41.5 20t-28 30.5t-10.5 39q0 49 27 85
t75 48l5 -9q-32 -16 -48 -43.5t-16 -57.5q0 -107 84 -107q30 0 50 38q20 40 20 80q0 27 -11 51t-29 24q-7 0 -14 -5t-12.5 -13t-9 -18t-3.5 -19t4 -23t8 -14q14 0 17 13t3 44zM528 639q-36 -36 -124 -154l-84 -114l-74 -105l-70 -106.5l-72 -118.5l-42 -70q-8 2 -18 7
t-21 12q23 23 45.5 50.5t42.5 61.5l144 223l106.5 164l112.5 183q4 -7 27 -19q11 -5 18 -8.5t9 -5.5z" />
    <glyph glyph-name="ampersand" unicode="&#x26;" horiz-adv-x="627" 
d="M685 332q-63 -2 -126 -9.5t-127 -21.5q108 -44 108 -128q0 -52 -64 -119t-149 -67q-116 0 -200 54q-83 56 -83 130q0 52 54 111q56 60 217 84q-93 23 -147 80q-55 58 -55 114q0 50 53 97t115 47q57 0 95 -33q39 -32 39 -54q0 -25 -31 -53t-65 -28q-7 0 -15 4t-14.5 10
t-10.5 13t-4 13q0 14 10.5 25t27.5 11q4 0 14 -2q-17 -17 -17 -40q0 -8 5.5 -14.5t13.5 -6.5q13 0 23.5 16t10.5 32q0 18 -6.5 34t-18.5 28t-28.5 19.5t-36.5 7.5q-48 0 -73.5 -32.5t-25.5 -78.5q0 -88 53 -144q54 -54 149 -52l-2 -30q-128 0 -194.5 -38.5t-66.5 -113.5
q0 -82 68 -138q68 -55 158 -55q55 0 94 46t39 112q0 50 -28 95q-8 14 -22 25t-23 11q-35 0 -81 -26q-44 -26 -44 -47q0 -74 40 -74q13 0 19.5 19.5t6.5 45.5q29 0 29 -35q0 -13 -26 -31q-26 -17 -36 -17q-39 0 -60.5 19.5t-21.5 54.5q0 39 72 76.5t205 62.5q132 25 183 51
v-60v0z" />
    <glyph glyph-name="quoteright" unicode="&#x2019;" horiz-adv-x="129" 
d="M72 548q-11 -15 -26 -15q-11 0 -18.5 11t-7.5 22q0 12 16 23t31 11q7 0 15 -6t14.5 -15t10.5 -20t4 -21q0 -52 -63 -101q0 11 -9 20q47 18 47 61q0 25 -14 30z" />
    <glyph glyph-name="parenleft" unicode="(" horiz-adv-x="194" 
d="M215 698l-19.5 -33l-31.5 -52q-38 -60 -57 -105q-9 -23 -17 -51.5t-13 -60.5t-8 -66.5t-3 -67.5q0 -81 15 -139.5t38 -101.5q12 -22 34 -58.5l54 -88.5l-46 -17q-128 254 -128 407q0 159 81 341q17 39 28 67.5t16 47.5q30 -21 57 -22z" />
    <glyph glyph-name="parenright" unicode=")" horiz-adv-x="194" 
d="M36 720q128 -258 128 -407q0 -159 -81 -340q-35 -80 -44 -116q-28 21 -57 22q7 13 19 33l29 49l32 53.5t24 46.5q21 43 33 110.5t12 143.5q0 81 -15 139.5t-38 101.5q-11 22 -33.5 58.5l-54.5 88.5l46 17v0z" />
    <glyph glyph-name="asterisk" unicode="*" horiz-adv-x="402" 
d="M299 492l-39 -7t-30 -7q123 -102 141 -98q-5 -6 -14.5 -14.5t-14.5 -16.5q-22 27 -64 63q-44 37 -58 52q-6 -26 -6 -58l2 -84q-10 0 -18.5 1t-21.5 -3q6 27 12 63.5t13 84.5q-80 -32 -138 -72q-2 21 -11.5 35t-12.5 19q54 7 93.5 16.5t66.5 20.5l-69 51l-27.5 21.5
t-14.5 12.5q2 2 7 7.5l13 14.5q20 21 20 22q4 -5 12 -18t22 -34t25 -36t19 -25q4 29 7 64t6 77q5 -1 11 -1q3 0 12 0.5t24 1.5l-37 -146q55 23 89 39.5t48 27.5q0 -1 2 -29q1 -24 7 -33z" />
    <glyph glyph-name="plus" unicode="+" horiz-adv-x="617" 
d="M334 256q-4 -101 -5.5 -165.5t-1.5 -93.5l-35 -2q0 79 6 261q-188 0 -246 6l2 51q91 -11 151.5 -16.5t89.5 -5.5q-2 90 -3 149.5t-1 88.5l45 9l-4 -247q82 0 229 15l6 -52z" />
    <glyph glyph-name="comma" unicode="," horiz-adv-x="160" 
d="M90 17q-11 -15 -26 -15q-11 0 -18.5 11t-7.5 22q0 12 16 23t31 11q21 0 35 -19t14 -42q0 -12 -2.5 -23.5t-10 -24t-21.5 -27.5t-36 -34q0 14 -9 25q54 22 54 64q0 23 -19 29z" />
    <glyph glyph-name="hyphen" unicode="-" horiz-adv-x="319" 
d="M288 286q-7 -21 -7 -49q-35 12 -98 12q-20 0 -40.5 -1.5t-43.5 -3.5t-40 -3t-28 -2q0 25 -3 39q29 0 61.5 1t69.5 3t69 3t60 1z" />
    <glyph glyph-name="period" unicode="." horiz-adv-x="155" 
d="M71 64q18 0 30.5 -16.5t12.5 -37.5q0 -18 -32 -18q-36 0 -36 34q0 16 7.5 27t17.5 11z" />
    <glyph glyph-name="slash" unicode="/" horiz-adv-x="362" 
d="M401 624q-23 -30 -63.5 -94l-98.5 -163t-118.5 -217.5l-125.5 -258.5q-18 5 -41 15q7 8 14.5 20.5l17.5 30.5q19 36 30 54q26 42 57 98.5t66 128.5l204 413q4 -5 29 -16q12 -5 19.5 -7.5t9.5 -3.5z" />
    <glyph glyph-name="zero" unicode="0" horiz-adv-x="537" 
d="M273 490q-24 12 -24 30q0 7 4.5 13.5t10.5 12t12.5 8.5t10.5 3q35 0 53.5 -16.5t18.5 -42.5q0 -18 -28 -40q-28 -23 -51 -23q-12 0 -25 6.5t-23.5 18t-17 26.5t-6.5 32q0 46 34 77q35 32 67 32q79 0 139 -93t60 -169q0 -70 -37 -162q-36 -92 -91 -150q-54 -58 -109 -58
q-53 0 -114 48q-59 49 -91 123q-31 74 -31 137q0 119 70 228q71 110 160 146l8 -13q-163 -82 -163 -338q-1 -93 17 -153.5t44.5 -96.5t56.5 -50.5t52 -14.5q35 0 79 47q43 47 64 121q21 73 21 114q0 68 -13 126q-11 54 -36 117q-11 29 -35 49q-29 23 -51 23q-19 0 -35 -7.5
t-27 -19t-17.5 -26.5t-6.5 -30q0 -34 16.5 -54.5t40.5 -20.5q15 0 27.5 13t12.5 27q0 24 -6.5 38t-16.5 14q-17 0 -24 -52z" />
    <glyph glyph-name="one" unicode="1" horiz-adv-x="323" 
d="M300 22q-167 -7 -256 -48v28q35 10 68.5 17.5l64.5 14.5l-13 168l-22 324q-2 29 -4 48.5t-4 30.5q-24 -16 -58 -26q-38 -11 -58 -11q-6 0 -14.5 2.5t-16 7t-13 9t-5.5 9.5q0 24 13.5 43t28.5 19q33 0 33 -24t-24 -22q0 31 -15 31q-4 0 -7 -6.5t-3 -10.5q0 -17 9.5 -27.5
t24.5 -10.5q19 0 46.5 9.5t77.5 39.5l42.5 24.5t24.5 13.5q0 -129 -9 -249q-9 -119 -9 -265q0 -29 1 -60.5t3 -65.5q9 1 45 9t52 9z" />
    <glyph glyph-name="two" unicode="2" horiz-adv-x="428" 
d="M341 137q19 1 19 -22q0 -13 -13.5 -24t-25.5 -11q-16 0 -32 10.5t-16 25.5t4.5 29.5t13.5 26t21 18.5t27 7q28 0 52 -31q24 -30 24 -72q0 -32 -37 -63q-35 -31 -68 -31q-17 0 -83 17q-65 18 -113 18q-44 0 -57 -7t-16 -20q-22 25 -22 57q0 28 25 79t87 104
q115 97 150 158q35 62 35 116q0 50 -31 93q-32 45 -76 45q-46 0 -78 -35q-31 -34 -31 -70q0 -33 19.5 -56t41.5 -23q19 0 30.5 14.5t11.5 33.5q0 9 -6 21.5t-11 12.5q-7 0 -15.5 -8.5t-8.5 -18.5q0 -7 9 -17q-11 -6 -17 -6q-8 0 -15 6.5t-7 14.5q0 19 12.5 32.5t26.5 13.5
q63 0 63 -44q0 -24 -28 -49q-26 -25 -67 -25q-29 0 -56 28q-26 29 -26 55q0 54 56 96q55 42 116 42q62 0 108 -52q47 -53 47 -102q0 -39 -28 -94q-27 -56 -63 -81q-87 -63 -139.5 -107.5t-71.5 -73.5q-37 -55 -37 -98q34 26 85 26q42 0 127 -47q49 -26 62 -26q31 0 52.5 25
t21.5 61q0 22 -19.5 40.5t-43.5 18.5q-38 0 -38 -35q0 -10 8 -20.5t17 -10.5q24 0 24 35z" />
    <glyph glyph-name="three" unicode="3" horiz-adv-x="425" 
d="M142 507q-5 0 -13.5 11t-8.5 17q0 7 5 14t13 12t17 8.5t17 3.5q10 0 29 -17q19 -16 19 -29q0 -26 -30 -45q-28 -19 -60 -19q-19 0 -35 8t-27.5 22t-18 32.5t-6.5 39.5q0 38 63 64q63 27 114 27q69 0 122 -47t53 -113q0 -41 -61 -103q-63 -63 -135 -94q84 -16 129.5 -57
t45.5 -92q0 -69 -67 -124q-67 -56 -135 -56q-54 0 -96 30q-41 30 -41 72q0 24 31 52q32 29 63 29t51.5 -14t20.5 -32q0 -29 -21 -48.5t-54 -19.5q-22 0 -33 44q27 -11 54 -11q22 0 22 14q0 6 -4.5 13t-11 13t-15 10t-15.5 4q-22 0 -42 -12.5t-20 -34.5q0 -36 30.5 -62
t85.5 -26q121 0 121 145q0 75 -38 110.5t-128 35.5q-5 0 -15.5 -0.5t-27.5 -1.5l3 48q39 -15 54 -15q77 0 125 62q48 63 48 145q0 50 -40 83q-39 33 -90 33q-40 0 -74 -36q-35 -37 -35 -73q0 -15 16 -31t29 -16q21 0 37.5 13.5t16.5 32.5q0 32 -11 32q-28 0 -28 -28l2 -23v0
z" />
    <glyph glyph-name="four" unicode="4" horiz-adv-x="511" 
d="M481 247h-112q-1 -32 -1 -56v-39q0 -20 1.5 -48.5l3.5 -65.5l100 3q0 -1 -1.5 -12t-1.5 -12q-161 0 -287 -38l-5 28q40 8 81.5 15l84.5 14q0 37 -6 102q-2 32 -3.5 59t-1.5 48q-113 -2 -190.5 -3.5t-120.5 -3.5q3 24 72 113q82 103 108 153t26 81q0 37 -14 53.5t-47 16.5
q-32 0 -66 -23q-32 -23 -32 -48q0 -16 17 -39q18 -23 29 -23q9 0 17.5 10t8.5 23q0 15 -36 15q0 9 10.5 17.5t18.5 8.5q14 0 24.5 -9.5t10.5 -24.5q0 -12 -7 -22.5t-18 -18.5t-25 -12.5t-27 -4.5q-30 0 -48 24.5t-18 55.5t48 60q48 30 97 30q54 0 86.5 -27t32.5 -76
q0 -36 -27 -82q-13 -23 -39 -54t-64 -69q-77 -77 -80 -93q28 -4 56.5 -6t58.5 -2q34 0 67.5 3t67.5 8q-2 176 12 403q48 -11 83 -15l-23 -117q-17 -84 -23.5 -146t-9.5 -122q67 0 121 17z" />
    <glyph glyph-name="five" unicode="5" horiz-adv-x="503" 
d="M127 425q23 5 60 5q54 0 95 -7.5t72.5 -21t55 -33.5t41.5 -44q36 -50 36 -101q0 -40 -38 -99q-19 -29 -41.5 -52.5t-50.5 -42.5q-56 -38 -105 -38q-67 0 -129 41q-60 42 -60 106q0 41 46 78t82 37q9 0 20 -4t20 -10t15 -13.5t6 -14.5q0 -27 -22 -52t-46 -25
q-13 0 -21.5 8t-8.5 21q0 6 6 18q24 -8 37 -8q34 0 34 27q0 16 -15 25t-34 9q-15 0 -37 -28q-21 -27 -21 -45q0 -78 32.5 -112.5t105.5 -34.5q51 0 98 65t47 132q0 42 -18.5 83t-57.5 70q-37 29 -72 37q-32 7 -92 7q-46 0 -98 -30q0 152 -18 262l219 -4q113 0 113 47
q0 12 -12.5 19t-28.5 7q-25 0 -25 -20q0 -8 18 -20q-20 -10 -36 -10q-10 0 -16.5 10.5t-6.5 13.5q0 12 27 29q28 16 55 16q12 0 23 -3.5t20 -9.5t14.5 -12.5t5.5 -12.5q0 -10 -29 -42q-28 -31 -71 -48q-39 -16 -64 -16q-23 0 -48.5 3t-54.5 8q-59 12 -75 15l28 -103t20 -82z
" />
    <glyph glyph-name="six" unicode="6" horiz-adv-x="510" 
d="M256 278q42 0 42 -32q0 -12 -27 -30q-26 -17 -53 -17q-18 0 -39 22t-21 42q0 41 37 72q38 32 73 32q84 0 149 -48q65 -47 65 -118q0 -57 -74 -134q-73 -76 -113 -76q-107 0 -184 86t-77 225q0 26 20 86q21 59 44 94l28 38t36 44q40 48 91.5 74.5t112.5 26.5q34 0 69 -39
q35 -40 35 -78q0 -20 -15 -36t-31 -16q-21 0 -38 17q20 13 34 36t14 38t-29.5 31t-89.5 16q-45 0 -94 -42q-50 -41 -80 -123q-30 -81 -30 -176q0 -118 57 -199q58 -81 121 -81q55 0 83.5 53.5t28.5 147.5q0 54 -48 92q-47 38 -107 38q-19 0 -35 -21q-15 -21 -15 -41
q0 -16 15 -38q15 -21 30 -21q22 0 22 31q0 11 -7 24z" />
    <glyph glyph-name="seven" unicode="7" horiz-adv-x="392" 
d="M397 636q-24 -73 -91 -193l-54 -99t-29 -57q-8 -17 -17.5 -40l-20.5 -52q-21 -56 -21 -81q0 -31 21 -61t42 -30q22 0 42 26q19 26 19 51q0 21 -16 36t-38 15q-8 0 -14.5 -8t-6.5 -18q0 -23 29 -23q0 -24 -22 -24q-5 0 -16.5 10t-11.5 23q0 21 19 46q20 26 38 26
q10 0 20 -6.5t18 -16.5t12.5 -23t4.5 -26q0 -51 -26 -83.5t-71 -32.5q-46 0 -80 32q-32 32 -32 64q0 44 41 124q21 40 44 78.5t49 75.5q93 133 123 219q-57 -23 -97 -23q-23 0 -51 1.5t-62 5.5q-33 4 -57.5 5.5t-41.5 1.5q4 -54 5.5 -82.5t1.5 -33.5h-25l-1 188q10 1 16 1
h12q33 0 106 -17q74 -17 128 -17q60 0 111 18z" />
    <glyph glyph-name="eight" unicode="8" horiz-adv-x="437" 
d="M210 316q-21 -22 -36 -41t-24.5 -37.5t-13.5 -38t-4 -43.5q0 -73 35.5 -112.5t89.5 -39.5q31 0 58 35q27 36 27 76q0 42 -8.5 69t-25.5 48q-17 22 -48 44q-16 12 -28 22zM327 464q39 28 39 81q0 43 -39 79t-97 36q-42 0 -81 -40q-39 -41 -39 -105q0 -21 2.5 -42
t12.5 -42.5t28.5 -44t51.5 -45.5q61 57 87 99q-38 0 -61.5 25t-23.5 60q0 21 21 44t41 23q11 0 31 -11t20 -25q0 -27 -37 -31q0 12 -7 27.5t-16 15.5q-15 0 -25 -12t-10 -22q0 -21 25 -45q26 -25 53 -29q11 20 15 43l20 -4q-4 -23 -11 -35zM224 330q5 -2 13.5 -6t21.5 -9
q149 -56 149 -166q0 -59 -52 -108q-52 -50 -116 -50q-67 0 -121 45q-53 45 -53 95q0 63 34.5 108.5t91.5 88.5q-60 32 -106 78q-45 45 -45 111q0 62 63 112q62 49 142 49q65 0 111 -40q48 -41 48 -82q0 -15 -6 -32t-17.5 -32t-27.5 -28t-35 -20q-28 -47 -95 -114z" />
    <glyph glyph-name="nine" unicode="9" horiz-adv-x="491" 
d="M245 297q-11 -6 -19 -6q-11 0 -18 9t-7 22q0 27 23 55q24 28 55 28q15 0 32 -26t17 -46q0 -45 -35 -77q-34 -31 -72 -31q-74 0 -136 56q-60 55 -60 124q0 91 63 166q64 76 128 76q89 0 163 -89t74 -224q0 -71 -36 -159q-35 -87 -95 -142q-59 -53 -125 -53
q-27 0 -48.5 7.5t-36.5 19t-23 26.5t-8 30t13 28t30 13q9 0 16 -4q-9 -15 -9 -32q0 -12 5.5 -25t16 -23t24.5 -16.5t32 -6.5q70 0 118 105q48 106 48 244q0 125 -48 205q-46 79 -108 79q-50 0 -84 -63q-35 -64 -35 -160q0 -65 37 -114t88 -49q30 0 56 24q25 24 25 49
q0 7 -4.5 15.5t-11.5 15.5t-15.5 11.5t-16.5 4.5q-35 0 -35 -25q0 -6 3.5 -12.5t7.5 -12.5l7.5 -11t3.5 -6z" />
    <glyph glyph-name="colon" unicode=":" horiz-adv-x="167" 
d="M69 63q16 0 35 -19q20 -20 20 -34t-6.5 -20.5t-26.5 -6.5q-46 0 -46 23q0 7 2 17t5 19t7.5 15t9.5 6zM98 438q17 0 27.5 -10.5t10.5 -27.5q0 -36 -29 -36q-8 0 -17.5 3.5t-18 9.5t-14 13.5t-5.5 15.5q0 14 14.5 23t31.5 9z" />
    <glyph glyph-name="semicolon" unicode=";" horiz-adv-x="153" 
d="M84 39q-11 -15 -26 -15q-11 0 -18.5 11t-7.5 22q0 12 16 23t31 11q21 0 35 -19t14 -42q0 -12 -2.5 -23.5t-10 -24.5t-21.5 -28t-36 -33q0 14 -9 25q54 22 54 64q0 23 -19 29zM89 454q9 0 19 -11.5t10 -24.5q0 -25 -26 -25q-16 0 -32 12t-16 26q0 23 45 23z" />
    <glyph glyph-name="less" unicode="&#x3c;" horiz-adv-x="617" 
d="M599 514l-93.5 -45l-146.5 -67q-87 -38 -147.5 -68.5t-96.5 -53.5q151 -101 451 -240l-20 -46q-332 205 -492 282l-4 15q186 86 311 153t194 116l44 -46v0z" />
    <glyph glyph-name="equal" unicode="=" horiz-adv-x="617" 
d="M564 166q-82 0 -265 -6q-92 -2 -154 -3.5t-95 -1.5l-5 47q108 -4 194.5 -5.5t155.5 -1.5q45 0 89.5 0.5t89.5 1.5zM577 344l-219 8q-78 4 -138 5.5t-103 1.5q-16 0 -31.5 -0.5t-31.5 -1.5l-4 37q130 -6 293 -6q177 0 236 6z" />
    <glyph glyph-name="greater" unicode="&#x3e;" horiz-adv-x="617" 
d="M574 269q-161 -77 -492 -282l-20 46q300 139 451 240q-74 46 -240 120l-143.5 66l-100.5 48l44 46q69 -49 194 -116t311 -153z" />
    <glyph glyph-name="question" unicode="?" horiz-adv-x="404" 
d="M182 84q9 0 19 -11.5t10 -26.5q0 -14 -12 -25t-29 -11q-16 0 -16 27q0 17 8.5 32t19.5 15zM130 494q-20 0 -34 12.5t-14 29.5q0 21 21.5 34t48.5 13q17 0 35 -23t18 -47q0 -30 -31 -49q-29 -19 -66 -19q-36 0 -64 27q-29 27 -29 60q0 56 50 95q49 40 132 40q67 0 120 -52
q55 -52 55 -115q0 -36 -14.5 -71t-44.5 -62q-9 -9 -22 -17t-26.5 -14t-27 -10t-23.5 -4l-23 6q-1 -45 0.5 -88t6.5 -85l-48 -8q4 32 5.5 50.5t1.5 23.5q0 15 1 35t2.5 40.5l3 40.5t1.5 35q45 -20 74 -20q30 0 53 26q22 25 22 105q0 81 -39 127t-100 46q-46 0 -85 -40
q-38 -41 -38 -83q0 -27 19 -52q20 -26 42 -26q21 0 37 25q18 25 18 42q0 46 -33 46q-20 0 -20 -36q0 -16 15 -38z" />
    <glyph glyph-name="at" unicode="@" horiz-adv-x="551" 
d="M340 167q24 2 39.5 -10t15.5 -35q0 -29 -36 -47.5t-89 -18.5q-100 0 -170 76t-70 180q0 105 74 188q73 82 181 82q112 0 169 -56t57 -153q0 -40 -38 -89q-37 -47 -109 -70q-2 0 -8 -3t-14 -6.5t-16.5 -6.5t-14.5 -4q33 103 33 150q0 75 -65 75q-28 0 -47 -27t-19 -66
q0 -34 14.5 -55.5t41.5 -21.5q13 0 24.5 8.5t11.5 21.5q0 8 -6 16t-10 8q-15 0 -32 -23q-9 9 -9 23q0 11 8.5 20t19.5 9q44 0 44 -48q0 -10 -20 -35q-20 -24 -41 -24q-37 0 -68 28t-31 64q0 40 36 78q36 37 80 37q39 0 56 -12t21 -50q7 25 11.5 49t7.5 47q1 -3 25 -9
q26 -7 27 -7q-69 -158 -84 -221q52 -1 93 43q42 43 42 100q0 94 -51 145.5t-148 51.5q-78 0 -135 -77t-57 -158q0 -64 10 -108t39 -84q28 -38 73 -55q45 -15 64 -15q35 0 57 17t22 42q0 19 -9 36z" />
    <glyph glyph-name="A" unicode="A" horiz-adv-x="624" 
d="M487 652q-84 3 -138 -56t-69 -245q-2 -17 -3 -28.5t-2 -18.5q20 -2 36 -3t28 -1q26 0 58.5 3t71.5 8q-1 29 -1.5 51.5t-0.5 39.5q0 67 5 129t15 121zM634 11q-44 -20 -123 -28q-16 72 -26 145t-14 150q-10 -1 -26.5 -1.5t-39.5 -0.5q-79 0 -134 9q-26 -139 -75 -211.5
t-118 -72.5q-34 0 -60 32t-26 68q0 28 23 63q24 34 51 34q7 0 14.5 -4.5t14 -11t10.5 -14.5t4 -15q0 -9 -3 -18.5t-7.5 -17.5t-11 -13t-13.5 -5q-3 0 -7 3q14 11 14 27q0 10 -7.5 20t-16.5 10q-46 0 -46 -41q0 -37 20.5 -55t69.5 -18q70 0 97 81q27 82 27 170
q-164 38 -164 112q0 22 13.5 39.5t32.5 17.5h10q-17 -22 -17 -47q0 -37 33.5 -64.5t90.5 -40.5q-3 37 -3 75q0 75 19 124.5t64 87.5t100.5 57t115.5 19q37 0 41 -1q-43 -199 -48 -355q5 1 11.5 3l15.5 5l2 -43q-22 -2 -29 -3v-35q0 -78 4.5 -136.5t14.5 -98.5q37 2 96 25
l6 -26v0z" />
    <glyph glyph-name="B" unicode="B" horiz-adv-x="561" 
d="M260 308q89 0 130 51q40 50 40 96q0 69 -29 106q-29 36 -56 50t-82 21q0 -68 -15 -242q-8 -88 -18 -174t-23 -174q56 -3 120 26q63 30 63 92q0 124 -130 124v24v0zM264 651q121 -10 180 -62q58 -51 58 -111q0 -59 -58 -113q-59 -53 -141 -69q69 -11 112 -46
q44 -36 44 -77q0 -16 -9.5 -36t-26.5 -39t-41.5 -35t-55.5 -24q-20 -7 -38.5 -11t-34.5 -6t-43 -3t-65 -1h-32t-27 1l6 28q20 -4 41.5 -6t45.5 -2q11 85 16.5 168t5.5 165q0 131 -9 260q-173 -11 -173 -123q0 -46 53 -46q5 0 12.5 2.5t14 7t11.5 10t5 11.5q0 4 -6 6.5
t-11 2.5q-9 0 -19 -13q-8 3 -8 14q0 19 31 19q11 0 18.5 -10t7.5 -22q0 -23 -17.5 -37.5t-39.5 -14.5q-29 0 -60 25t-31 56q0 45 52.5 82t157.5 47q0 28 -1.5 51t-5.5 43q57 0 82 -7v-51q0 -21 -1 -34z" />
    <glyph glyph-name="C" unicode="C" horiz-adv-x="520" 
d="M507 190q-5 -106 -58 -163t-146 -57q-101 0 -190 98q-88 97 -88 216q0 73 39 165q41 92 106 147q68 56 147 56q74 0 118 -39q45 -39 45 -86q0 -46 -42 -83q-42 -36 -92 -36q-28 0 -59 23q-29 23 -29 57q0 32 19.5 49t49.5 17q22 0 39 -14t17 -28q0 -23 -10 -37.5
t-24 -14.5q-16 0 -22 15q10 0 23 9t13 18q0 31 -19 31q-22 0 -41 -17.5t-19 -41.5q0 -8 5 -17t14 -17t20 -13.5t23 -5.5q33 0 56 32q24 33 24 74t-30 74q-29 33 -78 33q-102 0 -164 -89q-60 -89 -60 -219q0 -141 69 -237q71 -95 170 -95q61 0 92.5 36.5t31.5 96.5
q0 11 -1 27.5t-3 39.5l54 -4v0z" />
    <glyph glyph-name="D" unicode="D" horiz-adv-x="654" 
d="M257 21q67 10 121 36t92 66t58 93t20 118q0 114 -79 183q-79 70 -195 70q-11 0 -21 -0.5t-19 -1.5q11 -164 17 -304t6 -260zM230 605q10 1 20 1.5t20 0.5q103 0 190 -38q85 -38 126 -102q40 -64 40 -133q0 -115 -128 -228q-128 -111 -343 -117l-6 25l87 5
q-20 307 -75 557q-57 -16 -91 -49.5t-34 -79.5q0 -14 9.5 -26.5t18.5 -12.5q15 0 30.5 11.5t15.5 29.5q0 14 -5 24.5t-12 10.5q-12 0 -12 -16q0 -8 7 -12l-4 -6q-24 0 -24 20q0 14 11.5 23t26.5 9q17 0 30.5 -14t13.5 -30q0 -23 -28 -44q-28 -20 -55 -20q-14 0 -26.5 5.5
t-21.5 14.5t-14.5 20t-5.5 21q0 38 46 78q47 41 119 59l-14 60l81 12l7 -59v0z" />
    <glyph glyph-name="E" unicode="E" horiz-adv-x="532" 
d="M431 130q22 -6 22 -18q0 -18 -9.5 -31.5t-25.5 -13.5q-17 0 -28.5 15t-11.5 33q0 29 25 54q26 26 45 26q43 0 67.5 -18t24.5 -52q0 -14 -5 -29.5t-13.5 -30.5t-19.5 -29t-23 -24q-12 -9 -23 -14.5t-24 -8.5t-29 -4t-37 -1q-19 0 -86 9q-34 4 -60.5 6t-46.5 2
q-31 0 -81 -10v26l56 4q-17 205 -33 321q-8 58 -21.5 120.5t-31.5 131.5l-52 -4v25q84 3 158.5 11t140.5 21l110 22q-8 -46 -11.5 -86t-1.5 -75h-24l3 110l-228 -15q8 -113 12 -189.5t4 -118.5q142 6 226 35v-39q-51 -10 -107 -15.5t-119 -7.5q1 -25 1.5 -57t0.5 -71v-59
q0 -29 -1 -58l190 -6q87 0 112 20q24 19 24 60q0 69 -70 69q-10 0 -21 -12.5t-11 -29.5q0 -12 10 -19.5t19 -7.5q10 0 10 11q0 10 -10 16l4 6v0z" />
    <glyph glyph-name="F" unicode="F" horiz-adv-x="457" 
d="M2 612q28 -2 54 -3t50 -1q23 0 55.5 4.5t75.5 12.5q85 18 125 18q38 0 60 -19.5t22 -56.5q0 -40 -34 -84q-33 -44 -70 -44q-34 0 -53.5 18t-19.5 40q0 18 23 39q22 22 41 22q13 0 24 -11.5t11 -22.5q0 -29 -24 -29q-8 39 -28 39q-9 0 -16 -6.5t-7 -15.5q0 -14 18 -35
t36 -21q29 0 46 28t17 64q0 22 -18.5 38.5t-52.5 16.5q-29 0 -75 -3.5t-112 -10.5q5 -114 7.5 -193t2.5 -127q133 0 231 24l-3 -38q-66 -8 -122.5 -12t-104.5 -4l4 -240q67 0 132 24v-34q-89 -12 -143 -12q-27 0 -71 -10v29l58 2q-21 354 -80 590l-59 2v22v0z" />
    <glyph glyph-name="G" unicode="G" horiz-adv-x="609" 
d="M613 232q-30 -6 -71 -9q0 -62 9 -152q9 -89 9 -133q0 -55 -33 -92q-33 -39 -82 -39q-35 0 -67 22q-32 23 -32 50q0 26 23 51q23 23 51 23q21 0 35 -14t14 -28q0 -12 -11 -20t-21 -8q-17 0 -17 19q8 -5 13 -5q10 0 10 16q0 24 -21 24q-11 0 -19.5 -16.5t-8.5 -32.5
q0 -28 14.5 -45.5t37.5 -17.5q41 0 66 31q26 32 26 66q0 31 -14 84q-7 26 -11 44.5t-6 29.5q-55 -94 -167 -94q-117 0 -209 85q-92 86 -92 202q0 147 85 259q86 113 206 113q78 0 125 -41t47 -88q0 -45 -40 -81q-40 -35 -87 -35q-29 0 -49.5 20.5t-20.5 51.5q0 23 18 44
q19 21 38 21q13 0 30 -14t17 -23q0 -18 -9 -29.5t-22 -9.5q3 21 -8 29t-20 8q-11 0 -18 -11.5t-7 -23.5q0 -10 15 -28q17 -17 36 -17q34 0 54.5 26t20.5 71q0 23 -9 43.5t-25.5 36.5t-38.5 25t-48 9q-101 0 -161 -91q-59 -91 -59 -242q0 -126 72 -208q73 -82 177 -82
q63 0 96 60q33 61 33 155q-17 0 -48.5 -3t-76.5 -8v29l77.5 3.5l52.5 2.5q41 2 71 6q15 2 27.5 5t22.5 5v-29v0z" />
    <glyph glyph-name="H" unicode="H" horiz-adv-x="671" 
d="M473 362q-10 76 -15 128.5t-5 81.5q0 67 38 111q39 44 96 44q38 0 67 -29q30 -29 30 -68q0 -21 -25 -43q-23 -22 -48 -22q-10 0 -20.5 4t-19 10.5t-14 13.5t-5.5 13q0 15 14.5 29t26.5 14q17 0 21.5 -4.5t4.5 -12.5t-6 -18q-12 18 -22 18q-9 0 -9 -20q0 -14 10 -24.5
t18 -10.5q6 0 11.5 6.5t10 17t7.5 23.5t3 25q0 10 -4 21t-10.5 20t-16.5 14.5t-22 5.5q-32 0 -53 -49q-21 -48 -21 -113q0 -37 3.5 -97t10.5 -144q14 -167 33 -278q35 0 85 22l8 -27q-31 -8 -55.5 -13t-44.5 -7t-44 -9.5t-53 -18.5l-2 33l79 17q-51 244 -57 312
q-37 -13 -76.5 -22.5t-82.5 -17.5q-86 -15 -140 -15q0 -119 -1.5 -193.5t-5.5 -105.5q-6 -62 -32 -108q-26 -45 -74 -45q-25 0 -50 22t-25 54q0 18 26 38q25 19 45 19q25 0 38.5 -13.5t13.5 -28.5q0 -12 -9 -21t-20 -9q-17 0 -22 23l5 4q9 -9 12 -9q10 0 10 17q0 7 -7 14.5
t-14 7.5q-12 0 -22 -12.5t-10 -28.5q0 -24 9 -41t24 -17q39 0 60 44t21 125q0 58 -5.5 127.5t-16.5 151.5q-21 165 -54 315q-5 -1 -17 -1q-20 0 -48 3v22q159 -3 227 12v-26q-22 -2 -40 -4t-32 -4q12 -218 12 -301q13 -1 24 -1h22q29 0 56.5 3t54.5 8q28 6 62.5 15.5
t76.5 22.5z" />
    <glyph glyph-name="I" unicode="I" horiz-adv-x="269" 
d="M255 -3q-26 2 -54 3.5t-57 1.5q-13 0 -37.5 -2.5t-62.5 -7.5v28l87 2q-17 126 -26.5 276.5t-10.5 327.5l-72 -2l1 23q45 -1 75.5 0.5t47.5 3.5t38 7t46 12l5 -25l-65 -13q-18 -230 -18 -399q0 -52 1.5 -104t3.5 -106h46t54 1z" />
    <glyph glyph-name="J" unicode="J" horiz-adv-x="442" 
d="M405 618q-38 -1 -67 -6q1 -56 9 -150q4 -48 5.5 -92t1.5 -86q0 -90 -21 -178t-70 -129q-47 -43 -110 -43q-59 0 -105 43t-46 98q0 56 44 100q46 44 88 44q41 0 70 -30q30 -30 30 -70q0 -27 -27 -49q-25 -22 -53 -22q-22 0 -40.5 17.5t-18.5 39.5q0 17 11 28t28 11
q30 0 30 -26q-14 3 -19 3q-6 0 -11 -6t-5 -13q0 -16 7.5 -27t14.5 -11q8 0 14.5 6t11.5 15t8 20t3 21q0 33 -13.5 54t-37.5 21q-17 0 -31 -9.5t-24.5 -26t-16.5 -39t-6 -47.5q0 -57 24.5 -92t69.5 -35q74 0 113 64q40 64 40 222q0 73 -19 180q-9 55 -19.5 101t-21.5 84
q-10 -2 -36.5 -3.5t-69.5 -3.5v25q68 2 113 4.5t68 5.5l44 8t40 9v-30v0z" />
    <glyph glyph-name="K" unicode="K" horiz-adv-x="623" 
d="M551 149q13 0 13 -18q0 -8 -10 -14t-24 -6q-16 0 -31 12.5t-15 29.5q0 16 18 29t42 13q15 0 28.5 -5.5t24.5 -14.5t17.5 -21t6.5 -25q0 -31 -29 -52t-61 -21q-81 0 -155 55q-75 56 -173 203l-57 -47l-2 -245q42 0 99 18v-26q-56 -12 -110 -12q-13 0 -37.5 -2.5
t-62.5 -7.5v27l87 2l-37 587l-72 -2v23q40 1 68 1.5t45 2.5q33 4 95 21v-27l-60 -13q-5 -70 -8.5 -149t-4.5 -169q114 97 171 180q58 86 89 178l-43 28l11 17q24 -15 43.5 -25t37 -17t34.5 -12t36 -10l-12 -19l-51 13q-94 -153 -211 -269l72 -115q25 -41 49.5 -72.5t50 -54
t53 -35t59.5 -13.5q20 0 35 18.5t15 43.5q0 22 -11 37t-29 15q-30 0 -30 -28q0 -11 6 -21.5t13 -10.5q16 0 17 25z" />
    <glyph glyph-name="L" unicode="L" horiz-adv-x="457" 
d="M367 122q8 8 17 8q20 0 20 -34q0 -6 -4 -14t-10.5 -15t-14.5 -11.5t-15 -4.5q-23 0 -38 18t-15 50q0 12 4.5 23.5t12 20.5t17.5 14.5t20 5.5q34 0 62 -37q29 -38 29 -82q0 -90 -97 -90q-42 0 -116 16q-77 15 -116 15q-19 0 -43 -1.5t-55 -5.5l2 23l85 4q2 19 3.5 68
t1.5 130q0 181 -30 391q-29 0 -81 -3l2 26q31 -1 60.5 -1.5t58.5 -0.5q47 0 106 9v-28h-71q6 -116 6 -203q0 -74 -7.5 -169.5t-21.5 -215.5q14 0 38.5 -1.5t59.5 -5.5q72 -6 96 -6q20 0 38 5t31.5 13t21.5 19t8 23q0 31 -12.5 51.5t-35.5 20.5q-27 0 -45.5 -11t-18.5 -30
t9 -23.5t29 -4.5q29 0 29 18q0 11 -20 26z" />
    <glyph glyph-name="M" unicode="M" horiz-adv-x="834" 
d="M744 72q13 -4 13 -15q0 -24 -34 -24q-8 0 -16 4t-15 10t-11.5 13.5t-4.5 14.5q0 11 7 21.5t18 19t24.5 14t27.5 5.5q21 0 38 -19t17 -48q0 -32 -33 -69q-32 -38 -59 -38q-26 0 -44.5 8.5t-31 23.5t-20 34.5t-10.5 41.5q-2 23 -3.5 52t-1.5 65l6 266q0 20 -0.5 40.5
t-1.5 41.5q-65 -129 -103.5 -220t-51.5 -148l-28 -2q-42 92 -104 214q-31 61 -51 108t-29 81q-6 -77 -6 -180q0 -170 18 -360q35 0 92 -6l-3 -19q-203 6 -211 8l2 24q62 -9 98 -7q-39 247 -35 580q-40 0 -67.5 -1.5t-43.5 -3.5q-32 -5 -50 -26q-20 -23 -20 -58
q0 -27 20.5 -44t44.5 -17q14 0 26 7.5t12 16.5q0 5 -6.5 12t-10.5 7q-24 0 -40 -19q-10 7 -10 16q0 13 12.5 22.5t21.5 9.5t18.5 -4t17.5 -10.5t13.5 -14.5t5.5 -17q0 -12 -5 -23t-13 -19.5t-18 -13.5t-20 -5q-33 0 -58.5 27t-25.5 75q0 38 31 69q32 32 72 32q18 0 44 1
t61 3q70 4 96 9l7 -21q-18 -2 -31.5 -3t-22.5 -1q46 -138 199 -353q29 74 53 128.5l41 90.5q18 36 33 70.5t26 67.5q-4 1 -20.5 3.5t-46.5 7.5l6 20q16 -5 99 -15q42 -5 77.5 -8t64.5 -5l-5 -21q-36 0 -97 9q-2 -8 -7.5 -64l-15.5 -159q-18 -206 -18 -303q0 -106 57 -106
q28 0 48 23t20 58q0 64 -31 64q-11 0 -23 -10t-12 -22q0 -16 8 -29t17 -13q13 0 13 25z" />
    <glyph glyph-name="N" unicode="N" horiz-adv-x="774" 
d="M546 139q-6 231 -6 266q0 105 10 151q11 49 54 77q44 29 106 29q39 0 62.5 -15t23.5 -41q0 -20 -31 -42q-30 -21 -71 -21q-18 0 -41 14q-22 13 -22 26q0 17 9.5 26.5t25.5 9.5q12 0 20 -11q-14 -16 -14 -23q0 -28 33 -28q21 0 32 11t11 26q0 24 -19.5 36.5t-50.5 12.5
q-56 0 -86 -61q-30 -62 -30 -256q0 -95 5.5 -175.5t16.5 -148.5l-18 -3q-100 195 -178.5 333t-138.5 223q5 -59 8 -124.5t3 -139.5q0 -51 -1.5 -90t-5.5 -68q-6 -54 -32 -99q-25 -43 -81 -43q-57 0 -102 33t-45 81q0 34 35 66q35 31 77 31q21 0 37.5 -10.5t16.5 -27.5
q0 -21 -18.5 -36.5t-46.5 -15.5q-8 0 -13 5.5t-5 12.5q0 8 8 16q3 -2 10.5 -10.5t14.5 -8.5q21 0 21 22q0 13 -17 23.5t-34 10.5q-9 0 -17.5 -5.5t-15 -13.5t-10.5 -18.5t-4 -20.5q0 -41 21 -75q22 -34 55 -34q65 0 98.5 71.5t33.5 194.5q0 84 -12 194q-5 55 -10 90.5
t-9 52.5l-129 -5v22q63 0 114.5 3t92.5 10q57 -133 121.5 -259.5t137.5 -250.5z" />
    <glyph glyph-name="O" unicode="O" horiz-adv-x="689" 
d="M326 460q-8 -12 -20 -12q-8 0 -16 13t-8 22q0 11 14 24t29 13q16 0 32 -19q17 -20 17 -35q0 -18 -6.5 -34t-17 -28t-24 -19t-26.5 -7q-15 0 -29 7.5t-24.5 20.5t-17 29t-6.5 33q0 47 47 91t117 44q103 0 186 -87q83 -86 83 -188q0 -128 -90 -233q-89 -104 -206 -104
q-135 0 -230 89q-94 88 -94 211q0 118 76 215q77 98 187 125l6 -15q-89 -16 -145 -105q-54 -89 -54 -207q0 -125 73 -210q74 -86 189 -86q93 0 153 90q60 91 60 210q0 118 -58 194q-59 77 -150 77q-55 0 -95 -35q-38 -35 -38 -75q0 -22 18 -36.5t38 -14.5q25 0 42.5 12
t17.5 29q0 14 -10.5 23.5t-22.5 9.5q-28 0 -28 -9q0 -8 31 -23z" />
    <glyph glyph-name="P" unicode="P" horiz-adv-x="551" 
d="M266 667q118 0 195 -58q79 -58 79 -137q0 -98 -63 -168q-61 -70 -141 -70q-12 0 -24 5.5t-21.5 15t-15 21.5t-5.5 25q0 15 26 29q27 15 48 15q22 0 22 -29q0 -8 -18 -24q-1 1 -4 6.5t-6.5 10.5t-8 9.5t-9.5 4.5q-22 0 -22 -35q0 -17 13.5 -28.5t32.5 -11.5q53 0 90 55
q39 55 39 132q0 89 -52 146.5t-157 62.5q-5 -54 -7.5 -136t-2.5 -194q0 -29 3 -68.5t8 -90.5q6 -51 9.5 -86.5t4.5 -55.5l122 -10l-7 -29q-54 9 -143 15q-45 3 -79.5 4t-60.5 0l-3 29q22 0 44.5 -1t45.5 -3q50 -3 56 -2q-2 22 -5.5 56t-10.5 81q-16 109 -23.5 203.5
t-7.5 175.5q0 46 0.5 74t1.5 39q-74 -3 -129 -34t-55 -77q0 -21 19 -34t43 -13q60 0 60 22q0 6 -6 10t-13 4q-16 0 -16 -18q-15 1 -15 17q0 24 28 24q13 0 25 -10.5t12 -20.5q0 -25 -23 -42.5t-56 -17.5q-36 0 -61 21.5t-25 51.5q0 38 45 79q48 42 168 58v34q0 25 1 65
q32 -2 50.5 -3.5t23.5 -1.5q-9 -38 -13.5 -61t-5.5 -31z" />
    <glyph glyph-name="Q" unicode="Q" horiz-adv-x="717" 
d="M656 -58q5 -5 5 -11q0 -12 -19 -19q-19 -8 -26 -8q-42 0 -42 40q0 17 23 46q24 28 68 28q36 0 62.5 -19.5t26.5 -48.5q0 -48 -39 -82q-38 -34 -94 -34q-85 0 -110 88q-12 48 -30 93q-59 -27 -130 -27q-130 0 -224 96q-95 97 -95 234q0 121 85 224t186 135l5 -16
q-44 -7 -98 -55q-51 -45 -79 -127q-26 -81 -26 -163q0 -135 69 -223q70 -88 184 -88q60 0 113 34q-22 49 -49 70.5t-69 21.5q-33 0 -56 -24t-22 -63l-22 7q13 61 42.5 93.5t69.5 32.5q81 0 126 -123q54 43 83 109t29 138q0 115 -70 200q-69 85 -163 85q-33 0 -59 -7.5
t-44 -20.5t-27 -29t-9 -34q0 -34 19 -57t46 -23q20 0 38 12t18 25q0 15 -9.5 27.5t-21.5 12.5q-17 0 -17 -18q0 -8 23 -20q-6 -14 -18 -14q-15 0 -23.5 8t-8.5 20q0 7 5 13.5t12.5 12t16 8.5t16.5 3q9 0 18.5 -3.5t17.5 -9.5t13 -13t5 -14q0 -28 -25.5 -47t-61.5 -19
q-42 0 -74 26q-31 25 -31 53q0 47 53 85q52 39 136 39q115 0 207 -84q92 -83 92 -204q0 -78 -48 -157q-48 -80 -127 -129q18 -76 43 -117q25 -42 106 -42q32 0 53.5 14.5t21.5 42.5q0 20 -20 45q-20 24 -47 24q-22 0 -40 -8.5t-18 -22.5q0 -28 23 -28q15 0 32 6z" />
    <glyph glyph-name="R" unicode="R" horiz-adv-x="611" 
d="M528 -22q23 -2 23 -13q0 -13 -14.5 -26t-30.5 -13q-19 0 -36.5 11.5t-17.5 27.5q0 22 21 43q22 21 46 21q39 0 65 -20t26 -49q0 -34 -36 -64q-35 -30 -85 -30q-48 0 -76 28t-28 73q0 13 2 32.5t6 46.5q9 55 9 111q0 150 -177 150l-2 15q161 41 161 178q0 56 -49 90
q-49 35 -107 35q-20 0 -48 -3q-12 -134 -12 -397q0 -25 3 -175q42 0 99 18v-27q-56 -12 -110 -12q-13 0 -37.5 -2.5t-62.5 -7.5v28l87 2q-36 379 -45 565l-72 -12v23q75 11 130 16.5t92 5.5q91 0 150 -43q60 -42 60 -91q0 -24 -11.5 -50t-34 -51t-55 -47.5t-74.5 -38.5
q88 -11 132 -41t44 -95q0 -38 -28 -110q-27 -74 -27 -117q0 -36 23 -58.5t63 -22.5q34 0 57 21t23 48q0 63 -54 63q-11 0 -21 -10.5t-10 -24.5q0 -16 7 -26t16 -10q18 0 16 35z" />
    <glyph glyph-name="S" unicode="S" horiz-adv-x="481" 
d="M278 556q-12 6 -22 6q-14 0 -14 -31q0 -10 9.5 -19t21.5 -9q45 0 45 79q0 16 -7 30.5t-18.5 25t-26.5 16.5t-32 6q-45 0 -78 -34q-33 -35 -33 -76q0 -34 26 -69q24 -32 104 -76q39 -21 66.5 -37.5l44.5 -27.5q33 -22 56.5 -54t23.5 -74q0 -78 -71 -151q-71 -71 -157 -71
q-64 0 -110 48q-46 49 -46 113q0 51 45 92q45 42 93 42q45 0 72 -21t27 -57q0 -38 -31 -66q-30 -27 -69 -27q-17 0 -28 12t-11 27t11.5 24.5t28.5 9.5q14 0 20 -11q-26 -8 -26 -19q0 -27 25 -27q19 0 31.5 20.5t12.5 44.5q0 30 -20.5 51.5t-49.5 21.5q-39 0 -59.5 -35.5
t-20.5 -93.5q0 -53 33 -90q33 -38 81 -38q76 0 128 52q54 52 54 139q0 40 -23 67.5t-57 45.5q-35 18 -93 42q-30 12 -53.5 22.5t-42.5 21t-34 22.5t-27 27q-25 31 -25 77q0 62 55 105t130 43q48 0 81 -23.5t33 -60.5q0 -43 -22 -73t-59 -30q-28 0 -48.5 12.5t-20.5 33.5
q0 17 12.5 31.5t31.5 14.5q33 0 33 -24z" />
    <glyph glyph-name="T" unicode="T" horiz-adv-x="475" 
d="M340 702q-3 4 -3 10q0 10 8 17t17 7q16 0 29.5 -12t13.5 -24q0 -23 -20.5 -41t-47.5 -18q-29 0 -50.5 20t-21.5 47q0 26 33 52q34 25 81 25t87 -28q41 -29 41 -67q0 -64 -52 -95q-54 -32 -190 -47q2 -58 3 -106t1 -88q0 -104 -9 -327q76 0 127 20v-31q-69 -10 -143 -12
q-13 -1 -30.5 -3.5t-40.5 -7.5v27l61 4q0 49 -4 116t-12 152t-16.5 146t-18.5 99q-31 -7 -77 -13t-107 -12l7 -92l-26 -3q-2 44 -5.5 77t-8.5 56l25 4l4 -20q67 6 131 14.5t126 19.5q124 23 166 50q43 28 43 82q0 31 -22.5 51t-61.5 20q-14 0 -27.5 -5.5t-24 -14t-17.5 -20
t-7 -23.5q0 -19 12.5 -36t28.5 -17q17 0 27.5 10t10.5 25q0 7 -5.5 14.5t-13.5 7.5t-21 -10z" />
    <glyph glyph-name="U" unicode="U" horiz-adv-x="659" 
d="M463 508q0 -6 -7.5 -11t-13.5 -5q-9 0 -16.5 7.5t-7.5 15.5q0 11 10.5 23.5t22.5 12.5q19 0 36.5 -14t17.5 -30q0 -26 -22.5 -43t-49.5 -17q-29 0 -55 26q-24 25 -24 55q0 44 31 74q31 31 71 31q60 0 101 -83q41 -84 41 -217q0 -147 -68 -253q-68 -104 -187 -104
q-104 0 -181 80q-76 79 -76 188q0 26 1.5 49.5t3.5 44.5q4 43 18 132l17 113h-57v19q38 1 64.5 2t42.5 2q29 3 90 20v-24l-57 -13q-10 -28 -29 -106q-20 -80 -27 -133q-4 -27 -5.5 -58.5t-1.5 -68.5q0 -92 57 -159q57 -68 140 -68q108 0 168 95q61 94 61 239
q0 130 -29 196.5t-86 66.5q-29 0 -50 -23t-21 -53q0 -25 17 -41.5t36 -16.5q14 0 26 11t12 24q0 15 -9 30.5t-16 15.5q-14 0 -14 -12q0 -10 25 -20z" />
    <glyph glyph-name="V" unicode="V" horiz-adv-x="626" 
d="M314 46q29 42 55 122q13 40 19 76t7 69q3 153 22 203q19 52 59 86t95 34q42 0 69 -23.5t27 -60.5q0 -23 -28 -47q-29 -23 -56 -23q-8 0 -16.5 3t-15.5 7.5t-12 10t-5 10.5q0 21 14 34.5t35 13.5q14 0 20 -5t6 -20q-19 10 -38 10q-5 0 -11.5 -4t-6.5 -9q0 -24 48 -24
q42 0 42 25q0 31 -29.5 50.5t-71.5 19.5q-51 0 -74.5 -41t-32.5 -129q-8 -87 -9 -117q-6 -153 -127 -328h-18q-4 46 -23 110q-9 31 -24 78.5l-36 111.5q-21 65 -39.5 112t-34.5 77l-32 61l-32 63l-95 -10l-5 23q184 9 278 32q6 -18 6 -25l-101 -11q63 -113 171 -565z" />
    <glyph glyph-name="W" unicode="W" horiz-adv-x="902" 
d="M762 578q32 0 32 -28q0 -9 -6.5 -18.5t-17 -17t-24 -12.5t-27.5 -5q-19 0 -33.5 17t-14.5 36q0 37 34 71t71 34t60.5 -25.5t23.5 -73.5q0 -43 -14 -97q-13 -50 -68 -143q-26 -46 -50 -95t-45 -103q-42 -106 -45 -157l-20 -1l-44 99q-42 94 -72.5 186.5t-51.5 174.5
q-91 -180 -141 -428l-35 -12q-24 140 -89 333q-32 96 -64 168t-63 123q-21 -4 -82 -24l-6 20q101 38 273 67l8 -24q-31 -2 -101 -18q34 -88 69.5 -230.5t73.5 -343.5l49 171q5 19 17 53.5l29 85.5q36 100 69 168l64 -26q9 -200 108 -486q33 197 127 335q47 72 63 106
q16 35 16 88q0 30 -28 54q-27 24 -51 24q-50 0 -50 -55q0 -15 11 -30.5t24 -15.5q27 0 27 25q0 13 -6 30z" />
    <glyph glyph-name="X" unicode="X" horiz-adv-x="607" 
d="M620 16q-116 -16 -242 -68l-11 25q22 8 48 16.5t57 17.5q-19 48 -53.5 107.5t-85.5 132.5q-7 -12 -18.5 -34.5l-27.5 -56.5q-16 -33 -30.5 -57.5t-27.5 -41.5q-26 -34 -69 -59q-42 -27 -75 -27q-42 0 -63 30.5t-21 85.5q0 28 21 54q22 27 45 27q48 0 48 -59
q0 -13 -13 -25t-26 -12q-12 0 -17 7t-5 28q16 -6 22 -6q22 0 22 15q0 23 -27 23q-21 0 -37.5 -16t-16.5 -42q0 -35 22.5 -52.5t77.5 -17.5q26 0 50.5 18.5t49 52.5t49 82t50.5 108q-54 75 -120 191t-83 168q-12 -1 -67 3l8 27q100 -15 230 -21l-6 -22q-26 2 -43.5 3.5
t-27.5 1.5q13 -57 46.5 -129t90.5 -161l72.5 160l65.5 148q-11 7 -29.5 13.5t-43.5 14.5l17 24q35 -16 76.5 -28.5t89.5 -23.5l-8 -31q-50 19 -71 23l-100.5 -213.5t-51.5 -115.5q31 -54 66.5 -126l77.5 -163l107 26l8 -25v0z" />
    <glyph glyph-name="Y" unicode="Y" horiz-adv-x="728" 
d="M749 589l-72 9l-56 -95l-81 -155l-87 -169l-35 -57.5t-37 -55.5q-22 -31 -38 -48.5t-35 -32.5t-41 -25t-43 -10q-60 0 -91 27t-31 75q0 32 30 64q32 32 67 32q47 0 62 -14.5t15 -44.5q0 -16 -24 -35q-24 -18 -37 -18q-14 0 -23.5 9t-9.5 24q24 -7 37 -7q15 0 27 8.5
t12 16.5q0 26 -35 26q-42 0 -70 -13.5t-28 -32.5q0 -26 31 -43.5t82 -17.5q27 0 55 15t54 42.5t51 66t46 85.5q-66 63 -137 246q-33 82 -78 129t-91 47q-35 0 -63 -24q-29 -23 -29 -59q0 -33 19.5 -50.5t51.5 -17.5q29 0 46.5 13.5t17.5 34.5q0 26 -37 26q-21 0 -21 -21
q0 -10 6 -23q-15 0 -24 9.5t-9 19.5q0 19 15.5 35.5t40.5 16.5q20 0 32.5 -21t12.5 -50q0 -26 -21 -54t-49 -28q-35 0 -69 32q-33 31 -33 67q0 57 43 99t108 42q25 0 61 -19t70 -70t78 -183q51 -160 73 -176l130 264.5t54 102.5q-10 2 -27.5 4.5l-43.5 6.5l8 25
q40 -14 174 -27z" />
    <glyph glyph-name="Z" unicode="Z" horiz-adv-x="547" 
d="M446 175q18 0 18 -24q0 -11 -15.5 -20t-30.5 -9q-19 0 -35 19q-15 19 -15 29q0 31 26 57q28 26 53 26q24 0 50 -24t26 -65q0 -56 -51 -108t-127 -52q-11 0 -34.5 2t-61.5 6q-37 4 -66 6t-51 2q-75 0 -101 -14l-6 12q170 199 241 322q35 63 69.5 134.5t68.5 155.5
q-114 -53 -277 -53q-4 -34 -8 -62.5t-9 -51.5l-29 3q23 84 23 122q0 17 -2 40.5t-6 53.5q3 2 22 3l9 -56q17 -1 32 -1h29q51 0 95.5 4t78.5 10.5t56 15t30 17.5q6 -9 34 -32l-46 -93.5l-52 -98.5q-28 -50 -53.5 -89.5t-50.5 -70.5l-54.5 -67.5l-68.5 -80.5l-58 -68.5
t-26 -31.5q25 13 71 20q48 9 82 9q19 0 84 -14q62 -13 106 -13q30 0 52 31q24 31 24 66q0 24 -19 49q-20 26 -40 26q-24 0 -37 -12t-13 -24q0 -35 39 -35q7 0 15.5 10t8.5 19z" />
    <glyph glyph-name="bracketleft" unicode="[" horiz-adv-x="214" 
d="M205 666q-32 6 -61 9.5t-54 4.5q2 -36 3.5 -92t1.5 -132q0 -77 -4.5 -195.5t-14.5 -281.5q28 -7 73 -7h15t13 1l-6 -28q-33 7 -62 10.5t-54 2.5q1 23 1.5 52.5t0.5 65.5q0 162 -7.5 319t-21.5 313q52 -3 105 -3q51 0 78 3z" />
    <glyph glyph-name="backslash" unicode="\" horiz-adv-x="362" 
d="M388 -94q-23 -10 -41 -15l-122 251t-117 216l-99.5 166t-67.5 100q2 1 9.5 3.5t19.5 7.5q25 11 29 16l205 -414q34 -72 64.5 -128t57.5 -98l30 -54l17.5 -30.5t14.5 -20.5z" />
    <glyph glyph-name="bracketright" unicode="]" horiz-adv-x="214" 
d="M201 711q-14 -147 -21 -304t-7 -327q0 -36 0.5 -65.5t1.5 -52.5q-26 1 -55 -2.5t-62 -10.5l-6 27q63 -2 101 7q-18 307 -18 505q0 71 1 119.5t3 76.5q-59 -3 -114 -15l-6 42q24 -3 71 -3q49 0 111 3z" />
    <glyph glyph-name="asciicircum" unicode="^" horiz-adv-x="617" 
d="M494 153q-58 152 -101 254t-72 157l-94 -190q-52 -105 -89 -205l-60 31q176 290 222 418l23 13q54 -126 110 -235t117 -203z" />
    <glyph glyph-name="underscore" unicode="_" horiz-adv-x="500" 
d="M0 -300v50h500v-50h-500z" />
    <glyph glyph-name="quoteleft" unicode="&#x2018;" horiz-adv-x="145" 
d="M68 541q10 15 26 15q11 0 18.5 -11t7.5 -22q0 -12 -16 -23t-31 -11q-8 0 -15.5 5.5t-14 14.5t-10.5 20t-4 22q0 51 63 101q0 -10 9 -20q-47 -18 -47 -61q0 -25 14 -30z" />
    <glyph glyph-name="a" unicode="a" horiz-adv-x="361" 
d="M225 147q-42 -2 -66.5 -6.5t-40.5 -23.5q-15 -18 -15 -39q0 -19 10.5 -32t27.5 -13q29 0 67 38l17 76v0zM160 320q-3 -20 -23 -20q-11 0 -17.5 7.5t-6.5 19.5q0 14 12.5 26.5t26.5 12.5q66 0 66 -38q0 -32 -34 -59q-35 -26 -58 -26q-29 0 -49 16.5t-20 43.5q0 56 53 115
q54 59 111 59q24 0 44.5 -11t35.5 -29.5t23.5 -44.5t8.5 -56q0 -43 -12 -73q-13 -32 -36 -71q-63 -104 -63 -190v-10t1 -10h-20l1 65q-61 -40 -88 -40q-33 0 -54.5 20t-21.5 53q0 31 32 54q31 24 71 24q27 0 89 6q36 79 36 140q0 142 -65 142q-60 0 -85.5 -38.5
t-25.5 -105.5q0 -19 11 -32t27 -13q10 0 20 5t18 13.5t13 19t5 21.5q0 12 -11 21t-25 9q-6 0 -10.5 -6t-4.5 -12q0 -12 10 -12q8 0 15 4z" />
    <glyph glyph-name="b" unicode="b" horiz-adv-x="440" 
d="M203 276q-25 1 -25 21q0 14 10.5 25t23.5 11q16 0 27.5 -14.5t11.5 -34.5q0 -26 -17.5 -41t-39.5 -15q-26 0 -43 19t-17 49q0 43 37 79t82 36q62 0 112 -59q51 -59 51 -126q0 -87 -64 -157t-141 -70q-48 0 -88 31q-39 30 -47 79q-25 -43 -45 -59l-16 9q18 18 32 41t20 44
q7 23 14 92q5 35 8.5 78.5l7.5 95.5t6 103t2 102q0 18 -1 43t-3 57l-59 -3l1 18q87 0 178 32l3 -17l-41 -13q-9 -77 -22.5 -159.5t-30.5 -173.5q-35 -181 -35 -230q0 -33 9.5 -60.5t25.5 -47t37.5 -30.5t45.5 -11q54 0 95 62t41 138q0 61 -33 114t-76 53q-18 0 -34 -7
t-28.5 -18.5t-20 -27.5t-7.5 -34q0 -15 14.5 -28.5t29.5 -13.5q14 0 27.5 9t13.5 19q0 19 -27 19q-10 0 -10 -11q0 -3 5 -18z" />
    <glyph glyph-name="c" unicode="c" horiz-adv-x="407" 
d="M320 24q-54 -14 -87 -14q-82 0 -138 71q-56 73 -56 168q0 87 68 157q69 70 156 70q41 0 81 -25q42 -26 42 -60q0 -29 -28 -56q-27 -27 -58 -27q-28 0 -50 15t-22 39q0 22 14 34.5t39 12.5q14 0 25.5 -7t11.5 -18q0 -7 -9 -14t-17 -7h-6q5 18 5 21q0 12 -15 12
q-9 0 -15.5 -10.5t-6.5 -20.5q0 -39 36 -39q24 0 39.5 18t15.5 43q0 15 -7 28.5t-18.5 23t-26.5 15.5t-31 6q-66 0 -111 -69q-44 -70 -44 -146q0 -86 34 -153t92 -67q44 0 66 37l21 -38v0z" />
    <glyph glyph-name="d" unicode="d" horiz-adv-x="440" 
d="M417 715q-19 -61 -44 -274q-13 -108 -19 -191.5t-6 -146.5q0 -78 42 -97l-14 -20q-32 9 -45 58q-13 48 -13 262q-44 78 -97 78q-48 0 -79 -52q-32 -53 -32 -113q0 -42 7.5 -77.5t22 -60.5t35.5 -39t48 -14q12 0 24 5.5t21 15t15 21.5t6 24q0 23 -20.5 40t-44.5 17
q-3 0 -9 -2.5t-11 -7t-9 -9.5t-4 -11q0 -21 25 -21q7 0 11.5 9t4.5 19q23 0 23 -22q0 -14 -12.5 -24t-23.5 -10q-14 0 -29 13.5t-15 33.5q0 29 19 48t44 19q31 0 49.5 -25t18.5 -67q0 -31 -27 -56q-26 -26 -56 -26q-80 0 -132 57q-51 58 -51 138q0 76 59 137q60 61 122 61
q24 0 51 -18t48 -51l18 371h-50v18q34 0 73.5 3.5t87.5 10.5l1 -17z" />
    <glyph glyph-name="e" unicode="e" horiz-adv-x="421" 
d="M292 105q23 0 23 -22q0 -14 -12.5 -24t-23.5 -10q-14 0 -29 13.5t-15 33.5q0 28 18 44t45 16q32 0 53.5 -23t21.5 -58q0 -41 -37 -66q-36 -24 -79 -24q-79 0 -147 65q-68 66 -68 160q0 88 66 160q66 73 140 73q57 0 103 -37q48 -38 48 -77q0 -25 -11 -46t-30 -36
t-45.5 -23t-56.5 -8q-60 0 -92 16.5t-32 46.5q0 27 20 44t42 17q19 0 35 -10t16 -24t-11 -27t-21 -13q-20 0 -20 14q23 6 23 22q0 12 -9 19t-21 7q-9 0 -16.5 -14.5t-7.5 -29.5q0 -21 30.5 -36.5t73.5 -15.5q37 0 57.5 22.5t20.5 60.5q0 39 -30 75q-28 37 -73 37
q-55 0 -92 -61q-38 -62 -38 -165q0 -87 43 -142q44 -56 108 -56q30 0 59 20q30 21 30 53q0 22 -21 37t-46 15q-13 0 -23 -9t-10 -21q0 -21 25 -21q7 0 11.5 9t4.5 19z" />
    <glyph glyph-name="f" unicode="f" horiz-adv-x="288" 
d="M113 301q-2 15 -10 45.5l-21 77.5q-26 96 -26 135q0 65 48 110q47 46 107 46q48 0 77 -26.5t29 -74.5q0 -25 -25 -47q-23 -22 -55 -22q-56 0 -56 49q0 12 14.5 23.5t26.5 11.5q11 0 21.5 -7t10.5 -17q0 -3 -4.5 -9.5t-10.5 -7.5q-2 29 -15 29q-5 0 -10.5 -7.5t-5.5 -19.5
q0 -14 9.5 -24t22.5 -10q17 0 29.5 17.5t12.5 40.5q0 38 -20.5 64.5t-52.5 26.5q-34 0 -63 -38q-28 -37 -28 -92q0 -46 12 -143q14 -96 15 -127q38 2 74.5 8.5t70.5 17.5l1 -28q-35 -6 -70.5 -11t-72.5 -9q12 -155 12 -277q50 6 87 19l3 -25q-43 -7 -85 -10.5t-87 -11.5v25
l58 2q0 151 -21 274l-81 -11v26l79 7v0z" />
    <glyph glyph-name="g" unicode="g" horiz-adv-x="443" 
d="M164 21q49 25 69 36q17 11 63 28q45 17 82 17q36 0 58.5 -28.5t22.5 -73.5q0 -73 -71 -132t-182 -59q-68 0 -118 35q-49 34 -49 84q0 62 85 105l6 -10q-38 -29 -38 -81q0 -24 8 -45.5t23 -38t36.5 -26t48.5 -9.5q96 0 156 54t60 108q0 24 -16.5 40t-42.5 16
q-38 0 -73 -10t-78 -31q-41 -21 -71 -41l-13 8q13 23 19 82q3 29 5.5 51t4.5 37q-57 14 -90.5 54t-33.5 92q0 78 54 135q55 58 119 58q40 0 68 -20q-23 35 -23 69q0 29 22 49t56 20q25 0 42.5 -14.5t17.5 -32.5q0 -16 -13.5 -28.5t-32.5 -12.5q-11 0 -17 17q12 -3 16 -3
q15 0 15 25q0 15 -7.5 25.5t-19.5 10.5q-23 0 -35.5 -18t-12.5 -48q0 -49 11 -69l-14 -9q-26 23 -70 23q-56 0 -90 -48q-34 -46 -34 -112q0 -72 27 -111t66 -39q47 0 82 48q35 49 35 108q0 41 -25 73q-26 33 -59 33q-14 0 -26 -13t-12 -30q0 -20 7 -34.5t20 -14.5
q6 0 13.5 7t7.5 18q0 12 -7 12q-9 0 -17 -8q0 12 6 20t13 8q29 0 29 -27q0 -15 -15.5 -28t-32.5 -13q-24 0 -40 16t-16 41q0 17 22 36q23 20 47 20q52 0 91 -36t39 -87q0 -66 -54 -115q-53 -49 -111 -49q-4 -42 -7 -70t-6 -44z" />
    <glyph glyph-name="h" unicode="h" horiz-adv-x="453" 
d="M367 21q-26 -2 -26 24q0 13 13 24.5t27 11.5q9 0 29 -9q19 -7 19 -31q0 -21 -6.5 -38.5t-18 -31t-26 -21t-30.5 -7.5q-21 0 -42 26q-21 25 -21 52q0 39 26 105t26 113q0 158 -118 158q-39 0 -74 -41q-34 -40 -34 -64l4 -151l4 -151q14 1 32 1.5t41 -0.5l-2 -26
q-27 3 -69 3q-35 0 -61.5 -1.5t-45.5 -5.5l-1 23q25 0 45 1t36 3q2 45 -5 128t-21 206t-29 219t-32 168q-21 -3 -69 -6l-1 20q66 1 204 27l1 -19q-18 -4 -32.5 -6.5l-25.5 -4.5q4 -28 7 -70t6 -99l12 -218q21 48 60 75.5t81 27.5q65 0 107 -47q43 -46 43 -102
q0 -74 -61 -162q-18 -27 -26 -45t-8 -43q0 -32 24 -45q26 -14 43 -14q16 0 25 11t9 28t-9 33t-20 16q-14 0 -14 -27q0 -14 4 -18z" />
    <glyph glyph-name="i" unicode="i" horiz-adv-x="213" 
d="M223 -11q-57 0 -92 -1t-49 -3t-25.5 -4l-22.5 -4v27l63 2q0 106 -5.5 207t-16.5 198l-54 2v18q25 -1 42 -1h28q34 0 93 18v-22l-44 -11l-10 -157l-12 -248q55 0 105 6v-27v0zM182 576q-18 30 -55 30q-28 0 -51 -16.5t-23 -38.5q0 -27 19.5 -42.5t38.5 -15.5q37 0 37 33
q0 37 -29 37q-5 0 -11.5 -4t-6.5 -10q0 -12 14 -12q7 0 16 6q-6 -25 -23 -25q-8 0 -14 9.5t-6 15.5q0 12 10 21t25 9q20 0 36.5 -10.5t16.5 -30.5t-21 -34.5t-45 -14.5q-29 0 -50.5 20t-21.5 50q0 16 6 30.5t16 26t23 18t26 6.5q65 0 79 -57z" />
    <glyph glyph-name="j" unicode="j" horiz-adv-x="234" 
d="M163 439q-6 -83 -6 -165q0 -35 3 -83.5t10 -111.5q7 -62 10 -96.5t3 -42.5q0 -69 -24 -104t-82 -35q-25 0 -47.5 6t-39.5 17.5t-27 28t-10 37.5q0 43 32 84q31 40 67 40q27 0 51 -18t24 -48q0 -22 -13.5 -40.5t-31.5 -18.5q-44 0 -44 48q0 26 26 26q9 0 10 -13
q-7 4 -11 4q-8 0 -8 -14q0 -6 5 -10.5t10 -4.5q22 0 22 33q0 14 -13 27.5t-27 13.5q-15 0 -32 -35q-16 -33 -16 -70q0 -36 19.5 -57.5t53.5 -21.5q36 0 59.5 29.5t23.5 83.5q0 40 -19 128l-15.5 82t-10.5 63q-7 54 -18 233l-72 1l-2 22q35 -1 58 -1h33q19 0 48 1.5t69 5.5
v-22zM122 615q-27 4 -27 23q0 8 10.5 14t16.5 6q14 0 23.5 -10t9.5 -25t-12 -32t-29 -17q-23 0 -40.5 19.5t-17.5 42.5q0 21 24 47q25 25 53 25q34 0 62 -23q27 -23 27 -48q0 -30 -18 -53t-48 -29l-2 6q15 7 26 24.5t11 33.5q0 14 -5 27t-13 23.5t-19 17t-23 6.5
q-21 0 -43 -19q-21 -20 -21 -39q0 -37 37 -37q40 0 40 29q0 5 -4.5 11.5t-10.5 6.5q-13 0 -13 -14q0 -6 6 -16z" />
    <glyph glyph-name="k" unicode="k" horiz-adv-x="423" 
d="M411 386q-39 7 -63 24l-154 -111.5t-63 -47.5q38 -3 64.5 -16t39.5 -32q14 -20 15 -34q1 -7 1 -23v-38q-1 -28 4 -45t14 -26t22 -12.5t28 -5.5q15 0 27 6.5t21 16.5t13.5 23t4.5 26q0 36 -39 36q-13 0 -18.5 -2.5t-5.5 -12.5q0 -12 19 -12q3 0 9 2.5t9 2.5q1 -3 1 -8
q0 -9 -6.5 -15t-16.5 -6q-15 0 -22.5 11t-7.5 27q0 14 18 31q19 17 36 17q20 0 32 -19.5t12 -44.5q0 -48 -32.5 -75t-89.5 -27q-16 0 -30 7t-24.5 17.5t-16.5 24t-6 27.5q0 35 -14 88q-13 52 -85 75l-26 -203l79 -4l-4 -23q-97 14 -171 11l3 23l78 -3q5 52 8.5 141t5.5 217
q6 255 6 330q-13 0 -30 1.5l-39 3.5l2 18q23 -2 49 -3t56 -1q34 0 60.5 1.5t46.5 3.5v-14q-49 -2 -74 -6q-5 -98 -45 -468l205 166q-3 3 -24 18q-21 16 -28 26l13 15q67 -66 135 -84z" />
    <glyph glyph-name="l" unicode="l" horiz-adv-x="242" 
d="M182 95q-8 -33 -27 -33q-33 0 -33 34q0 25 20.5 43.5t46.5 18.5q22 0 38.5 -20t16.5 -45q0 -50 -48 -84q-49 -35 -94 -35q-9 0 -19.5 5t-19 14t-14 21t-5.5 25q0 31 4.5 71.5t12.5 91.5q9 51 15 102t10 102q4 52 6 126t2 171l-60 -2l1 17q91 0 181 26v-17l-41 -13
l-26 -202.5t-18 -124.5q-14 -85 -42 -188q-28 -102 -28 -142q0 -21 16 -43q17 -23 33 -23q42 0 70.5 25.5t28.5 68.5q0 16 -9.5 28.5t-24.5 12.5q-39 0 -39 -31q0 -11 14 -11q16 0 26 13l6 -2v0z" />
    <glyph glyph-name="m" unicode="m" horiz-adv-x="712" 
d="M387 355q9 24 22.5 44.5t29.5 36t33.5 24t35.5 8.5q72 0 110.5 -50.5t38.5 -141.5q0 -116 -42 -198q-42 -83 -95 -83q-28 0 -45 18.5t-17 42.5q0 23 14.5 40.5t34.5 17.5q37 0 37 -37q0 -8 -8.5 -19.5t-19.5 -16.5l-8 7q14 11 14 22q0 12 -18 12q-26 0 -26 -36
q0 -15 12.5 -24t33.5 -9q36 0 55.5 58.5t19.5 172.5q0 40 -8 74t-23.5 58.5t-38 38t-50.5 13.5q-35 0 -61 -41t-26 -51l3 -23q1 -11 1.5 -21.5t0.5 -18.5q0 -100 -32 -167q-32 -65 -73 -65q-19 0 -35.5 13.5t-16.5 34.5q0 23 12 38t34 15q15 0 25 -8.5t10 -18.5
q0 -12 -7 -23t-19 -11l-6 7q12 4 12 11q0 10 -21 10q-6 0 -12 -6.5t-6 -15.5q0 -13 9.5 -22t23.5 -9q24 0 38 45q14 47 14 168q0 50 -31 93q-32 45 -74 45q-16 0 -33 -8t-31 -21.5t-23.5 -32.5t-10.5 -41l-3 -157q-1 -58 -1.5 -91.5t-0.5 -41.5l65 3v-24q-92 0 -146 -16
l-6 21l64 13q0 222 -53 413l-65 -7l-1 21q80 1 158 26q-8 -20 -12 -115q11 33 48 61q37 30 75 30q42 0 75.5 -22.5t45.5 -62.5z" />
    <glyph glyph-name="n" unicode="n" horiz-adv-x="517" 
d="M133 304q53 146 154 146q73 0 131 -61t58 -144q0 -90 -54 -174q-53 -83 -113 -83q-25 0 -51 23q-24 22 -24 48q0 10 6 20t15 17t20.5 11.5t22.5 4.5q51 0 51 -32q0 -30 -37 -30q-17 0 -20 7l4 5q8 -2 11 -2q10 0 10 18q0 20 -19 20q-10 0 -18.5 -15.5t-8.5 -30.5
q0 -47 42 -47q95 0 95 254q0 62 -37 115q-38 54 -86 54q-21 0 -40 -8.5t-35.5 -23.5t-30 -35t-23.5 -42q-19 -42 -19 -49l-19 -257l53 13l6 -22q-51 -13 -77 -13q-24 0 -70 3l4 22l65 -5q1 10 1 21v25q0 202 -37 378l-55 -9l-6 18q34 4 69 15t71 28l-9 -183v0z" />
    <glyph glyph-name="o" unicode="o" 
d="M252 328q-8 -11 -17 -11q-6 0 -11.5 6t-5.5 16q0 12 10.5 19.5t23.5 7.5q14 0 26.5 -12t12.5 -25q0 -31 -17.5 -49.5t-45.5 -18.5q-20 0 -34.5 21t-14.5 51q0 36 31 64q31 30 63 30q66 0 120 -59q55 -58 55 -132q0 -92 -63 -165q-61 -73 -134 -73q-83 0 -147 66
q-65 67 -65 156q0 76 60 144q60 69 141 87l6 -12q-63 -11 -103 -72q-41 -62 -41 -133q0 -98 41 -160q40 -61 107 -61q51 0 93 62q43 61 43 145q0 80 -37 133q-38 54 -90 54q-29 0 -48 -22.5t-19 -49.5q0 -17 13 -29.5t25 -12.5q8 0 16.5 3.5t15 8.5t11 11t4.5 12
q0 24 -27 24q-11 0 -11 -12q0 -6 13 -12z" />
    <glyph glyph-name="p" unicode="p" 
d="M238 348q0 10 4 14t17 4q11 0 24 -16q15 -17 15 -24q0 -20 -25 -38q-24 -18 -48 -18q-28 0 -43.5 17.5t-15.5 46.5q0 25 35 57t68 32q82 0 132 -54q51 -54 51 -138q0 -67 -65 -130q-65 -62 -157 -62q-53 0 -107 55q-9 -117 -9 -187q0 -45 3 -76q29 1 70 17l3 -28
q-53 -12 -84 -12q-11 0 -32 -1.5t-53 -3.5l1 21q30 2 49 3t27 1q-10 71 -14.5 156t-4.5 186q0 178 16 261q-11 -2 -33.5 -7t-54.5 -15l-4 21q92 20 166 49q-19 -59 -31 -186q-12 -125 -12 -165q48 -67 120 -67q53 0 95 53q43 52 43 121q0 73 -34 122q-33 50 -77 50
q-29 0 -50 -22t-21 -54q0 -18 11 -32t22 -14q14 0 22 11t8 26q0 26 -27 26z" />
    <glyph glyph-name="q" unicode="q" horiz-adv-x="497" 
d="M482 547q-50 -143 -78 -323q-14 -91 -21 -175.5t-7 -164.5v-36l102 -13l-6 -21q-24 1 -51.5 3.5l-56.5 5l-57.5 5t-53.5 3.5l2 24q23 -4 46.5 -5.5t49.5 -1.5q-2 41 -3.5 76.5t-1.5 66.5q0 91 12 219l13 122q0 8 -14 39q-14 32 -47 56q-34 26 -67 26q-64 0 -104 -54
q-40 -53 -40 -127q0 -71 35 -130q34 -57 93 -57q30 0 56 27q26 29 26 58t-17 49t-43 20q-15 0 -25.5 -6.5t-10.5 -18.5q0 -14 42 -14l5 -3q0 -29 -21 -29q-24 0 -34 10t-10 36q0 21 20 41q22 20 43 20q31 0 47.5 -29.5t16.5 -72.5q0 -39 -33 -73q-32 -33 -70 -33
q-76 0 -131 54q-56 54 -56 128q0 81 68 151q67 70 150 70q57 0 86 -23.5t44 -77.5q16 107 44 192l58 -14v0z" />
    <glyph glyph-name="r" unicode="r" horiz-adv-x="370" 
d="M134 329q20 67 56.5 103t73.5 36q18 0 34 -8t28 -21.5t19 -32.5t7 -40q0 -51 -29.5 -81.5t-75.5 -30.5q-24 0 -40.5 18.5t-16.5 44.5q0 13 21 31q22 19 36 19q20 0 34 -9t14 -26q0 -19 -33 -26q6 15 6 24q0 19 -13 19q-11 0 -19 -13.5t-8 -27.5q0 -13 11 -25t23 -12
q33 0 52.5 23.5t19.5 59.5q0 12 -6 23.5t-16.5 20t-24 13.5t-28.5 5q-30 0 -55 -15.5t-47 -57.5q-21 -41 -21 -50q0 -4 4.5 -72t14.5 -202q60 18 108 49l6 -24q-28 -14 -53.5 -24.5t-48.5 -18.5q-45 -16 -119 -25v25q41 0 83 11q0 51 -24 179q-11 64 -23.5 117t-25.5 97
l-69 -25l-5 16q97 25 151 76q-3 -41 -3 -57q0 -22 0.5 -43t1.5 -43z" />
    <glyph glyph-name="s" unicode="s" horiz-adv-x="307" 
d="M142 67q-22 20 -36 20q-4 0 -9.5 -4t-10.5 -9t-8.5 -11t-3.5 -10q0 -12 7.5 -24t20.5 -21t31.5 -15t39.5 -6t43 25q24 25 24 55q0 25 -19 53q-19 29 -106 99q-18 15 -30.5 27t-21 23.5t-14 22.5t-9.5 23q-8 27 -8 52q0 46 38 87q37 40 93 40q21 0 40.5 -5.5t34.5 -15
t24 -24t9 -32.5q0 -15 -6 -29.5t-16 -25.5t-23 -18t-28 -7q-12 0 -21.5 6.5t-17 16.5t-11.5 22t-4 23q0 27 31 27q11 0 18 -4q-1 -1 -2 -2.5t-3 -3.5q-17 -20 -17 -35q0 -6 5 -11t12.5 -8t15.5 -5t14 -2q10 0 17.5 10.5t7.5 20.5q0 16 -6.5 31.5t-17.5 27.5t-26 19t-32 7
q-15 0 -28.5 -6.5t-23.5 -17.5t-15.5 -24.5t-5.5 -27.5q0 -95 87 -161q92 -71 92 -140q0 -40 -16.5 -69t-40.5 -48q-12 -9 -20 -14.5t-16.5 -8.5t-18 -3.5t-24.5 -0.5q-31 0 -53 31q-22 29 -22 64q0 12 5 24t13.5 21t18.5 14.5t21 5.5q14 0 25 -7.5t11 -19.5q0 -9 -8 -22z
" />
    <glyph glyph-name="t" unicode="t" horiz-adv-x="302" 
d="M305 470q-20 -4 -36.5 -6t-29.5 -4t-32 -6.5t-44 -12.5q-1 -16 -8 -54t-21 -100q-26 -124 -26 -165q0 -57 22.5 -86t64.5 -29q30 0 46.5 27t16.5 70q0 17 -12 34.5t-26 17.5q-12 0 -20 -12.5t-8 -28.5q0 -14 13 -14t19 21l6 -4q0 -15 -8.5 -25t-18.5 -10
q-16 0 -30.5 10.5t-14.5 26.5q0 21 18.5 37.5t39.5 16.5q28 0 53 -19q27 -18 27 -39q0 -45 -29 -86q-29 -39 -65 -39q-57 0 -90.5 35.5t-33.5 93.5q0 14 3 53l8 102q6 63 9 99.5t2 47.5l-90 -26v27l90 21q1 7 1 15v19q0 29 -2 57t-6 56l84 14q1 -62 -12 -141q31 10 51 15.5
t31 7.5t24 5.5l27 7.5l7 -30v0z" />
    <glyph glyph-name="u" unicode="u" 
d="M478 -3q-28 -8 -51 -17t-40 -17l-11 115q-62 -89 -148 -89q-66 0 -121 52t-55 128q0 30 18 68t41 61q12 12 22 25.5t18 27.5t12.5 26t4.5 21q0 52 -45 52q-19 0 -37 -11t-18 -28q0 -11 9 -19.5t20 -8.5q13 0 16 2.5t3 7.5q0 11 -21 16q10 12 17 12q9 0 16 -8t7 -19
q0 -16 -13.5 -30t-29.5 -14q-15 0 -28 15t-13 31q0 30 22 58q23 29 48 29q28 0 46 -23t18 -56q0 -45 -24 -87q-52 -91 -52 -143q0 -76 36.5 -119.5t97.5 -43.5q75 0 129 101q-18 157 -51 307l-52 -3l2 21q87 1 162 27l5 -20l-50 -14q0 -165 18 -432q37 8 65 22l7 -23v0z" />
    <glyph glyph-name="v" unicode="v" horiz-adv-x="441" 
d="M284 373q-23 0 -23 20q0 9 12 20t23 11q39 0 39 -53q0 -30 -26 -54t-53 -24q-21 0 -40 25t-19 49q0 49 37 86t86 37q34 0 63 -41t29 -100q0 -169 -204 -379q-19 55 -44 113.5t-57 121.5q-31 64 -55.5 105t-41.5 61l-48 -19l-7 23q57 19 88 36q16 8 35.5 20.5t42.5 29.5
l13 -20l-52 -32l43 -104l34 -94l30.5 -89l33.5 -100q73 70 120 159q47 91 47 169q0 21 -7 39.5t-19.5 33t-28.5 22.5t-34 8q-32 0 -53.5 -17t-21.5 -44q0 -25 11 -41t30 -16q21 0 38.5 10t17.5 26q0 10 -9 18t-19 8q-11 0 -11 -24z" />
    <glyph glyph-name="w" unicode="w" horiz-adv-x="668" 
d="M564 459q11 0 11 -20q0 -7 -14 -23q-14 -14 -26 -14q-7 0 -14.5 4.5t-14 11.5t-10.5 15t-4 14q0 36 23 62q22 27 46 27q26 0 45.5 -29.5t19.5 -80.5q0 -55 -17 -118q-8 -30 -28 -69.5t-51 -90.5l-50 -83t-27 -47q-48 115 -79 197.5t-45 134.5l-63.5 -192l-50.5 -158
l-28 -5l-41 119.5l-20 59.5l-14.5 42.5t-25.5 69.5q-32 83 -53 110q-13 -4 -38 -23l-21 -14t-15 -9q-9 10 -12 20q50 24 157 98q22 -62 54 -213q16 -76 28.5 -127t20.5 -79q85 231 104 391l-59 -3l-2 21q38 0 100 6q31 4 54.5 7.5t39.5 8.5l3 -29q-26 -2 -43 -3.5t-25 -2.5
q16 -94 29 -157.5t23 -98.5l19 -57.5t15 -37.5l48 67q18 26 34 55t28.5 60t20 63t7.5 63q0 45 -17.5 72.5t-41.5 27.5q-26 0 -26 -24q0 -12 8.5 -26.5t17.5 -14.5q23 0 20 22z" />
    <glyph glyph-name="x" unicode="x" horiz-adv-x="438" 
d="M369 124q6 -5 6 -11q0 -11 -11.5 -18.5t-22.5 -7.5q-15 0 -24.5 10.5t-9.5 24.5t18 29q19 16 32 16q15 0 28 -6t23 -16.5t16 -23.5t6 -26q0 -28 -30 -53q-29 -24 -61 -24q-25 0 -46 9.5t-40 30.5t-37.5 54.5t-39.5 81.5q-85 -79 -108 -182l67 -9l-4 -21q-55 8 -94 17
t-62 17l2 21q22 -7 37 -11t24 -6q7 23 16.5 44.5t21.5 41.5q24 40 90 105q-70 176 -89 207l-56 -20l-7 20q105 28 125 47q8 -42 23.5 -97.5t38.5 -124.5q79 89 91 178q-10 2 -39 -4l-1 23q5 -1 11 -1h13q73 0 98 19l6 -21q-4 -1 -11.5 -2.5l-15.5 -3t-15 -3.5t-10 -3
q0 -9 -23 -66q-23 -56 -97 -138q40 -117 63 -151q22 -33 66 -33q12 0 23 7t19 17.5t12.5 24t4.5 26.5q0 41 -26 41q-31 0 -31 -29q0 -16 11 -16q9 0 19 16z" />
    <glyph glyph-name="y" unicode="y" horiz-adv-x="395" 
d="M298 448q3 -5 3 -9q0 -8 -8.5 -16t-15.5 -8q-15 0 -27 15.5t-12 29.5q0 22 19 44t38 22q26 0 49 -23t23 -49q0 -28 -13 -66q-12 -40 -61 -136q-50 -96 -72 -150q-11 -27 -19.5 -54t-15.5 -55q-27 -112 -67 -134t-63 -22q-38 0 -61.5 17.5t-23.5 41.5q0 25 26.5 43.5
t60.5 18.5q15 0 26.5 -10.5t11.5 -25.5q0 -13 -16 -24t-31 -11q-12 0 -12 10q6 0 15 8.5t9 20.5q0 18 -13 18q-20 0 -32.5 -9.5t-12.5 -26.5q0 -22 17.5 -40t40.5 -18q26 0 51 40q27 41 39 82l17 50l24 67q-89 251 -172 353q-11 -3 -28.5 -8.5t-40.5 -13.5l-5 19
q49 10 131 50q27 -34 49.5 -90t42.5 -128l41 -144l76 153q32 64 42.5 100t10.5 60q0 23 -15 37.5t-39 14.5q-11 0 -18.5 -6t-7.5 -15q0 -29 16 -29q9 0 23 6z" />
    <glyph glyph-name="z" unicode="z" horiz-adv-x="392" 
d="M357 449q-41 -94 -135 -215q-95 -122 -170 -178q29 4 51.5 6t39.5 2q103 0 178 -35q3 20 5 43t3 49l24 -2q-20 -89 -18 -171l-19 1q-1 8 -1 13v7q0 7 1.5 16l3.5 21q-72 28 -139 28q-77 0 -176 -29l-16 28q80 45 168 169t114 222q-106 -26 -140 -26q-39 0 -74 20
q-34 19 -34 53q0 14 7.5 25.5t20.5 19.5t28.5 12.5t32.5 4.5q26 0 46.5 -11t20.5 -30q0 -17 -24 -27q-23 -10 -45 -10q-27 0 -27 23q0 10 21 13q0 -21 23 -21q7 0 13.5 3t6.5 8q0 14 -17.5 24t-34.5 10q-18 0 -34.5 -11.5t-16.5 -27.5q0 -21 23 -32.5t84 -11.5q114 0 195 30
l11 -13v0z" />
    <glyph glyph-name="braceleft" unicode="{" horiz-adv-x="246" 
d="M290 618q-4 -6 -15.5 -16.5t-15.5 -15.5q-31 52 -76 52q-67 0 -67 -68q0 -23 9 -68q5 -22 7.5 -39t2.5 -28q0 -63 -18.5 -99t-53.5 -36q41 -11 41 -88q0 -24 -15 -67q-15 -44 -15 -67q0 -25 18.5 -43t44.5 -18t58 20l8 -14q-11 -18 -30.5 -30.5t-36.5 -12.5q-39 0 -66 49
t-27 99q0 20 15 61q16 39 16 63q0 42 -55 42q-2 0 -7.5 -1.5t-15.5 -3.5q2 10 5.5 20t8.5 21q21 -12 39 -12q22 0 40 18t18 40q0 29 -22 77t-22 78q0 51 34 89q34 40 81 40q13 0 28.5 -3t31 -9t29.5 -13.5t23 -16.5z" />
    <glyph glyph-name="bar" unicode="|" horiz-adv-x="152" 
d="M50 -160q5 150 7.5 270.5t2.5 214.5q0 73 -2.5 181t-7.5 254l50 4q-4 -205 -6 -369t-2 -291q0 -56 2 -116.5t6 -127.5z" />
    <glyph glyph-name="braceright" unicode="}" horiz-adv-x="246" 
d="M240 264q-6 1 -11 1h-9q-63 0 -63 -60q0 -23 17 -72t17 -73q0 -39 -33 -75t-70 -36q-25 0 -69 19l11 32q29 -29 66 -29q29 0 48.5 18.5t19.5 47.5q0 23 -24 65q-24 43 -24 71q0 73 56 109q-26 3 -40 28t-14 59q0 30 16 84q17 57 17 85q0 34 -17.5 55.5t-48.5 21.5
q-26 0 -53 -42q-5 10 -21 26q40 27 92 27q92 0 92 -111q0 -44 -32 -105q-24 -45 -24 -71q0 -19 15.5 -30t37.5 -11q15 0 45 12q3 -18 3 -29v-17v0z" />
    <glyph glyph-name="asciitilde" unicode="~" horiz-adv-x="617" 
d="M568 304q-9 -74 -58 -117t-95 -43q-36 0 -70 23.5t-55 63.5t-44 56.5t-52 16.5t-63 -48q-33 -48 -33 -97l-64 7q17 60 67 110q51 52 98 52q94 0 138 -89q9 -18 17 -31t18 -21.5t23 -12.5t31 -4t33 10.5t25.5 29.5t16.5 44.5t6 55.5l61 -6v0z" />
    <glyph glyph-name="exclamdown" unicode="&#xa1;" horiz-adv-x="218" 
d="M131 -92q-75 -11 -99 -15q59 266 64 483q20 -7 29 -8q-2 -49 -3.5 -118t-1.5 -159q0 -39 3 -84.5t8 -98.5zM157 518q26 -6 26 -46q0 -11 -7 -20.5t-17.5 -16.5t-24 -11t-25.5 -4q-76 0 -76 82q0 27 18.5 42.5t45.5 15.5q17 0 29.5 -20t12.5 -42q0 -13 -6.5 -21.5
t-16.5 -8.5q-14 0 -22.5 12t-8.5 29q0 -3 9.5 -9t17.5 -6q5 0 9 4.5t4 10.5q0 17 -28 17q-36 0 -36 -34q0 -10 5.5 -19.5t14.5 -17t20 -12t22 -4.5q16 0 28 17.5t12 38.5q0 12 -6 23z" />
    <glyph glyph-name="cent" unicode="&#xa2;" horiz-adv-x="411" 
d="M380 96q-74 -110 -159 -114q0 -101 14 -177q-24 -2 -40 -6q0 62 6 184q-86 8 -137 81t-51 168q0 79 63 156q65 78 151 84q9 142 9 198q3 0 44 -6q-30 -144 -36 -192q30 -2 52.5 -10t38 -20.5t23 -27t7.5 -29.5q0 -26 -25 -54q-24 -28 -50 -28q-42 0 -65.5 18t-23.5 42
q0 16 17.5 29.5t40.5 13.5q8 0 18.5 -6t10.5 -13q0 -10 -7.5 -18.5t-20.5 -9.5q0 32 -12 32q-9 0 -15 -8.5t-6 -20.5t15 -30q15 -17 28 -17q26 0 40.5 19t14.5 45q0 28 -24 50.5t-63 22.5q-71 0 -118 -53q-46 -52 -46 -135q0 -59 9 -107t26.5 -82t43.5 -53t60 -19
q91 0 141 113l26 -20v0z" />
    <glyph glyph-name="sterling" unicode="&#xa3;" horiz-adv-x="533" 
d="M460 65q-29 92 -29 134q0 27 18 46t39 19q16 0 29 -12.5t13 -31.5q0 -12 -8.5 -22.5t-18.5 -10.5q-11 0 -18 15q16 9 16 21t-17 12q-12 0 -19.5 -12.5t-7.5 -28.5q0 -52 19 -119q10 -35 16 -58.5t9 -37.5q-213 36 -373 36q-29 0 -60 -1.5t-65 -3.5l7 27q170 24 170 185
q0 13 -4 33q-35 -2 -63 -3t-50 -2l3 27l106 -7q-5 17 -26 52q-28 -3 -48.5 -5t-34.5 -3l2 29q10 0 27 -0.5t43 -1.5q-47 73 -47 125q0 56 44 109q45 52 101 52q44 0 79 -29t35 -71q0 -33 -24 -64q-22 -31 -53 -31q-18 0 -33 17t-15 35q0 15 11.5 28.5t25.5 13.5
q10 0 18.5 -6.5t8.5 -15.5q0 -7 -3.5 -16.5t-8.5 -9.5q-3 0 -9 9.5t-10 9.5q-6 0 -10 -8.5t-4 -16.5q0 -26 30 -26q16 0 29.5 16.5t13.5 32.5q0 32 -21 73q-20 41 -47 41q-43 0 -74 -46q-31 -44 -31 -94q0 -63 27 -127q96 11 179 31l2 -34q-26 -1 -69 -4t-104 -10
q14 -37 20 -55q46 2 83 6.5t66 9.5l9 -36q-25 5 -142 5h-11q18 -53 18 -72q0 -46 -56 -90t-79 -51h34q88 0 173 6t169 17z" />
    <glyph glyph-name="fraction" unicode="&#x2215;" horiz-adv-x="420" 
d="M471 481q-29 -23 -79 -75.5t-122 -135.5q-143 -164 -261 -333q-5 2 -14.5 8l-22.5 14q14 10 36 37t48 54q14 14 31 35l39 49l141 184l153 201q2 -7 51 -38z" />
    <glyph glyph-name="yen" unicode="&#xa5;" horiz-adv-x="623" 
d="M647 602q-1 -4 -2 -10.5t-2 -16.5q-10 2 -30.5 6.5t-52.5 9.5q-48 -63 -101.5 -123.5t-116.5 -118.5l-6 -47l232 -3l-4 -30l-230 14l-3.5 -44.5t-1.5 -31.5q40 1 90.5 2.5t113.5 4.5l-7 -34q-60 5 -199 6q-6 -147 -6 -160q16 -1 37 -1.5t47 -0.5t47 0.5t37 1.5v-31
q-97 8 -156 12t-82 4q-42 0 -74 -7l4 29q29 0 119 -3l-8 154q-88 -5 -139.5 -7.5t-65.5 -2.5q2 8 -6 35q32 -2 54 -3t35 -1h72q31 0 50 1l-6 80l-214 12l7 27q109 -14 207 -21l-6 43q-22 42 -39.5 79.5t-31.5 72.5q-29 70 -57 99q-29 29 -61 29q-18 0 -37 -15
q-20 -14 -20 -29q0 -24 9.5 -43.5t24.5 -19.5t28.5 6.5t13.5 17.5q0 15 -20 15q-9 0 -18 -11q-10 4 -10 18q0 9 10 15.5t20 6.5q6 0 12.5 -3.5t12 -8.5t9.5 -10.5t4 -10.5q0 -14 -21 -33q-21 -18 -40 -18q-25 0 -47 31t-22 59q0 26 31 48q32 23 60 23q42 0 74 -15t50 -48
q10 -16 20.5 -48t23.5 -80q25 -94 50 -128q71 67 201 251q-20 0 -93 18q2 6 4.5 12l4.5 11q107 -30 221 -36z" />
    <glyph glyph-name="florin" unicode="&#x192;" horiz-adv-x="430" 
d="M196 481q5 37 22 69t38 56t43.5 37.5t39.5 13.5q16 0 31.5 -6t27 -15.5t18.5 -22.5t7 -28q0 -25 -20 -51q-19 -25 -45 -25q-25 0 -39.5 14.5t-14.5 39.5q0 14 9 22.5t16 8.5q19 0 22 -30l-29 4q-2 -6 -2 -12q0 -14 6 -24t14 -10q9 0 17 5.5t14 14t10 18.5t4 19
q0 65 -46 65q-20 0 -38.5 -23t-29.5 -60q-11 -36 -36 -168q34 1 58 2t38 3l-4 -28q-16 2 -30 3t-28 1h-16t-22 1l-34.5 -184t-23.5 -114q-18 -78 -54 -138q-34 -61 -71 -61q-22 0 -37 17.5t-15 45.5q0 27 17.5 45.5t43.5 18.5q9 0 18 -8.5t9 -19.5q0 -8 -5.5 -16t-14.5 -8
q-5 18 -28 18q-25 0 -25 -18q0 -17 15.5 -31.5t33.5 -14.5q40 0 72 105t51 361l-70 -2q5 28 5 33q19 -4 67 -9z" />
    <glyph glyph-name="section" unicode="&#xa7;" horiz-adv-x="335" 
d="M173 204q10 -1 16.5 -1.5t11.5 -0.5q21 0 43 25q24 25 24 55q0 27 -21 57q-11 16 -40.5 42.5t-78.5 64.5q-23 -8 -35.5 -35t-12.5 -53q0 -41 14 -63l27.5 -33zM112 460q-52 52 -52 122q0 46 38 87q37 40 93 40q21 0 40.5 -5.5t34.5 -15t24 -24t9 -32.5q0 -15 -6 -29.5
t-16.5 -25.5t-23.5 -18t-28 -7q-12 0 -21.5 6.5t-16.5 16.5t-11 21.5t-4 22.5q0 12 8.5 22t18.5 10q12 0 22 -8q-22 -22 -22 -41q0 -26 47 -26q9 0 17 11t8 21q0 26 -26 55t-56 29q-31 0 -52 -23.5t-21 -51.5q0 -96 87 -162q39 -29 65.5 -68t26.5 -84q0 -16 -5.5 -34
t-17 -35t-28.5 -32t-41 -26q53 -47 53 -136q0 -40 -30 -65q-29 -26 -52 -37q-21 -10 -55 -10q-31 0 -53 31q-22 29 -22 64q0 25 18 45t39 20q29 0 29 -49q-22 16 -36 16q-13 0 -22.5 -8t-9.5 -23q0 -17 28 -41t71 -24q21 0 45 24t24 53q0 34 -31.5 76t-97.5 93
q-65 53 -65 122q0 48 76 133z" />
    <glyph glyph-name="currency" unicode="&#xa4;" horiz-adv-x="400" 
d="M309 226q0 44 -33 76q-32 33 -77 33q-44 0 -78 -32q-33 -32 -33 -78t32 -78q34 -32 78 -32q23 0 43 9t35 24t24 35t9 43zM4 392l25 25l74 -76q41 34 95 34q50 0 91 -30l74 73l25 -25l-73 -73q33 -42 33 -95q0 -52 -32 -93l76 -79l-25 -24l-73 80q-43 -34 -96 -34
q-52 0 -95 34l-76 -76l-25 25l76 78q-30 37 -30 89q0 51 31 91z" />
    <glyph glyph-name="quotesingle" unicode="'" horiz-adv-x="120" 
d="M99 657q-15 -72 -22.5 -123t-8.5 -81q-4 0 -10.5 0.5t-15.5 1.5v80q0 49 -1 115q23 2 37 4z" />
    <glyph glyph-name="quotedblleft" unicode="&#x201c;" horiz-adv-x="268" 
d="M192 525q10 15 26 15q11 0 18.5 -11t7.5 -22q0 -12 -16 -23t-31 -11q-8 0 -15.5 5.5t-14 14.5t-10.5 20t-4 22q0 51 63 101q0 -11 9 -20q-44 -17 -44 -63q0 -26 11 -28zM65 520q10 15 26 15q11 0 18.5 -9t7.5 -19q0 -39 -47 -39q-15 0 -28.5 18.5t-13.5 39.5q0 62 72 121
q0 -11 9 -20q-57 -24 -57 -76q0 -27 13 -31z" />
    <glyph glyph-name="guillemotleft" unicode="&#xab;" horiz-adv-x="327" 
d="M315 187q-8 -13 -15.5 -22.5l-12.5 -15.5q-5 8 -19.5 22t-39.5 33t-40 32.5t-22 21.5q76 81 106 126q11 -8 21 -14.5t21 -11.5l-118 -90q63 -58 119 -81zM168 183q-25 -12 -38 -23q-103 76 -122 102q28 16 63 60q17 22 30.5 42t21.5 38q8 -11 17.5 -20.5t20.5 -18.5
q-20 -13 -51 -38t-74 -63q16 -13 64 -37q49 -23 68 -42z" />
    <glyph glyph-name="guilsinglleft" unicode="&#x2039;" horiz-adv-x="183" 
d="M168 183q-25 -12 -38 -23q-103 76 -122 102q28 16 63 60q17 22 30.5 42t21.5 38q8 -11 17.5 -20.5t20.5 -18.5q-20 -13 -51 -38t-74 -63q16 -13 64 -37q49 -23 68 -42z" />
    <glyph glyph-name="guilsinglright" unicode="&#x203a;" horiz-adv-x="170" 
d="M161 259q-76 -82 -106 -126q-11 8 -21.5 14.5t-20.5 11.5l118 90q-63 58 -119 81q8 13 15.5 22t12.5 16q11 -17 59 -55q25 -19 40 -32.5t22 -21.5z" />
    <glyph glyph-name="fi" unicode="&#xf001;" horiz-adv-x="575" 
d="M560 -3q-63 -2 -110 -8t-78 -14l-2 29l63 5q-5 103 -16 202.5t-27 198.5h-54l-1 17q102 1 162 26l1 -22l-44 -13q-1 -32 -1 -83v-121v-119q0 -49 1 -81q63 4 104 12l2 -29v0zM424 585q18 -3 18 -14t-9 -24.5t-19 -13.5q-12 0 -28 16t-16 28q0 25 19 42t42 17
q27 0 45.5 -21.5t18.5 -50.5q0 -33 -23.5 -57t-59.5 -24q-31 0 -59 24.5t-49 72.5q-20 47 -38.5 63t-43.5 16q-35 0 -53 -34.5t-18 -91.5q0 -22 1.5 -56t5.5 -80t6 -80.5t1 -57.5q84 0 140 14l-1 -28q-20 -2 -54.5 -4t-83.5 -4q0 -35 -3 -92.5t-10 -136.5q31 3 52.5 6
t35.5 7l2 -28l-174 -10l2 28l58 -2q6 117 6 151q0 19 -0.5 37.5t-1.5 37.5l-87 -7l1 26l85 3q0 35 -20 123t-20 125q0 73 37 122t98 49t91 -84q14 -40 38 -61.5t51 -21.5q11 0 23 5t22 13t16.5 18t6.5 21q0 18 -19 30.5t-42 12.5q-13 0 -22 -7t-9 -18q0 -20 25 -20
q10 0 16 21z" />
    <glyph glyph-name="fl" unicode="&#xf002;" horiz-adv-x="577" 
d="M104 301q-2 15 -9.5 45.5t-21.5 77.5q-26 96 -26 135q0 65 48 110q49 46 107 46q48 0 77 -26.5t29 -74.5q0 -25 -25 -47q-23 -22 -55 -22q-56 0 -56 49q0 12 14.5 23.5t26.5 11.5t22 -7t10 -17q0 -3 -4.5 -9.5t-10.5 -7.5q-2 29 -15 29q-5 0 -10.5 -7.5t-5.5 -19.5
q0 -14 9 -24t23 -10q18 0 30 17.5t12 40.5q0 38 -20.5 64.5t-52.5 26.5q-34 0 -63 -38q-28 -37 -28 -92q0 -46 12 -143q14 -96 15 -127q38 2 74 8.5t71 17.5l1 -28q-35 -6 -70.5 -11t-72.5 -9q12 -155 12 -273q50 6 87 19l3 -29q-43 -7 -85 -10.5t-87 -11.5v29l58 2
q0 147 -21 270l-81 -11v26l79 7v0zM476 95q-8 -33 -27 -33q-33 0 -33 34q0 25 20.5 43.5t46.5 18.5q22 0 38.5 -20t16.5 -45q0 -49 -49 -82q-50 -33 -97 -33q-9 0 -19 4.5t-19 12t-14.5 17t-5.5 20.5q0 30 4.5 71t14.5 93q19 103 27 205q4 51 6 126.5t2 175.5l-60 -2l1 17
q91 0 181 26v-17l-41 -13q-16 -131 -27.5 -215.5t-18.5 -124.5t-18 -87t-26 -102q-29 -111 -29 -148q0 -18 14 -31.5t33 -13.5q21 0 40 6.5t34 19t23.5 29.5t8.5 38q0 16 -9.5 28.5t-24.5 12.5q-39 0 -39 -31q0 -11 14 -11q16 0 26 13l6 -2v0z" />
    <glyph glyph-name="endash" unicode="&#x2013;" horiz-adv-x="483" 
d="M453 292q-10 -24 -11 -49q-82 9 -184.5 14.5t-227.5 7.5q1 8 1 14v11q0 11 -1 14q97 -8 177.5 -12t145.5 -4q22 0 46.5 1t53.5 3z" />
    <glyph glyph-name="dagger" unicode="&#x2020;" horiz-adv-x="330" 
d="M312 431q-53 7 -86 10t-47 3q-3 -18 -3 -27q0 -32 10.5 -62.5t10.5 -61.5q0 -11 -12 -114q-12 -104 -12 -173l-40 2q5 20 9 44.5t7 54.5q6 60 6 90q0 23 -11 65q-10 39 -10 64q0 11 3.5 25l7.5 29.5t7.5 32t3.5 32.5q-41 -4 -73 -7.5t-55 -6.5l-3 59q16 -5 34.5 -9
t40.5 -8t36.5 -5.5t22.5 -1.5q0 11 -4.5 43.5l-12.5 89.5l61 9q-10 -57 -15 -92.5t-5 -49.5q14 0 46.5 4.5l86.5 12.5z" />
    <glyph glyph-name="daggerdbl" unicode="&#x2021;" horiz-adv-x="330" 
d="M314 181q-49 4 -82.5 5.5t-52.5 1.5l10 -214l-63 7q12 65 27 209q-23 0 -117 -12q1 5 1 18v33q90 -10 118 -15l6 211q-22 0 -131 -9q1 5 1 27q0 20 1 23q89 -19 128 -19q0 16 -3.5 56.5t-10.5 106.5q13 0 57 9q-10 -69 -14.5 -112t-4.5 -60q29 0 118 21l-5 -52
q-86 9 -117 9q-3 -47 -3 -212q39 3 135 18q1 -8 1.5 -20.5t0.5 -29.5z" />
    <glyph glyph-name="paragraph" unicode="&#xb6;" horiz-adv-x="452" 
d="M385 676l-40 -4q-2 -51 -3 -129t-1 -187q0 -66 5 -149.5t15 -186.5l-64 -36q4 31 6 86.5t2 136.5q0 251 -12 457l-57 -4q-4 -179 -5.5 -306t-1.5 -206q0 -56 2 -100t6 -76l-50 -20q5 73 7.5 155.5t2.5 176.5q0 57 -12 108q-38 -19 -87 -19q-51 0 -76 27q-26 29 -26 132
q0 5 0.5 9.5t1.5 9.5q2 12 6 22q4 11 12 26q4 7 9 13l10 12q5 7 11.5 12.5t13.5 10.5l16 10t17 9q18 8 42 13l52 5l202 28z" />
    <glyph glyph-name="bullet" unicode="&#x2022;" horiz-adv-x="236" 
d="M122 370q56 0 56 -69q0 -26 -19.5 -45t-45.5 -19q-16 0 -35 21q-19 20 -19 34q0 33 18 55.5t45 22.5z" />
    <glyph glyph-name="quotesinglbase" unicode="&#x201a;" horiz-adv-x="145" 
d="M75 31q-11 -15 -26 -15q-11 0 -18.5 11.5t-7.5 21.5q0 12 16 23t31 11q7 0 15 -6t14.5 -15t10.5 -20t4 -21q0 -52 -63 -101q0 11 -9 20q47 18 47 61q0 25 -14 30z" />
    <glyph glyph-name="quotedblbase" unicode="&#x201e;" horiz-adv-x="268" 
d="M80 31q-11 -15 -26 -15q-11 0 -18.5 11.5t-7.5 21.5q0 12 16 23t31 11q7 0 15 -6t14.5 -15t10.5 -20t4 -21q0 -52 -63 -101q0 11 -9 20q47 18 47 61q0 25 -14 30zM205 40q-11 -15 -26 -15q-11 0 -18.5 9t-7.5 19q0 39 47 39q15 0 28.5 -18.5t13.5 -39.5q0 -63 -72 -121
q0 11 -9 20q57 24 57 76q0 27 -13 31z" />
    <glyph glyph-name="quotedblright" unicode="&#x201d;" horiz-adv-x="268" 
d="M209 544q-11 -15 -26 -15q-11 0 -18.5 9t-7.5 19q0 39 47 39q15 0 28.5 -18.5t13.5 -39.5q0 -63 -72 -121q0 11 -9 20q57 24 57 76q0 27 -13 31zM80 548q-11 -15 -26 -15q-11 0 -18.5 11t-7.5 22q0 12 16 23t31 11q7 0 15 -6t14.5 -15t10.5 -20t4 -21q0 -52 -63 -101
q0 11 -9 20q47 18 47 61q0 25 -14 30z" />
    <glyph glyph-name="guillemotright" unicode="&#xbb;" horiz-adv-x="327" 
d="M320 246q-27 -16 -63 -61q-17 -22 -30.5 -41.5t-21.5 -37.5q-8 11 -17.5 20.5t-20.5 18.5q20 12 51 37.5l74 63.5q-17 14 -64 36q-50 25 -68 43q25 12 38 23q103 -77 122 -102zM162 250q-82 -89 -106 -127q-14 10 -42 27l118 90q-32 29 -62 49t-57 31q20 31 28 39
q5 -8 19.5 -22t39.5 -34q25 -19 40 -32t22 -21z" />
    <glyph glyph-name="ellipsis" unicode="&#x2026;" horiz-adv-x="601" 
d="M304 58q15 0 26 -10t11 -25q0 -16 -12.5 -26.5t-29.5 -10.5q-12 0 -21.5 12t-9.5 25q0 16 10 25.5t26 9.5zM96 64q19 0 32.5 -14t13.5 -33q0 -11 -11 -18t-24 -7q-36 0 -36 34q0 15 6.5 26.5t18.5 11.5zM498 67q31 0 31 -41q0 -29 -29 -29q-18 0 -30 10.5t-12 26.5
q0 12 14 22.5t26 10.5z" />
    <glyph glyph-name="perthousand" unicode="&#x2030;" horiz-adv-x="788" 
d="M366 92q-37 4 -37 26q0 29 22.5 49.5t51.5 20.5q22 0 46 -25q24 -24 24 -64q0 -46 -38 -78q-38 -30 -88 -30q-46 0 -81 35t-35 80q0 42 38 82q39 39 82 39q36 0 60 -12l-8 -11q-20 10 -35 10q-17 0 -32 -8.5t-27 -22.5t-19 -34t-7 -42q0 -51 18 -77t48 -26q28 0 54 26
q27 27 27 57q0 40 -11 62t-29 22q-28 0 -28 -46q0 -18 4 -33zM654 100q-37 4 -37 26q0 29 22.5 49.5t51.5 20.5q22 0 46 -25q24 -24 24 -64q0 -46 -38 -78q-38 -30 -88 -30q-46 0 -81 35t-35 80q0 44 38 82q39 39 82 39q36 0 60 -12l-8 -11q-20 10 -35 10q-17 0 -32 -8
t-27 -22.5t-19 -34t-7 -42.5q0 -51 18 -77t48 -26q28 0 54 26q27 27 27 57q0 40 -11 62t-29 22q-28 0 -28 -46q0 -18 4 -33zM189 529q21 0 21 -36q0 -13 -11 -25t-25 -12q-15 0 -27 13t-12 31q0 26 20 52q21 26 45 26q31 0 57 -29q27 -29 27 -53q0 -45 -37 -91
q-36 -47 -77 -47q-27 0 -51 7.5t-41.5 20t-28 30.5t-10.5 39q0 49 27 85t75 48l5 -9q-32 -16 -48 -43.5t-16 -57.5q0 -107 84 -107q30 0 50 38q20 40 20 80q0 27 -11 51t-29 24q-7 0 -14 -5t-12.5 -13t-9 -18t-3.5 -19t4 -23t8 -14q14 0 17 13t3 44zM528 639
q-36 -36 -124 -154l-84 -114l-74 -105l-70 -106.5l-72 -118.5l-42 -70q-8 2 -18 7t-21 12q23 23 45.5 50.5t42.5 61.5l144 223l106.5 164l112.5 183q4 -7 27 -19q11 -5 18 -8.5t9 -5.5z" />
    <glyph glyph-name="questiondown" unicode="&#xbf;" horiz-adv-x="415" 
d="M279 79q19 2 31 -10.5t12 -31.5q0 -21 -21.5 -34t-48.5 -13q-17 0 -35 22t-18 48q0 28 30 48q32 20 67 20t64 -27q29 -26 29 -60q0 -57 -50 -96t-132 -39q-66 0 -121 52q-54 51 -54 115t48 121t110 57l23 -6q1 45 -0.5 88t-6.5 85l48 8q-4 -32 -5.5 -50.5t-1.5 -23.5
q0 -16 -1 -35t-3 -41t-3 -40.5t-1 -34.5q-45 20 -74 20q-30 0 -53 -26q-22 -25 -22 -105q0 -81 39 -127t100 -46q47 0 84 40q39 40 39 83q0 26 -20 52t-41 26q-20 0 -38 -25q-17 -26 -17 -42q0 -46 33 -46q18 0 18 40q0 8 -4 13.5t-4 20.5zM234 563q16 0 16 -27
q0 -20 -7.5 -35t-18.5 -15q-10 0 -18.5 8.5t-8.5 29.5q0 15 11 27t26 12z" />
    <glyph glyph-name="grave" unicode="`" horiz-adv-x="212" 
d="M195 521q-9 -13 -10 -17q-5 1 -47 26q-39 23 -67 33l-27.5 11t-31.5 14q3 1 11 19q8 20 9 22q97 -77 163 -108z" />
    <glyph glyph-name="acute" unicode="&#xb4;" horiz-adv-x="212" 
d="M196 588q-17 -8 -31.5 -14l-27.5 -11t-28.5 -12.5t-34.5 -18.5q-18 -11 -30.5 -17.5l-20.5 -10.5q-1 4 -10 17q66 31 163 108q1 -2 9 -22q8 -18 11 -19z" />
    <glyph glyph-name="circumflex" unicode="&#x2c6;" horiz-adv-x="229" 
d="M205 540q-28 -16 -44 -22q-10 19 -23.5 41t-31.5 47q-47 -77 -54 -93q-32 15 -43 24l16.5 16l29.5 27q37 31 54 54q16 -26 96 -94z" />
    <glyph glyph-name="tilde" unicode="&#x2dc;" horiz-adv-x="277" 
d="M279 607q-42 -73 -68 -90q-26 -15 -51 -15q-14 0 -25.5 7.5t-29.5 39.5q-17 33 -36 33q-21 0 -27 -66q-23 11 -35 8q19 47 39 62t50 15q19 0 43 -37q23 -32 44 -32q11 0 24.5 6.5t16.5 14.5q2 5 4.5 20.5t6.5 42.5q18 0 44 -9z" />
    <glyph glyph-name="breve" unicode="&#x2d8;" horiz-adv-x="222" 
d="M200 586q-32 -96 -75 -96q-40 0 -62 14t-38 78q23 4 42 17q1 -97 39 -97q24 0 35 9t13 38q2 14 2.5 24t1.5 15h24q8 0 18 -2z" />
    <glyph glyph-name="dotaccent" unicode="&#x2d9;" horiz-adv-x="144" 
d="M87 599q7 0 13.5 -12t6.5 -19q0 -11 -10 -20.5t-22 -9.5q-11 0 -20.5 9t-9.5 19q0 12 14 22.5t28 10.5z" />
    <glyph glyph-name="dieresis" unicode="&#xa8;" horiz-adv-x="260" 
d="M61 594q10 0 18.5 -11.5t8.5 -23.5q0 -25 -38 -25q-10 0 -22 11.5t-12 21.5q0 13 13 20t32 7zM209 601q32 0 32 -19q0 -23 -8 -32t-24 -9q-24 0 -24 35q0 14 5 19.5t19 5.5z" />
    <glyph glyph-name="ring" unicode="&#x2da;" horiz-adv-x="203" 
d="M98 516q24 0 40.5 12.5t16.5 32.5q0 75 -42 75q-25 0 -47 -24q-21 -23 -21 -43q0 -26 14.5 -39.5t38.5 -13.5zM96 661q31 0 61 -24t30 -56q0 -39 -28 -71q-27 -33 -52 -33q-28 0 -58 30q-29 32 -29 62q0 40 21.5 66t54.5 26z" />
    <glyph glyph-name="cedilla" unicode="&#xb8;" horiz-adv-x="159" 
d="M67 -42q28 1 56 -15q29 -17 29 -42q0 -19 -27 -35q-26 -18 -49 -18q-6 0 -14.5 2t-16.5 5t-14 5.5t-8 2.5q6 11 9 23q20 -20 45 -20q34 0 34 31q0 20 -18 35.5t-46 14.5q7 17 11 32t5 29h28q-6 -9 -12.5 -25.5t-11.5 -24.5z" />
    <glyph glyph-name="hungarumlaut" unicode="&#x2dd;" horiz-adv-x="260" 
d="M115 485q26 46 55 75.5t49 29.5q21 0 21 -13q0 -12 -23 -25t-53 -36q-30 -24 -37 -42q-1 3 -12 11zM22 504q5 3 18.5 16t33.5 36q41 47 63 47q16 0 16 -19q0 -5 -2.5 -9t-9 -9.5t-19.5 -13.5l-34 -20q-21 -11 -35.5 -21.5t-22.5 -18.5q-5 9 -8 12z" />
    <glyph glyph-name="ogonek" unicode="&#x2db;" horiz-adv-x="177" 
d="M144 -125q-12 -26 -32.5 -43.5t-37.5 -17.5q-21 0 -38 14.5t-17 31.5q0 30 9 45q8 14 48 52q39 37 39 54l20 -5q-6 -23 -19 -42.5t-42 -39.5t-29 -32q0 -19 13 -32.5t23 -13.5q30 0 52 34l11 -5v0z" />
    <glyph glyph-name="caron" unicode="&#x2c7;" horiz-adv-x="225" 
d="M198 575q-12 -17 -46 -52q-17 -18 -28.5 -31.5t-17.5 -21.5q-18 30 -50 62l-26 26.5t-14 15.5l26 17q22 -16 39 -50q9 -17 15.5 -28t11.5 -18q14 15 24 30.5t17.5 29t11.5 24t6 14.5q1 -1 5.5 -3t10 -4t10 -5t5.5 -6z" />
    <glyph glyph-name="emdash" unicode="&#x2014;" horiz-adv-x="718" 
d="M683 249q-121 5 -204 7.5t-128 2.5q-34 0 -75 -1.5l-91 -3.5q-99 -5 -141 -6q1 8 1 15v14q0 13 -1 16q163 -6 337 -6q91 0 167 1.5t137 5.5z" />
    <glyph glyph-name="AE" unicode="&#xc6;" horiz-adv-x="879" 
d="M487 652q-84 3 -138 -56t-69 -245q-2 -17 -3 -28.5t-2 -18.5q20 -2 45.5 -3.5t54.5 -1.5q44 0 88 3q-1 16 -1.5 32t-0.5 32q0 138 26 286zM768 142q21 -8 21 -19q0 -18 -10 -31t-26 -13q-17 0 -28 15.5t-11 33.5q0 24 25 50q25 28 48 28q42 0 66 -19t24 -54
q0 -33 -38 -85q-38 -51 -112 -51q-38 0 -114 12q-38 7 -66 10t-47 3q-16 0 -35 -1.5t-41 -5.5l1 26l62 1q-11 64 -17 122.5t-8 113.5q-22 -1 -38.5 -1.5t-27.5 -0.5q-74 0 -125 9q-26 -139 -75 -211.5t-118 -72.5q-34 0 -60 32t-26 68q0 28 23 63q24 34 51 34q7 0 14.5 -4.5
t14 -11t10.5 -14.5t4 -15q0 -9 -3 -18.5t-7.5 -17.5t-11 -13t-13.5 -5q-3 0 -7 3q14 11 14 27q0 10 -7.5 20t-16.5 10q-46 0 -46 -41q0 -37 20.5 -55t69.5 -18q116 0 124 251q-164 38 -164 112q0 20 15.5 38.5t35.5 18.5h5q-19 -22 -19 -48q0 -17 9.5 -33t26.5 -30t40 -24.5
t50 -16.5q-3 37 -3 75q-1 67 16.5 115t48 80.5t71 51.5t86.5 28q31 5 74 9.5t100 6.5q114 5 160 15q-10 -43 -15 -83t-4 -77l-24 1l7 110l-186 3q-17 -94 -27 -178t-13 -161q133 15 210 39v-39q-115 -22 -212 -27v-117q0 -36 1.5 -66t3.5 -55l40.5 -2.5t59.5 -5.5
q70 -6 114 -6q104 0 104 75q0 30 -19.5 51.5t-48.5 21.5q-13 0 -23 -14t-10 -27q0 -11 8.5 -19.5t19.5 -8.5q10 0 10 10q0 12 -9 17l4 6v0z" />
    <glyph glyph-name="ordfeminine" unicode="&#xaa;" horiz-adv-x="354" 
d="M309 629q-31 -120 -31 -220q0 -17 1 -33.5t3 -32.5q-11 0 -18 -0.5t-12 -1.5l-3 119q-1 89 -25 117q-22 28 -72 28q-32 0 -52 -23q-18 -23 -18 -103q0 -23 5.5 -42.5t14 -34t18.5 -23t19 -8.5q26 0 40 15t14 42q0 48 -29 48q-9 0 -9 -10q0 -4 2.5 -14.5t1.5 -13.5
q-28 0 -28 24q0 12 12.5 20t27.5 8q26 0 42 -18t16 -47q0 -22 -28 -46q-28 -23 -57 -23q-45 0 -77 38q-31 38 -31 89q0 45 42 96q43 52 85 52q65 0 93 -85q-1 31 -4 53.5t-4 38.5q49 -1 61 -9z" />
    <glyph glyph-name="Lslash" unicode="&#x141;" horiz-adv-x="481" 
d="M400 139q6 7 13 7t12 -9t5 -23q0 -6 -4 -14t-10 -15t-13.5 -11.5t-14.5 -4.5q-23 0 -38 18t-15 50q0 25 17.5 44.5t36.5 19.5q34 0 62 -37q29 -38 29 -82q0 -90 -97 -90q-40 0 -116 15q-74 16 -116 16q-19 0 -43 -1.5t-55 -5.5l2 23l85 4q2 20 3.5 69t1.5 129
q0 13 -0.5 28.5t-1.5 34.5l-97 -69q-14 22 -21 26l56 32l60 36q-2 155 -24 296q-29 0 -81 -3l2 23q32 -1 61.5 -1.5t58.5 -0.5q46 0 105 9v-25h-74q3 -59 3 -160q0 -8 -0.5 -34.5t-1.5 -71.5q45 29 80.5 55.5t63.5 51.5q5 -8 11.5 -19.5l14.5 -25.5q-29 -10 -71 -32t-99 -57
q-13 -184 -30 -292l201 -9q20 0 38 5t31.5 13t21.5 19t8 23q0 31 -12.5 51.5t-35.5 20.5q-26 0 -45 -10.5t-19 -30.5q0 -19 9 -23.5t29 -4.5q29 0 29 18q0 8 -15 25z" />
    <glyph glyph-name="Oslash" unicode="&#xd8;" horiz-adv-x="689" 
d="M182 87q73 -79 186 -79q97 0 158 88q63 88 63 213q0 106 -53 183q-152 -163 -196 -217l-61 -73zM566 525q88 -87 88 -193q0 -144 -87 -243q-87 -98 -207 -98q-118 0 -204 65q-53 -63 -90 -114q-3 2 -9.5 4t-16.5 6q-18 5 -25 11q45 33 120 110q-96 88 -96 218
q0 121 74 216q75 95 186 124l6 -15q-88 -16 -143 -103q-54 -86 -54 -209q0 -117 58 -196q107 119 340 418q-58 53 -133 53q-55 0 -95 -35q-38 -35 -38 -75q0 -22 18 -36.5t38 -14.5q25 0 42.5 12t17.5 29q0 14 -10.5 23.5t-22.5 9.5q-28 0 -28 -9q0 -8 31 -23
q-8 -12 -20 -12q-8 0 -16 13t-8 22q0 11 14 24t29 13q16 0 32 -19q17 -20 17 -35q0 -18 -6.5 -34t-17 -28t-24 -19t-26.5 -7q-15 0 -29 7.5t-24.5 20.5t-17 29t-6.5 33q0 47 47 91t117 44q73 0 143 -47l44.5 57.5l54.5 73.5q2 -4 8 -9.5t17 -12.5l17.5 -11t8.5 -6z" />
    <glyph glyph-name="OE" unicode="&#x152;" horiz-adv-x="948" 
d="M833 118q22 -6 22 -18q0 -18 -10 -31.5t-25 -13.5q-17 0 -28.5 15t-11.5 33q0 28 26 54t44 26q43 0 67.5 -18t24.5 -52q0 -14 -5 -29.5t-13.5 -30.5t-19.5 -29t-23 -24q-12 -9 -23 -14.5t-24 -8.5t-29 -4t-37 -1q-19 0 -86 9q-33 4 -60 6t-47 2q-31 0 -81 -10v26l60 4
l-10 112q-21 -56 -78 -95q-56 -39 -119 -39q-134 0 -222 90q-89 91 -89 214q0 118 76 215q77 98 187 125l6 -15q-89 -16 -145 -106q-55 -88 -55 -206q0 -123 71 -212q70 -88 179 -88q79 0 129 62q51 61 51 147q0 77 -22 199q-21 123 -50 183q-21 9 -79 9q-55 0 -100 -46
q-44 -47 -44 -89q0 -22 18 -36.5t38 -14.5q25 0 42.5 12t17.5 29q0 14 -10.5 23.5t-22.5 9.5q-10 0 -18.5 -5t-8.5 -11q0 -9 33 -10q-11 -20 -23 -20q-8 0 -16 14t-8 23q0 11 14 24t29 13q16 0 32 -19q17 -20 17 -35q0 -18 -6.5 -34t-17 -28t-24 -19t-26.5 -7q-15 0 -29 7.5
t-24.5 20.5t-17 29t-6.5 33q0 47 50 100t118 56q60 2 103.5 4.5t71.5 5.5q29 3 62.5 8t73.5 12q77 14 118 24q-8 -46 -11.5 -86t-1.5 -75h-24l3 110l-228 -15q8 -113 12 -189.5t4 -118.5q162 6 246 35v-39q-61 -10 -122 -15.5t-124 -7.5l4 -266l188 -6q91 0 113 22
q23 23 23 54q0 12 -4 25t-13 23.5t-22 17.5t-31 7q-10 0 -21 -12.5t-11 -29.5q0 -12 10 -19.5t19 -7.5q10 0 10 11q0 10 -10 16l4 6v0z" />
    <glyph glyph-name="ordmasculine" unicode="&#xba;" horiz-adv-x="371" 
d="M209 615q-52 -10 -87 -50q-34 -37 -34 -84q0 -50 25 -93t66 -43q51 0 78 35.5t27 92.5q0 36 -18.5 61t-49.5 25q-18 0 -27.5 -17t-9.5 -42q0 -30 19 -30q10 0 14 3.5t4 14.5q0 6 -2 16t-2 15q0 12 6 12q12 0 20.5 -8t8.5 -21q0 -18 -14.5 -32.5t-32.5 -14.5q-19 0 -36 12
t-17 30q0 30 26 56q25 25 57 25q40 0 73 -30t33 -69q0 -63 -50 -107q-23 -21 -44.5 -31.5t-62.5 -10.5q-52 0 -96 44q-43 44 -43 98t49 100q50 49 114 56l6 -13v0z" />
    <glyph glyph-name="ae" unicode="&#xe6;" horiz-adv-x="620" 
d="M142 128q-20 -5 -37.5 -23.5t-17.5 -38.5q0 -18 13 -31t31 -13q41 0 73 42q32 44 32 85zM318 378q61 66 134 66q57 0 101 -43q46 -42 46 -87q0 -52 -44 -91t-102 -39q-27 0 -49.5 6t-38.5 16.5t-25 24t-9 28.5t6 28t15.5 22.5t21 15t22.5 5.5q19 0 36 -13.5t17 -28.5
t-11.5 -29t-21.5 -14q-21 0 -21 12l3.5 2t8 5.5t8.5 8.5t4 11q0 13 -10 23t-21 10q-5 0 -9.5 -5t-8 -13t-6 -17t-2.5 -18q0 -23 28.5 -42.5t72.5 -19.5q31 0 55 31t24 66q0 48 -27 89q-26 41 -70 41q-56 0 -99 -69q-44 -68 -44 -175q0 -87 37 -143q38 -56 97 -56q83 0 83 52
q0 12 -8 27t-17 15q-20 0 -27 -40q-16 6 -16 23q0 13 10 23t31 10q26 0 41 -14.5t15 -35.5q0 -28 -33 -53q-34 -26 -82 -26q-135 0 -183 131q-25 -49 -76 -85q-50 -33 -85 -33q-68 0 -68 66q0 34 32.5 62t89.5 39q10 1 51 12q42 11 46 11q1 16 3 37.5t7 47.5q9 52 9 86
q0 45 -21 74t-53 29q-27 0 -43.5 -6t-34.5 -29q-17 -23 -22 -49t-5 -58q0 -19 11 -32t27 -13q10 0 20 5t18 13.5t13 19t5 21.5q0 12 -11.5 21t-24.5 9q-6 0 -10.5 -6t-4.5 -12q0 -12 10 -12t15 4q-3 -20 -23 -20q-11 0 -17.5 7.5t-6.5 19.5q0 14 12.5 26.5t26.5 12.5
q66 0 66 -38q0 -32 -34 -59q-35 -26 -58 -26q-29 0 -49 16.5t-20 43.5q0 56 53 115t111 59q37 0 68 -25.5t41 -73.5z" />
    <glyph glyph-name="dotlessi" unicode="&#x131;" horiz-adv-x="223" 
d="M223 -11q-57 0 -92 -1t-49 -3t-25.5 -4l-22.5 -4v27l63 2q0 106 -5.5 207t-16.5 198l-54 2v18q25 -1 42 -1h28q34 0 93 18v-22l-44 -11l-10 -157l-12 -248q55 0 105 6v-27v0z" />
    <glyph glyph-name="lslash" unicode="&#x142;" horiz-adv-x="253" 
d="M257 372q-43 -14 -129 -62q-9 -50 -36 -142q-26 -92 -26 -124q0 -9 5.5 -18t13.5 -16t18.5 -11.5t19.5 -4.5q42 0 69 24.5t27 66.5q0 16 -9.5 28.5t-24.5 12.5q-39 0 -39 -31q0 -11 14 -11q16 0 26 13l6 -2q-6 -33 -27 -33q-33 0 -33 34q0 25 20.5 43.5t46.5 18.5
q22 0 38.5 -20t16.5 -45q0 -49 -46 -82q-47 -33 -93 -33q-30 0 -47.5 14.5t-17.5 39.5q0 32 3 65.5t10 68.5l21 117q-73 -52 -86 -58q-4 11 -19 28q19 9 46.5 24t62.5 36q7 63 12 149q2 44 3.5 73t1.5 45l-1 123l-60 -2l1 17q91 0 181 26v-17l-41 -13q-19 -153 -31.5 -245.5
t-20.5 -127.5l54 36l49 35q4 -11 21 -40z" />
    <glyph glyph-name="oslash" unicode="&#xf8;" horiz-adv-x="507" 
d="M134 75q46 -76 124 -76q60 0 103 61q45 61 45 160q0 73 -31 131l-98.5 -108.5zM494 468q-10 -7 -31 -28l-55 -56q61 -62 61 -143q0 -106 -66 -182q-64 -76 -144 -76q-81 0 -149 62q-47 -56 -90 -114q-21 11 -34 23l62 62.5t43 47.5q-58 70 -58 156q0 38 13 73t37 66
t58.5 56t76.5 43l6 -12q-29 -11 -52.5 -31t-40 -48t-25.5 -62t-9 -71q0 -77 25 -134l47.5 55.5l52.5 63.5l132 162q-38 42 -84 42q-11 0 -21 -5.5t-18.5 -14t-13.5 -18.5t-5 -19q0 -36 24 -36q15 0 24 8.5t9 21.5q0 14 -12 34q9 4 18 4q12 0 19 -8.5t7 -21.5
q0 -21 -20.5 -36t-51.5 -15q-22 0 -37 15.5t-15 37.5t34 46t72 24q51 0 94 -31l43.5 52.5t31.5 36.5q2 -4 8 -8.5t13 -9t13 -8t8 -4.5z" />
    <glyph glyph-name="oe" unicode="&#x153;" horiz-adv-x="785" 
d="M430 339q34 54 83.5 85t95.5 31q59 0 109 -39t50 -82q0 -55 -44 -99q-43 -43 -104 -43q-29 0 -53 7.5t-41 19.5t-27 28t-10 34q0 15 6 28t15.5 22.5t21 15t22.5 5.5q19 0 36 -13.5t17 -28.5t-11.5 -29t-21.5 -14q-12 0 -21 12q24 9 24 27q0 13 -10 23t-21 10
q-5 0 -9.5 -5t-8 -13t-6 -17t-2.5 -18q0 -25 33 -50q34 -26 77 -26q37 0 59 32t22 77q0 43 -32 81q-32 39 -76 39q-58 0 -98 -66q-40 -64 -40 -176q0 -87 50 -149t108 -62q37 0 61.5 15.5t24.5 41.5q0 11 -5.5 19.5t-14.5 8.5q-14 0 -14 -13q0 -16 12 -22q-5 -6 -11 -6
q-7 0 -13.5 10.5t-6.5 24.5q0 17 10.5 29.5t25.5 12.5q16 0 31 -14.5t15 -41.5q0 -10 -11 -30t-44 -37q-34 -17 -63 -17q-54 0 -115 35q-60 36 -88 94q-27 -52 -70 -82.5t-88 -30.5q-88 0 -157 70t-69 167q0 82 64 153q64 72 151 92l6 -12q-68 -14 -113 -78
q-44 -65 -44 -141q0 -103 44 -170q45 -65 117 -65q58 0 102 62t44 162q0 83 -39 136t-97 53q-32 0 -52.5 -21t-20.5 -49q0 -19 14.5 -32t27.5 -13q9 0 18 3.5t16.5 9t12 12t4.5 12.5q0 26 -30 26q-12 0 -12 -13q0 -6 15 -13q-8 -11 -19 -11q-18 0 -18 23q0 12 11.5 20.5
t25.5 8.5q15 0 28.5 -12.5t13.5 -26.5q0 -33 -19 -53t-49 -20q-12 0 -22.5 6.5t-18.5 17t-13 25t-5 29.5q0 37 34 65q35 29 71 29q46 0 86.5 -25.5t62.5 -70.5z" />
    <glyph glyph-name="germandbls" unicode="&#xdf;" horiz-adv-x="486" 
d="M76 279q-8 49 -12.5 94t-4.5 87q0 152 57 215q57 64 124 64q57 0 106 -32q49 -31 49 -77q0 -55 -77 -132q-36 -36 -44 -54q-6 -17 -6 -38q0 -25 21.5 -46.5t83.5 -43.5q103 -34 103 -137q0 -54 -52 -103q-52 -50 -97 -50q-126 0 -126 103q0 33 30 62q30 30 56 30
q23 0 49 -20t26 -39q0 -24 -11.5 -41.5t-26.5 -17.5q-16 0 -25 17q15 9 18 14t3 25q0 6 -2.5 14t-7 15t-10 12t-11.5 5q-23 0 -36.5 -14.5t-13.5 -34.5q0 -41 23 -79t71 -38q17 0 32 8t26.5 22t18.5 32t7 38q0 44 -3.5 72.5t-15 48t-34 33t-61.5 25.5q-51 14 -71.5 33
t-20.5 55q0 9 5 20t14 22.5t21.5 22.5t27.5 19q30 17 50 48t20 57q0 42 -32 85q-31 43 -75 43q-66 0 -98 -113q-31 -111 -31 -250q0 -88 9 -178t26 -185l-124 -3l1 30q24 -9 98 -9z" />
    <glyph glyph-name="onesuperior" unicode="&#xb9;" horiz-adv-x="290" 
d="M236 251q-110 -6 -159 -30l-2 21q27 6 75 18q-15 286 -27 350q-28 -19 -66 -19q-3 0 -9 2.5t-11.5 6.5t-9.5 8t-4 7q0 14 9.5 26.5t19.5 12.5q9 0 17.5 -6t8.5 -13q0 -16 -17 -14q0 19 -10 19q-2 0 -4.5 -3t-2.5 -5q0 -10 7 -17t16 -7q21 0 53 17l65 35q0 -66 -5.5 -148
t-5.5 -170q0 -19 0.5 -38.5t1.5 -40.5q13 0 33 5t27 6v-23v0z" />
    <glyph glyph-name="logicalnot" unicode="&#xac;" horiz-adv-x="617" 
d="M516 98q17 91 17 258q-42 0 -162 -2t-321 -6l3 51q77 -7 163.5 -10t184.5 -3q57 0 98 1t67 3q-2 -38 6 -150q4 -57 6 -92t2 -51z" />
    <glyph glyph-name="mu" unicode="&#xb5;" 
d="M478 -3q-28 -8 -51 -17t-40 -17l-11 115q-59 -86 -148 -86q-41 0 -87 25t-67 69q-6 -121 -10.5 -183t-9.5 -70t-23 -8t-18 28q0 21 24 143l23 120l-4 16q-4 16 -4 37q0 30 18 68t41 61q12 12 22 25.5t18 27.5t12.5 26t4.5 21q0 52 -45 52q-19 0 -37 -11t-18 -28
q0 -11 9 -19.5t20 -8.5q13 0 16 2.5t3 7.5q0 11 -21 16q10 12 17 12q9 0 16 -8t7 -19q0 -16 -13.5 -30t-29.5 -14q-15 0 -28 15t-13 31q0 30 22 58q23 29 48 29q28 0 46 -23t18 -56q0 -45 -24 -87q-52 -91 -52 -143q0 -76 36.5 -119.5t97.5 -43.5q75 0 129 101
q-18 157 -51 307l-52 -3l2 21q87 1 162 27l5 -20l-50 -14q0 -165 18 -432q37 8 65 22l7 -23v0z" />
    <glyph glyph-name="trademark" unicode="&#x2122;" horiz-adv-x="524" 
d="M193 564q-18 4 -18 20q0 7 9 12t16 5q15 0 26 -14.5t11 -29.5q0 -14 -15 -23.5t-32 -9.5q-14 0 -31 6t-25 7q0 -48 5 -92.5t5 -65.5h33l2 -17l-100 6v19l44 -7q-33 149 -32 173l-44 11q1 -6 -1 -20t-6 -37h-20q16 54 13 74q22 2 81 -19q60 -21 82 -21q9 0 16 9t7 15
q0 7 -5 11.5t-12 4.5q-4 0 -7 -6t-2 -11zM405 622q101 -3 101 -55q0 -17 -13.5 -28t-32.5 -11q-8 0 -15.5 7t-7.5 15q0 15 16 15q4 -24 9 -24q7 0 12 7t5 14q0 38 -60 46q0 -108 21 -189q15 7 49 7l-3 -19q-29 3 -105 -8l-2 13q14 1 23.5 1.5t15.5 2.5q-5 20 -10.5 54.5
t-12.5 85.5q-8 -14 -16.5 -40t-17.5 -63l-22 -6q-7 17 -20.5 43.5t-35.5 64.5q0 -17 -1.5 -60.5t-5.5 -114.5l41 -4l-2 -12q-68 3 -96 12l1 16l32 -7q18 109 18 175q0 40 -7 53q29 0 41 4l49 -114q11 23 24 53z" />
    <glyph glyph-name="Eth" unicode="&#xd0;" horiz-adv-x="634" 
d="M265 21q143 20 217.5 103t74.5 221q0 111 -75 176q-75 66 -200 66q-11 0 -20.5 -0.5t-19.5 -1.5l15 -259l82 33.5t56 25.5l13 -22q-33 -9 -150 -57q4 -79 5.5 -150t1.5 -135zM238 605q10 1 19.5 1.5t20.5 0.5q160 0 255 -72q96 -71 96 -188q0 -145 -127 -248
q-128 -104 -339 -110l-6 25l87 5q-4 62 -10 129t-16 141l-89 -38l-53 -23l-9 33q37 11 73.5 23t74.5 26q-11 78 -22 143.5t-24 122.5q-57 -16 -91 -49.5t-34 -79.5q0 -14 9.5 -26.5t18.5 -12.5q15 0 30.5 11.5t15.5 29.5q0 14 -5.5 24.5t-11.5 10.5q-12 0 -12 -16
q0 -8 7 -12l-4 -6q-24 0 -24 20q0 14 11.5 23t26.5 9q17 0 30.5 -14t13.5 -30q0 -23 -28 -44q-28 -20 -55 -20q-14 0 -26.5 5.5t-21.5 14.5t-14.5 20t-5.5 21q0 38 46 78q47 41 119 59l-14 60l81 12l7 -59v0z" />
    <glyph glyph-name="onehalf" unicode="&#xbd;" horiz-adv-x="666" 
d="M398 34q19 16 53 16q25 0 69 -18q43 -18 51 -18q43 0 43 44q0 14 -12 25.5t-27 11.5q-10 0 -17 -7.5t-7 -14.5q0 -15 37 -15q1 0 1 -2q0 -3 -4.5 -12.5t-19.5 -9.5q-8 0 -18.5 10.5t-10.5 19.5q0 16 13.5 30.5t33.5 14.5q22 0 37 -13t15 -36q0 -25 -25 -47
q-25 -23 -48 -23q-12 0 -52 9q-41 9 -71 9q-14 0 -31.5 -4.5t-23.5 -13.5q-7 15 -7 40q0 7 3 20t11.5 28.5t22.5 34t37 36.5q72 60 93 96q22 37 22 70q0 30 -18.5 54.5t-46.5 24.5q-30 0 -49.5 -19t-19.5 -40q0 -20 11 -32t25 -12q12 0 20 7.5t8 17.5q0 5 -4 12t-8 7
t-7.5 -5t-3.5 -11q-13 0 -16.5 1t-3.5 8q0 11 9 18t19 7q34 0 34 -33q0 -7 -4.5 -15t-12.5 -15t-19 -11.5t-23 -4.5q-9 0 -18 5t-16.5 12.5t-12 16.5t-4.5 18q0 33 35 59t72 26q41 0 70 -29q30 -29 30 -64q0 -31 -17.5 -64t-42.5 -51q-92 -65 -121 -101q-29 -38 -33 -68z
M581 633q-22 -20 -69 -79l-122 -156q-149 -194 -301 -443q-7 2 -16.5 7t-22.5 13q7 7 16.5 18t20.5 28t20.5 29.5t16.5 20.5q67 84 135 189l268 407q7 -11 54 -34zM239 259q-110 -6 -159 -30l-2 21q27 4 75 18q-15 285 -27 350q-28 -19 -66 -19q-3 0 -9 2.5t-11.5 6.5
t-9.5 8t-4 7q0 14 9.5 26.5t19.5 12.5q9 0 17.5 -6t8.5 -13q0 -16 -17 -14q0 19 -10 19q-2 0 -4.5 -3t-2.5 -5q0 -11 7 -17.5t16 -6.5q21 0 53 17l65 35q0 -66 -5.5 -148t-5.5 -170q0 -19 0.5 -38.5t1.5 -40.5q3 0 11 2t17.5 3.5t18 3.5t13.5 2v-23v0z" />
    <glyph glyph-name="plusminus" unicode="&#xb1;" horiz-adv-x="617" 
d="M553 -10q-350 0 -485 -9l3 48q162 0 280.5 4.5t195.5 14.5l6 -58v0zM334 308q-4 -101 -5.5 -165.5t-1.5 -93.5l-35 -2q0 79 6 261q-188 0 -246 6l2 51q91 -11 151.5 -16.5t89.5 -5.5q-2 90 -3 149t-1 89l45 9l-4 -247q82 0 229 15l6 -52z" />
    <glyph glyph-name="Thorn" unicode="&#xde;" horiz-adv-x="535" 
d="M248 531q103 0 186 -53t83 -136q0 -93 -61 -151t-145 -58q-12 0 -24 5.5t-21.5 15t-15 21.5t-5.5 25q0 15 26 29q27 15 48 15q22 0 22 -29q0 -20 -18 -24q-1 1 -4 6.5t-6.5 10.5t-8 9.5t-9.5 4.5q-22 0 -22 -35q0 -17 13.5 -28.5t32.5 -11.5q49 0 91 49t42 113
q0 100 -50 148t-156 54q0 -94 -4 -221t-12 -288l122 -10l-7 -22q-52 9 -143 15q-45 3 -80 4t-60 0l-3 22q20 1 42.5 -0.5t47.5 -3.5q51 -4 58 -3l5 135q0 105 -4 197.5t-12 174.5q-72 -2 -114.5 -27.5t-42.5 -70.5q0 -16 13 -31t31 -15q21 0 36.5 7t15.5 20q0 5 -6 9.5
t-13 4.5q-16 0 -16 -18q-15 3 -15 18q0 9 7.5 16t17.5 7q15 0 27.5 -10t12.5 -21q0 -27 -20 -46t-51 -19q-26 0 -47 22t-21 40q0 49 42.5 86.5t139.5 47.5q1 19 -6 75q-4 28 -5.5 43.5t-1.5 19.5l-58 4v22q38 -5 79 -7.5t84 -2.5h20t17 1l-3 -26l-65 4q-6 -107 -6 -133z" />
    <glyph glyph-name="onequarter" unicode="&#xbc;" horiz-adv-x="663" 
d="M637 171q0 -3 -6 -34h-63v-120h58v-6q0 -4 -1 -12q-94 0 -166 -23q-3 7 -3 21l93 17q-3 85 -6 122q-60 0 -105 -0.5t-76 -1.5q2 13 24 41l43 57l19 28.5t17.5 30t12.5 28t5 23.5q0 41 -38 41q-19 0 -35.5 -13t-16.5 -29q0 -10 8.5 -22t15.5 -12q4 0 8.5 4t4.5 9
q0 13 -11 15q0 12 17 12q14 0 14 -19q0 -15 -14 -26t-29 -11q-17 0 -27 13.5t-10 31.5q0 20 26 40q27 21 54 21q30 0 53.5 -18.5t23.5 -47.5q0 -21 -15 -48t-59 -71q-45 -45 -46 -53q62 0 134 3q-2 147 6 234q5 -1 17.5 -3t34.5 -5q-11 -52 -19 -108.5t-13 -118.5
q40 0 70 10zM220 252q-104 -5 -159 -30l-2 22l75 17q-8 137 -14.5 223t-11.5 123q-50 -15 -67 -15q-3 0 -9 2.5t-11.5 6.5t-9.5 8t-4 7q0 14 9.5 26.5t19.5 12.5q9 0 17.5 -6t8.5 -13t-6 -11t-12 -3q0 19 -9 19q-7 0 -7 -8q0 -10 6.5 -17t16.5 -7q25 0 66 23l33 19.5t18 9.5
q0 -32 -1.5 -70t-3.5 -82t-3.5 -85t-1.5 -81v-32q0 -19 1 -47q6 0 14 1.5t17 4t16.5 4t12.5 1.5l1 -23v0zM574 639q-26 -26 -76.5 -88l-125.5 -162q-150 -198 -290 -428q-13 4 -39 20q17 15 38 46q11 17 20 29.5t16 20.5q38 46 84 112.5l103 154.5l110.5 171l105.5 158
q2 -6 54 -34z" />
    <glyph glyph-name="divide" unicode="&#xf7;" horiz-adv-x="476" 
d="M215 148q18 0 30.5 -16.5t12.5 -37.5q0 -18 -32 -18q-36 0 -36 34q0 16 7.5 27t17.5 11zM436 286q-7 -21 -7 -49q-41 12 -246 12q-20 0 -40.5 -1.5t-43.5 -3.5t-40 -3t-28 -2q0 25 -3 39l408 8v0zM243 476q18 0 30.5 -17t12.5 -37q0 -18 -32 -18q-36 0 -36 34
q0 17 7 27.5t18 10.5z" />
    <glyph glyph-name="brokenbar" unicode="&#xa6;" horiz-adv-x="152" 
d="M50 -160q5 94 7.5 187t2.5 187l32 4q0 -56 2 -144.5t6 -213.5zM100 764q-6 -197 -6 -366l-35 -4q0 142 -9 366l50 4v0z" />
    <glyph glyph-name="degree" unicode="&#xb0;" horiz-adv-x="246" 
d="M125 495q21 0 37.5 19.5t16.5 43.5q0 22 -13.5 35t-35.5 13q-20 0 -42 -15q-21 -15 -21 -31q0 -65 58 -65zM122 636q38 0 63.5 -21.5t25.5 -55.5q0 -18 -7.5 -34.5t-20 -28.5t-29 -19.5t-34.5 -7.5q-32 0 -57 28t-25 51q0 18 6.5 34t18 28t26.5 19t33 7z" />
    <glyph glyph-name="thorn" unicode="&#xfe;" horiz-adv-x="427" 
d="M195 278q-21 9 -21 19q0 28 32 28q17 0 28.5 -11.5t11.5 -30.5q0 -26 -17.5 -41t-39.5 -15q-23 0 -44 25t-21 50q0 50 37 81t82 31q61 0 113 -58q53 -59 53 -128q0 -85 -65 -152q-65 -66 -142 -66q-15 0 -32 4.5t-33 13t-29.5 19.5t-22.5 23q-3 -92 -3 -140
q0 -101 3 -126q31 1 70 17l-6 -22q-22 -5 -41 -7.5t-36 -2.5q-8 0 -28.5 -1.5t-54.5 -5.5v15l76 5q-9 58 -9 186q0 61 1.5 108t5.5 80q27 253 27 439q0 18 -1.5 44.5l-3.5 61.5l-56 -1l1 18q108 0 182 15l1 -17l-51 -11q-6 -48 -11.5 -112.5t-16.5 -127.5
q-22 -125 -33 -207.5t-11 -127.5q0 -39 34 -79t80 -40q57 0 100 58t43 132q0 69 -38 119t-79 50q-38 0 -62.5 -22t-24.5 -59q0 -8 4.5 -17t11 -17t14.5 -13t16 -5q14 0 27.5 9t13.5 19q0 19 -27 19q-14 0 -14 -11q0 -5 11 -10l-5 -5v0z" />
    <glyph glyph-name="threequarters" unicode="&#xbe;" horiz-adv-x="660" 
d="M632 168q0 -1 -1.5 -9.5t-3.5 -24.5h-63q-1 -12 -1.5 -26t-0.5 -30q0 -17 0.5 -32.5t1.5 -31.5h58v-6q0 -4 -1 -12q-95 0 -167 -23l-2 21q48 17 93 17q0 12 -1 27.5t-2.5 32t-2.5 33t-1 29.5q-63 -1 -107.5 -1.5t-72.5 -0.5q1 10 31 52l25.5 34.5t17.5 22.5q7 9 14 21
l15 27q17 32 17 51q0 41 -37 41q-19 0 -35.5 -13.5t-16.5 -29.5q0 -9 8.5 -21t15.5 -12q4 0 8.5 4.5t4.5 8.5q0 14 -11 14q6 13 17 13q14 0 14 -20q0 -14 -14 -25.5t-29 -11.5q-17 0 -27 13.5t-10 32.5q0 20 26 40q27 21 54 21q31 0 54 -18.5t23 -48.5q0 -21 -15 -48
t-59 -72q-45 -45 -46 -54q57 0 134 6q-2 147 6 234q35 -8 51 -8q-11 -55 -19 -111.5t-13 -115.5q43 0 70 10zM65 454q27 -9 36 -9q48 0 77 34.5t29 85.5q0 31 -25 50.5t-58 19.5q-12 0 -24 -6t-21.5 -15t-15.5 -21t-6 -24q0 -8 11.5 -18t19.5 -10q36 0 36 23q0 20 -11 20
q-7 0 -10 -9.5t-8 -9.5q-13 0 -13 16q0 17 33 17q8 0 20 -9t12 -19q0 -8 -5.5 -16t-14 -14t-19 -10t-19.5 -4q-25 0 -42 17.5t-17 41.5q0 20 34 42q35 23 81 23q43 0 76 -30q34 -28 34 -70q0 -24 -38 -64q-19 -19 -39.5 -33.5t-43.5 -24.5q51 -10 79.5 -36.5t28.5 -58.5
q0 -44 -41 -79q-40 -34 -85 -34q-34 0 -62 19t-28 46q0 8 5 17t13.5 17t19.5 13.5t23 5.5q18 0 28 -8.5t10 -21.5q0 -20 -9.5 -33.5t-25.5 -13.5q-15 0 -19 30q10 -10 22 -10q5 0 11.5 6t6.5 11q0 6 -8.5 11t-18.5 5q-38 0 -38 -26q0 -21 18.5 -35.5t53.5 -14.5
q32 0 54 24.5t22 61.5q0 48 -23.5 70t-80.5 22q-5 0 -12 -1.5l-17 -3.5l4 43v0zM564 632q-26 -26 -76.5 -88l-125.5 -161t-147 -205.5t-143 -223.5q-13 4 -39 20q17 15 38 46q11 17 20 29.5t16 20.5q38 46 84 113l103 155l110.5 170l105.5 158q2 -6 54 -34z" />
    <glyph glyph-name="twosuperior" unicode="&#xb2;" horiz-adv-x="334" 
d="M73 297q22 16 53 16q26 0 68 -18q43 -18 52 -18q43 0 43 44q0 13 -12 24.5t-27 11.5q-10 0 -17 -7t-7 -14q0 -15 37 -15q2 0 2 -2q0 -3 -5.5 -12.5t-19.5 -9.5q-8 0 -18.5 10.5t-10.5 19.5q0 16 13.5 30.5t33.5 14.5q22 0 37 -13t15 -36q0 -26 -25 -48q-23 -22 -48 -22
q-12 0 -52 9q-41 9 -71 9q-13 0 -31 -5t-24 -14q-7 17 -7 41q0 6 2.5 18.5t11 28.5t23.5 35.5t40 40.5q72 60 91 93q21 36 21 68q0 30 -18.5 55t-46.5 25q-30 0 -49.5 -19t-19.5 -40q0 -20 11 -32t25 -12q12 0 20 7t8 17q0 5 -4 12.5t-8 7.5q-16 0 -16 -19q-15 4 -15 12
q0 11 9 18t19 7q34 0 34 -33q0 -15 -17 -30.5t-42 -15.5q-9 0 -18 4.5t-16.5 12t-12 16.5t-4.5 18q0 34 35 60t72 26q42 0 70 -28q30 -29 30 -65q0 -15 -5 -32t-13 -32.5t-19 -28.5t-23 -22q-85 -60 -118 -98q-31 -36 -36 -71z" />
    <glyph glyph-name="registered" unicode="&#xae;" horiz-adv-x="406" 
d="M296 385q-19 3 -19 15q0 5 8.5 10.5t17.5 5.5q32 0 32 -29q0 -18 -18.5 -32t-40.5 -14q-15 0 -30.5 15t-35.5 53q-20 39 -24 44q20 0 38 12.5t18 29.5q0 38 -39 38q-12 0 -30 -7l9 -163h31l-5 -13q-39 0 -73 -8v17h26q-2 35 -5 56.5t-5 29.5q-4 17 -12 65q-6 -3 -12 -6.5
l-13 -7.5l-6 15q11 6 18 9.5l11 5.5q-1 8 -4.5 22l-4.5 18q1 0 6.5 2.5l11.5 5l12 5t9 2.5q0 -5 2 -18.5t2 -20.5q15 9 46 9q61 0 61 -48q0 -17 -19 -33.5t-47 -21.5q25 -8 39 -45q13 -35 20 -42q6 -6 13 -6q4 0 9 4t9.5 10t7.5 13t3 13q0 4 -5 9q-12 0 -12 -19zM231 292
q67 0 102.5 41t35.5 114q0 48 -40 110q-39 63 -129 63q-52 0 -108 -44q-54 -44 -54 -97q0 -76 57 -131q58 -56 136 -56zM209 646q52 0 93 -24.5t61 -78.5q21 -53 21 -84q0 -22 -2 -43.5t-9.5 -42t-21 -40t-37.5 -37.5q-47 -36 -84 -36q-96 0 -153 48t-57 133q0 56 29 109
q30 54 80 75q51 21 80 21z" />
    <glyph glyph-name="minus" unicode="&#x2212;" horiz-adv-x="522" 
d="M505 314q-350 0 -485 -9l3 48q162 0 280.5 4.5t195.5 14.5l6 -58v0z" />
    <glyph glyph-name="eth" unicode="&#xf0;" horiz-adv-x="470" 
d="M337 399q51 -58 78 -110t27 -99q0 -72 -64 -130q-62 -58 -135 -58q-78 0 -141 64t-63 118q0 76 66 144t129 68q15 0 28.5 -6t23.5 -15t16 -20t6 -22q0 -18 -20 -40q-20 -20 -39 -20q-20 0 -36.5 15t-16.5 33q0 9 12 17.5t22 8.5q-1 -2 -4 -11.5t-3 -18.5q0 -30 23 -30
q11 0 19 12.5t8 24.5q0 20 -12 38t-29 18q-52 0 -90 -59q-37 -58 -37 -115q0 -82 40 -134t97 -52q52 0 96 54q45 54 45 127q0 79 -45.5 152.5t-138.5 157.5l-88 -70l-20 25l90 61q-16 21 -28 29q-5 4 -24 21.5l-51 48.5q6 7 21 22t24 26q43 -67 89 -124q67 49 115 97l22 -44
q-37 -18 -122 -73z" />
    <glyph glyph-name="multiply" unicode="&#xd7;" horiz-adv-x="594" 
d="M412 375l-59.5 -55.5t-38.5 -39.5l139 -140t89 -81l-42 -46q-11 11 -38 42.5l-72 82.5l-69 80.5t-33 35.5q-10 -2 -182 -228l-48 28l147 154t70 70q-17 19 -46.5 47l-71.5 66q-83 76 -107 101l46 48q48 -69 98 -129t103 -112q26 26 55 59l61 73q65 80 85 103l49 -39z" />
    <glyph glyph-name="threesuperior" unicode="&#xb3;" horiz-adv-x="319" 
d="M84 456q27 -9 36 -9q24 0 43.5 9.5t34 25.5t22 38t7.5 47q0 31 -25.5 50.5t-58.5 19.5q-12 0 -24 -6t-21.5 -15t-15 -21t-5.5 -24q0 -8 11 -18t19 -10q36 0 36 23q0 20 -11 20q-7 0 -10 -9.5t-8 -9.5q-13 0 -13 16q0 17 33 17q8 0 20 -9t12 -19q0 -8 -5.5 -16t-14.5 -14
t-19 -10t-19 -4q-25 0 -42 17.5t-17 41.5q0 20 34 42q35 23 81 23q43 0 77 -29q33 -29 33 -71q0 -24 -38 -64q-19 -19 -39.5 -33.5t-43.5 -24.5q51 -10 79.5 -36.5t28.5 -58.5q0 -45 -40 -79t-86 -34q-34 0 -62 19t-28 46q0 8 5 17t13.5 17t19.5 13.5t23 5.5q18 0 28 -8.5
t10 -21.5q0 -44 -39 -44q-11 0 -15 25q16 -6 22 -6q7 0 12.5 5t5.5 10q0 6 -8.5 11t-18.5 5q-38 0 -38 -26q0 -21 18.5 -35.5t53.5 -14.5q32 0 54 24.5t22 61.5q0 48 -23.5 70t-80.5 22q-6 0 -27 3l2 35v0z" />
    <glyph glyph-name="copyright" unicode="&#xa9;" horiz-adv-x="520" 
d="M381 253q-22 -60 -47 -86t-61 -26q-58 0 -107 54q-49 55 -49 112q0 59 48 115q48 57 106 57q43 0 73 -17t30 -48q0 -26 -15 -44.5t-39 -18.5q-19 0 -36.5 12t-17.5 29q0 14 9 23.5t23 9.5q12 0 21 -6.5t9 -17.5q0 -7 -15 -13l-1 4t-2.5 8t-3 7.5t-4.5 3.5q-12 0 -12 -17
q0 -29 22 -29q15 0 23.5 10.5t8.5 27.5q0 19 -24 39q-25 20 -44 20q-48 0 -75 -37.5t-27 -95.5q0 -54 32 -110q33 -56 79 -56q51 0 75 100l21 -10v0zM278 87q91 0 138.5 58.5t47.5 164.5q0 99 -54 162q-54 64 -131 64q-225 0 -225 -246q0 -87 65 -146q66 -57 159 -57z
M270 559q89 0 159 -79q72 -80 72 -194q0 -99 -80 -161t-187 -62q-69 0 -120 34.5t-75 92.5t-24 110q0 54 16.5 96t59.5 82q45 40 86 60.5t93 20.5z" />
    <glyph glyph-name="Aacute" unicode="&#xc1;" horiz-adv-x="624" 
d="M487 652q-84 3 -138 -56t-69 -245q-2 -17 -3 -28.5t-2 -18.5q20 -2 36 -3t28 -1q26 0 58.5 3t71.5 8q-1 29 -1.5 51.5t-0.5 39.5q0 67 5 129t15 121zM634 11q-44 -20 -123 -28q-16 72 -26 145t-14 150q-10 -1 -26.5 -1.5t-39.5 -0.5q-79 0 -134 9q-26 -139 -75 -211.5
t-118 -72.5q-34 0 -60 32t-26 68q0 28 23 63q24 34 51 34q7 0 14.5 -4.5t14 -11t10.5 -14.5t4 -15q0 -9 -3 -18.5t-7.5 -17.5t-11 -13t-13.5 -5q-3 0 -7 3q14 11 14 27q0 10 -7.5 20t-16.5 10q-46 0 -46 -41q0 -37 20.5 -55t69.5 -18q70 0 97 81q27 82 27 170
q-164 38 -164 112q0 22 13.5 39.5t32.5 17.5h10q-17 -22 -17 -47q0 -37 33.5 -64.5t90.5 -40.5q-3 37 -3 75q0 75 19 124.5t64 87.5t100.5 57t115.5 19q37 0 41 -1q-43 -199 -48 -355q5 1 11.5 3l15.5 5l2 -43q-22 -2 -29 -3v-35q0 -78 4.5 -136.5t14.5 -98.5q37 2 96 25
l6 -26v0zM541 828q-17 -8 -31.5 -14l-27.5 -11t-28.5 -12.5t-34.5 -18.5q-18 -11 -30.5 -17.5l-20.5 -10.5q-1 4 -10 17q66 31 163 108q1 -2 9 -22q8 -18 11 -19z" />
    <glyph glyph-name="Acircumflex" unicode="&#xc2;" horiz-adv-x="624" 
d="M487 652q-84 3 -138 -56t-69 -245q-2 -17 -3 -28.5t-2 -18.5q20 -2 36 -3t28 -1q26 0 58.5 3t71.5 8q-1 29 -1.5 51.5t-0.5 39.5q0 67 5 129t15 121zM634 11q-44 -20 -123 -28q-16 72 -26 145t-14 150q-10 -1 -26.5 -1.5t-39.5 -0.5q-79 0 -134 9q-26 -139 -75 -211.5
t-118 -72.5q-34 0 -60 32t-26 68q0 28 23 63q24 34 51 34q7 0 14.5 -4.5t14 -11t10.5 -14.5t4 -15q0 -9 -3 -18.5t-7.5 -17.5t-11 -13t-13.5 -5q-3 0 -7 3q14 11 14 27q0 10 -7.5 20t-16.5 10q-46 0 -46 -41q0 -37 20.5 -55t69.5 -18q70 0 97 81q27 82 27 170
q-164 38 -164 112q0 22 13.5 39.5t32.5 17.5h10q-17 -22 -17 -47q0 -37 33.5 -64.5t90.5 -40.5q-3 37 -3 75q0 75 19 124.5t64 87.5t100.5 57t115.5 19q37 0 41 -1q-43 -199 -48 -355q5 1 11.5 3l15.5 5l2 -43q-22 -2 -29 -3v-35q0 -78 4.5 -136.5t14.5 -98.5q37 2 96 25
l6 -26v0zM529 752q-28 -16 -44 -22q-10 19 -23.5 41t-31.5 47q-47 -77 -54 -93q-32 15 -43 24l16.5 16l29.5 27q37 31 54 54q16 -26 96 -94z" />
    <glyph glyph-name="Adieresis" unicode="&#xc4;" horiz-adv-x="624" 
d="M487 652q-84 3 -138 -56t-69 -245q-2 -17 -3 -28.5t-2 -18.5q20 -2 36 -3t28 -1q26 0 58.5 3t71.5 8q-1 29 -1.5 51.5t-0.5 39.5q0 67 5 129t15 121zM634 11q-44 -20 -123 -28q-16 72 -26 145t-14 150q-10 -1 -26.5 -1.5t-39.5 -0.5q-79 0 -134 9q-26 -139 -75 -211.5
t-118 -72.5q-34 0 -60 32t-26 68q0 28 23 63q24 34 51 34q7 0 14.5 -4.5t14 -11t10.5 -14.5t4 -15q0 -9 -3 -18.5t-7.5 -17.5t-11 -13t-13.5 -5q-3 0 -7 3q14 11 14 27q0 10 -7.5 20t-16.5 10q-46 0 -46 -41q0 -37 20.5 -55t69.5 -18q70 0 97 81q27 82 27 170
q-164 38 -164 112q0 22 13.5 39.5t32.5 17.5h10q-17 -22 -17 -47q0 -37 33.5 -64.5t90.5 -40.5q-3 37 -3 75q0 75 19 124.5t64 87.5t100.5 57t115.5 19q37 0 41 -1q-43 -199 -48 -355q5 1 11.5 3l15.5 5l2 -43q-22 -2 -29 -3v-35q0 -78 4.5 -136.5t14.5 -98.5q37 2 96 25
l6 -26v0zM397 794q10 0 18.5 -11.5t8.5 -23.5q0 -25 -38 -25q-10 0 -22 11.5t-12 21.5q0 13 13 20t32 7zM545 801q32 0 32 -19q0 -23 -8 -32t-24 -9q-24 0 -24 35q0 14 5 19.5t19 5.5z" />
    <glyph glyph-name="Agrave" unicode="&#xc0;" horiz-adv-x="624" 
d="M487 652q-84 3 -138 -56t-69 -245q-2 -17 -3 -28.5t-2 -18.5q20 -2 36 -3t28 -1q26 0 58.5 3t71.5 8q-1 29 -1.5 51.5t-0.5 39.5q0 67 5 129t15 121zM634 11q-44 -20 -123 -28q-16 72 -26 145t-14 150q-10 -1 -26.5 -1.5t-39.5 -0.5q-79 0 -134 9q-26 -139 -75 -211.5
t-118 -72.5q-34 0 -60 32t-26 68q0 28 23 63q24 34 51 34q7 0 14.5 -4.5t14 -11t10.5 -14.5t4 -15q0 -9 -3 -18.5t-7.5 -17.5t-11 -13t-13.5 -5q-3 0 -7 3q14 11 14 27q0 10 -7.5 20t-16.5 10q-46 0 -46 -41q0 -37 20.5 -55t69.5 -18q70 0 97 81q27 82 27 170
q-164 38 -164 112q0 22 13.5 39.5t32.5 17.5h10q-17 -22 -17 -47q0 -37 33.5 -64.5t90.5 -40.5q-3 37 -3 75q0 75 19 124.5t64 87.5t100.5 57t115.5 19q37 0 41 -1q-43 -199 -48 -355q5 1 11.5 3l15.5 5l2 -43q-22 -2 -29 -3v-35q0 -78 4.5 -136.5t14.5 -98.5q37 2 96 25
l6 -26v0zM530 753q-9 -13 -10 -17q-5 1 -47 26q-39 23 -67 33l-27.5 11t-31.5 14q3 1 11 19q8 20 9 22q97 -77 163 -108z" />
    <glyph glyph-name="Aring" unicode="&#xc5;" horiz-adv-x="624" 
d="M487 652q-84 3 -138 -56t-69 -245q-2 -17 -3 -28.5t-2 -18.5q20 -2 36 -3t28 -1q26 0 58.5 3t71.5 8q-1 29 -1.5 51.5t-0.5 39.5q0 67 5 129t15 121zM634 11q-44 -20 -123 -28q-16 72 -26 145t-14 150q-10 -1 -26.5 -1.5t-39.5 -0.5q-79 0 -134 9q-26 -139 -75 -211.5
t-118 -72.5q-34 0 -60 32t-26 68q0 28 23 63q24 34 51 34q7 0 14.5 -4.5t14 -11t10.5 -14.5t4 -15q0 -9 -3 -18.5t-7.5 -17.5t-11 -13t-13.5 -5q-3 0 -7 3q14 11 14 27q0 10 -7.5 20t-16.5 10q-46 0 -46 -41q0 -37 20.5 -55t69.5 -18q70 0 97 81q27 82 27 170
q-164 38 -164 112q0 22 13.5 39.5t32.5 17.5h10q-17 -22 -17 -47q0 -37 33.5 -64.5t90.5 -40.5q-3 37 -3 75q0 75 19 124.5t64 87.5t100.5 57t115.5 19q37 0 41 -1q-43 -199 -48 -355q5 1 11.5 3l15.5 5l2 -43q-22 -2 -29 -3v-35q0 -78 4.5 -136.5t14.5 -98.5q37 2 96 25
l6 -26v0zM450 768q24 0 40.5 12.5t16.5 32.5q0 75 -42 75q-25 0 -47 -24q-21 -23 -21 -43q0 -26 14.5 -39.5t38.5 -13.5zM448 913q31 0 61 -24t30 -56q0 -39 -28 -71q-27 -33 -52 -33q-28 0 -58 30q-29 32 -29 62q0 40 21.5 66t54.5 26z" />
    <glyph glyph-name="Atilde" unicode="&#xc3;" horiz-adv-x="624" 
d="M487 652q-84 3 -138 -56t-69 -245q-2 -17 -3 -28.5t-2 -18.5q20 -2 36 -3t28 -1q26 0 58.5 3t71.5 8q-1 29 -1.5 51.5t-0.5 39.5q0 67 5 129t15 121zM634 11q-44 -20 -123 -28q-16 72 -26 145t-14 150q-10 -1 -26.5 -1.5t-39.5 -0.5q-79 0 -134 9q-26 -139 -75 -211.5
t-118 -72.5q-34 0 -60 32t-26 68q0 28 23 63q24 34 51 34q7 0 14.5 -4.5t14 -11t10.5 -14.5t4 -15q0 -9 -3 -18.5t-7.5 -17.5t-11 -13t-13.5 -5q-3 0 -7 3q14 11 14 27q0 10 -7.5 20t-16.5 10q-46 0 -46 -41q0 -37 20.5 -55t69.5 -18q70 0 97 81q27 82 27 170
q-164 38 -164 112q0 22 13.5 39.5t32.5 17.5h10q-17 -22 -17 -47q0 -37 33.5 -64.5t90.5 -40.5q-3 37 -3 75q0 75 19 124.5t64 87.5t100.5 57t115.5 19q37 0 41 -1q-43 -199 -48 -355q5 1 11.5 3l15.5 5l2 -43q-22 -2 -29 -3v-35q0 -78 4.5 -136.5t14.5 -98.5q37 2 96 25
l6 -26v0zM583 847q-42 -73 -68 -90q-26 -15 -51 -15q-14 0 -25.5 7.5t-29.5 39.5q-17 33 -36 33q-21 0 -27 -66q-23 11 -35 8q19 47 39 62t50 15q19 0 43 -37q23 -32 44 -32q11 0 24.5 6.5t16.5 14.5q2 5 4.5 20.5t6.5 42.5q18 0 44 -9z" />
    <glyph glyph-name="Ccedilla" unicode="&#xc7;" horiz-adv-x="520" 
d="M507 190q-5 -105 -58.5 -162.5t-144.5 -57.5q-4 -7 -10 -22t-11 -22q29 2 56 -14q29 -17 29 -43q0 -19 -27 -35q-26 -18 -49 -18q-6 0 -14.5 2t-16.5 5t-14 5.5t-8 2.5q6 10 9 23q16 -16 45 -16q34 0 34 27q0 19 -18.5 33t-47.5 13q14 33 18 61q-104 17 -179 111t-75 201
q0 73 39 165q41 92 106 147q68 56 147 56q74 0 118 -39q45 -39 45 -86q0 -46 -42 -83q-42 -36 -92 -36q-28 0 -59 23q-29 23 -29 57q0 32 19.5 49t49.5 17q22 0 39 -14t17 -28q0 -23 -10 -37.5t-24 -14.5q-16 0 -22 15q10 0 23 9t13 18q0 31 -19 31q-22 0 -41 -17.5
t-19 -41.5q0 -8 5 -17t14 -17t20 -13.5t23 -5.5q33 0 56 32q24 33 24 74t-30 74q-29 33 -78 33q-102 0 -164 -89q-60 -89 -60 -219q0 -141 69 -237q71 -95 170 -95q61 0 92.5 36.5t31.5 96.5q0 11 -1 27.5t-3 39.5l54 -4v0z" />
    <glyph glyph-name="Eacute" unicode="&#xc9;" horiz-adv-x="532" 
d="M431 130q22 -6 22 -18q0 -18 -9.5 -31.5t-25.5 -13.5q-17 0 -28.5 15t-11.5 33q0 29 25 54q26 26 45 26q43 0 67.5 -18t24.5 -52q0 -14 -5 -29.5t-13.5 -30.5t-19.5 -29t-23 -24q-12 -9 -23 -14.5t-24 -8.5t-29 -4t-37 -1q-19 0 -86 9q-34 4 -60.5 6t-46.5 2
q-31 0 -81 -10v26l56 4q-17 205 -33 321q-8 58 -21.5 120.5t-31.5 131.5l-52 -4v25q84 3 158.5 11t140.5 21l110 22q-8 -46 -11.5 -86t-1.5 -75h-24l3 110l-228 -15q8 -113 12 -189.5t4 -118.5q142 6 226 35v-39q-51 -10 -107 -15.5t-119 -7.5q1 -25 1.5 -57t0.5 -71v-59
q0 -29 -1 -58l190 -6q87 0 112 20q24 19 24 60q0 69 -70 69q-10 0 -21 -12.5t-11 -29.5q0 -12 10 -19.5t19 -7.5q10 0 10 11q0 10 -10 16l4 6v0zM337 796q-17 -8 -31.5 -14l-27.5 -11t-28.5 -12.5t-34.5 -18.5q-18 -11 -30.5 -17.5l-20.5 -10.5q-1 4 -10 17q66 31 163 108
q1 -2 9 -22q8 -18 11 -19z" />
    <glyph glyph-name="Ecircumflex" unicode="&#xca;" horiz-adv-x="532" 
d="M431 130q22 -6 22 -18q0 -18 -9.5 -31.5t-25.5 -13.5q-17 0 -28.5 15t-11.5 33q0 29 25 54q26 26 45 26q43 0 67.5 -18t24.5 -52q0 -14 -5 -29.5t-13.5 -30.5t-19.5 -29t-23 -24q-12 -9 -23 -14.5t-24 -8.5t-29 -4t-37 -1q-19 0 -86 9q-34 4 -60.5 6t-46.5 2
q-31 0 -81 -10v26l56 4q-17 205 -33 321q-8 58 -21.5 120.5t-31.5 131.5l-52 -4v25q84 3 158.5 11t140.5 21l110 22q-8 -46 -11.5 -86t-1.5 -75h-24l3 110l-228 -15q8 -113 12 -189.5t4 -118.5q142 6 226 35v-39q-51 -10 -107 -15.5t-119 -7.5q1 -25 1.5 -57t0.5 -71v-59
q0 -29 -1 -58l190 -6q87 0 112 20q24 19 24 60q0 69 -70 69q-10 0 -21 -12.5t-11 -29.5q0 -12 10 -19.5t19 -7.5q10 0 10 11q0 10 -10 16l4 6v0zM333 732q-28 -16 -44 -22q-10 19 -23.5 41t-31.5 47q-47 -77 -54 -93q-32 15 -43 24l16.5 16l29.5 27q37 31 54 54
q16 -26 96 -94z" />
    <glyph glyph-name="Edieresis" unicode="&#xcb;" horiz-adv-x="532" 
d="M431 130q22 -6 22 -18q0 -18 -9.5 -31.5t-25.5 -13.5q-17 0 -28.5 15t-11.5 33q0 29 25 54q26 26 45 26q43 0 67.5 -18t24.5 -52q0 -14 -5 -29.5t-13.5 -30.5t-19.5 -29t-23 -24q-12 -9 -23 -14.5t-24 -8.5t-29 -4t-37 -1q-19 0 -86 9q-34 4 -60.5 6t-46.5 2
q-31 0 -81 -10v26l56 4q-17 205 -33 321q-8 58 -21.5 120.5t-31.5 131.5l-52 -4v25q84 3 158.5 11t140.5 21l110 22q-8 -46 -11.5 -86t-1.5 -75h-24l3 110l-228 -15q8 -113 12 -189.5t4 -118.5q142 6 226 35v-39q-51 -10 -107 -15.5t-119 -7.5q1 -25 1.5 -57t0.5 -71v-59
q0 -29 -1 -58l190 -6q87 0 112 20q24 19 24 60q0 69 -70 69q-10 0 -21 -12.5t-11 -29.5q0 -12 10 -19.5t19 -7.5q10 0 10 11q0 10 -10 16l4 6v0zM165 770q10 0 18.5 -11.5t8.5 -23.5q0 -25 -38 -25q-10 0 -22 11.5t-12 21.5q0 13 13 20t32 7zM313 777q32 0 32 -19
q0 -23 -8 -32t-24 -9q-24 0 -24 35q0 14 5 19.5t19 5.5z" />
    <glyph glyph-name="Egrave" unicode="&#xc8;" horiz-adv-x="532" 
d="M431 130q22 -6 22 -18q0 -18 -9.5 -31.5t-25.5 -13.5q-17 0 -28.5 15t-11.5 33q0 29 25 54q26 26 45 26q43 0 67.5 -18t24.5 -52q0 -14 -5 -29.5t-13.5 -30.5t-19.5 -29t-23 -24q-12 -9 -23 -14.5t-24 -8.5t-29 -4t-37 -1q-19 0 -86 9q-34 4 -60.5 6t-46.5 2
q-31 0 -81 -10v26l56 4q-17 205 -33 321q-8 58 -21.5 120.5t-31.5 131.5l-52 -4v25q84 3 158.5 11t140.5 21l110 22q-8 -46 -11.5 -86t-1.5 -75h-24l3 110l-228 -15q8 -113 12 -189.5t4 -118.5q142 6 226 35v-39q-51 -10 -107 -15.5t-119 -7.5q1 -25 1.5 -57t0.5 -71v-59
q0 -29 -1 -58l190 -6q87 0 112 20q24 19 24 60q0 69 -70 69q-10 0 -21 -12.5t-11 -29.5q0 -12 10 -19.5t19 -7.5q10 0 10 11q0 10 -10 16l4 6v0zM334 721q-9 -13 -10 -17q-5 1 -47 26q-39 23 -67 33l-27.5 11t-31.5 14q3 1 11 19q8 20 9 22q97 -77 163 -108z" />
    <glyph glyph-name="Iacute" unicode="&#xcd;" horiz-adv-x="269" 
d="M255 -3q-26 2 -54 3.5t-57 1.5q-13 0 -37.5 -2.5t-62.5 -7.5v28l87 2q-17 126 -26.5 276.5t-10.5 327.5l-72 -2l1 23q45 -1 75.5 0.5t47.5 3.5t38 7t46 12l5 -25l-65 -13q-18 -230 -18 -399q0 -52 1.5 -104t3.5 -106h46t54 1zM233 804q-17 -8 -31.5 -14l-27.5 -11
t-28.5 -12.5t-34.5 -18.5q-18 -11 -30.5 -17.5l-20.5 -10.5q-1 4 -10 17q66 31 163 108q1 -2 9 -22q8 -18 11 -19z" />
    <glyph glyph-name="Icircumflex" unicode="&#xce;" horiz-adv-x="269" 
d="M255 -3q-26 2 -54 3.5t-57 1.5q-13 0 -37.5 -2.5t-62.5 -7.5v28l87 2q-17 126 -26.5 276.5t-10.5 327.5l-72 -2l1 23q45 -1 75.5 0.5t47.5 3.5t38 7t46 12l5 -25l-65 -13q-18 -230 -18 -399q0 -52 1.5 -104t3.5 -106h46t54 1zM225 736q-28 -16 -44 -22q-10 19 -23.5 41
t-31.5 47q-47 -77 -54 -93q-32 15 -43 24l16.5 16l29.5 27q37 31 54 54q16 -26 96 -94z" />
    <glyph glyph-name="Idieresis" unicode="&#xcf;" horiz-adv-x="269" 
d="M255 -3q-26 2 -54 3.5t-57 1.5q-13 0 -37.5 -2.5t-62.5 -7.5v28l87 2q-17 126 -26.5 276.5t-10.5 327.5l-72 -2l1 23q45 -1 75.5 0.5t47.5 3.5t38 7t46 12l5 -25l-65 -13q-18 -230 -18 -399q0 -52 1.5 -104t3.5 -106h46t54 1zM65 790q10 0 18.5 -11.5t8.5 -23.5
q0 -25 -38 -25q-10 0 -22 11.5t-12 21.5q0 13 13 20t32 7zM213 797q32 0 32 -19q0 -23 -8 -32t-24 -9q-24 0 -24 35q0 14 5 19.5t19 5.5z" />
    <glyph glyph-name="Igrave" unicode="&#xcc;" horiz-adv-x="269" 
d="M255 -3q-26 2 -54 3.5t-57 1.5q-13 0 -37.5 -2.5t-62.5 -7.5v28l87 2q-17 126 -26.5 276.5t-10.5 327.5l-72 -2l1 23q45 -1 75.5 0.5t47.5 3.5t38 7t46 12l5 -25l-65 -13q-18 -230 -18 -399q0 -52 1.5 -104t3.5 -106h46t54 1zM210 733q-9 -13 -10 -17q-5 1 -47 26
q-39 23 -67 33l-27.5 11t-31.5 14q3 1 11 19q8 20 9 22q97 -77 163 -108z" />
    <glyph glyph-name="Ntilde" unicode="&#xd1;" horiz-adv-x="774" 
d="M546 139q-6 231 -6 266q0 105 10 151q11 49 54 77q44 29 106 29q39 0 62.5 -15t23.5 -41q0 -20 -31 -42q-30 -21 -71 -21q-18 0 -41 14q-22 13 -22 26q0 17 9.5 26.5t25.5 9.5q12 0 20 -11q-14 -16 -14 -23q0 -28 33 -28q21 0 32 11t11 26q0 24 -19.5 36.5t-50.5 12.5
q-56 0 -86 -61q-30 -62 -30 -256q0 -95 5.5 -175.5t16.5 -148.5l-18 -3q-100 195 -178.5 333t-138.5 223q5 -59 8 -124.5t3 -139.5q0 -51 -1.5 -90t-5.5 -68q-6 -54 -32 -99q-25 -43 -81 -43q-57 0 -102 33t-45 81q0 34 35 66q35 31 77 31q21 0 37.5 -10.5t16.5 -27.5
q0 -21 -18.5 -36.5t-46.5 -15.5q-8 0 -13 5.5t-5 12.5q0 8 8 16q3 -2 10.5 -10.5t14.5 -8.5q21 0 21 22q0 13 -17 23.5t-34 10.5q-9 0 -17.5 -5.5t-15 -13.5t-10.5 -18.5t-4 -20.5q0 -41 21 -75q22 -34 55 -34q65 0 98.5 71.5t33.5 194.5q0 84 -12 194q-5 55 -10 90.5
t-9 52.5l-129 -5v22q63 0 114.5 3t92.5 10q57 -133 121.5 -259.5t137.5 -250.5zM563 815q-42 -73 -68 -90q-26 -15 -51 -15q-14 0 -25.5 7.5t-29.5 39.5q-17 33 -36 33q-21 0 -27 -66q-23 11 -35 8q19 47 39 62t50 15q19 0 43 -37q23 -32 44 -32q11 0 24.5 6.5t16.5 14.5
q2 5 4.5 20.5t6.5 42.5q18 0 44 -9z" />
    <glyph glyph-name="Oacute" unicode="&#xd3;" horiz-adv-x="689" 
d="M326 460q-8 -12 -20 -12q-8 0 -16 13t-8 22q0 11 14 24t29 13q16 0 32 -19q17 -20 17 -35q0 -18 -6.5 -34t-17 -28t-24 -19t-26.5 -7q-15 0 -29 7.5t-24.5 20.5t-17 29t-6.5 33q0 47 47 91t117 44q103 0 186 -87q83 -86 83 -188q0 -128 -90 -233q-89 -104 -206 -104
q-135 0 -230 89q-94 88 -94 211q0 118 76 215q77 98 187 125l6 -15q-89 -16 -145 -105q-54 -89 -54 -207q0 -125 73 -210q74 -86 189 -86q93 0 153 90q60 91 60 210q0 118 -58 194q-59 77 -150 77q-55 0 -95 -35q-38 -35 -38 -75q0 -22 18 -36.5t38 -14.5q25 0 42.5 12
t17.5 29q0 14 -10.5 23.5t-22.5 9.5q-28 0 -28 -9q0 -8 31 -23zM445 780q-17 -8 -31.5 -14l-27.5 -11t-28.5 -12.5t-34.5 -18.5q-18 -11 -30.5 -17.5l-20.5 -10.5q-1 4 -10 17q66 31 163 108q1 -2 9 -22q8 -18 11 -19z" />
    <glyph glyph-name="Ocircumflex" unicode="&#xd4;" horiz-adv-x="689" 
d="M326 460q-8 -12 -20 -12q-8 0 -16 13t-8 22q0 11 14 24t29 13q16 0 32 -19q17 -20 17 -35q0 -18 -6.5 -34t-17 -28t-24 -19t-26.5 -7q-15 0 -29 7.5t-24.5 20.5t-17 29t-6.5 33q0 47 47 91t117 44q103 0 186 -87q83 -86 83 -188q0 -128 -90 -233q-89 -104 -206 -104
q-135 0 -230 89q-94 88 -94 211q0 118 76 215q77 98 187 125l6 -15q-89 -16 -145 -105q-54 -89 -54 -207q0 -125 73 -210q74 -86 189 -86q93 0 153 90q60 91 60 210q0 118 -58 194q-59 77 -150 77q-55 0 -95 -35q-38 -35 -38 -75q0 -22 18 -36.5t38 -14.5q25 0 42.5 12
t17.5 29q0 14 -10.5 23.5t-22.5 9.5q-28 0 -28 -9q0 -8 31 -23zM453 708q-28 -16 -44 -22q-10 19 -23.5 41t-31.5 47q-47 -77 -54 -93q-32 15 -43 24l16.5 16l29.5 27q37 31 54 54q16 -26 96 -94z" />
    <glyph glyph-name="Odieresis" unicode="&#xd6;" horiz-adv-x="689" 
d="M326 460q-8 -12 -20 -12q-8 0 -16 13t-8 22q0 11 14 24t29 13q16 0 32 -19q17 -20 17 -35q0 -18 -6.5 -34t-17 -28t-24 -19t-26.5 -7q-15 0 -29 7.5t-24.5 20.5t-17 29t-6.5 33q0 47 47 91t117 44q103 0 186 -87q83 -86 83 -188q0 -128 -90 -233q-89 -104 -206 -104
q-135 0 -230 89q-94 88 -94 211q0 118 76 215q77 98 187 125l6 -15q-89 -16 -145 -105q-54 -89 -54 -207q0 -125 73 -210q74 -86 189 -86q93 0 153 90q60 91 60 210q0 118 -58 194q-59 77 -150 77q-55 0 -95 -35q-38 -35 -38 -75q0 -22 18 -36.5t38 -14.5q25 0 42.5 12
t17.5 29q0 14 -10.5 23.5t-22.5 9.5q-28 0 -28 -9q0 -8 31 -23zM293 758q10 0 18.5 -11.5t8.5 -23.5q0 -25 -38 -25q-10 0 -22 11.5t-12 21.5q0 13 13 20t32 7zM441 765q32 0 32 -19q0 -23 -8 -32t-24 -9q-24 0 -24 35q0 14 5 19.5t19 5.5z" />
    <glyph glyph-name="Ograve" unicode="&#xd2;" horiz-adv-x="689" 
d="M326 460q-8 -12 -20 -12q-8 0 -16 13t-8 22q0 11 14 24t29 13q16 0 32 -19q17 -20 17 -35q0 -18 -6.5 -34t-17 -28t-24 -19t-26.5 -7q-15 0 -29 7.5t-24.5 20.5t-17 29t-6.5 33q0 47 47 91t117 44q103 0 186 -87q83 -86 83 -188q0 -128 -90 -233q-89 -104 -206 -104
q-135 0 -230 89q-94 88 -94 211q0 118 76 215q77 98 187 125l6 -15q-89 -16 -145 -105q-54 -89 -54 -207q0 -125 73 -210q74 -86 189 -86q93 0 153 90q60 91 60 210q0 118 -58 194q-59 77 -150 77q-55 0 -95 -35q-38 -35 -38 -75q0 -22 18 -36.5t38 -14.5q25 0 42.5 12
t17.5 29q0 14 -10.5 23.5t-22.5 9.5q-28 0 -28 -9q0 -8 31 -23zM442 705q-9 -13 -10 -17q-5 1 -47 26q-39 23 -67 33l-27.5 11t-31.5 14q3 1 11 19q8 20 9 22q97 -77 163 -108z" />
    <glyph glyph-name="Otilde" unicode="&#xd5;" horiz-adv-x="689" 
d="M326 460q-8 -12 -20 -12q-8 0 -16 13t-8 22q0 11 14 24t29 13q16 0 32 -19q17 -20 17 -35q0 -18 -6.5 -34t-17 -28t-24 -19t-26.5 -7q-15 0 -29 7.5t-24.5 20.5t-17 29t-6.5 33q0 47 47 91t117 44q103 0 186 -87q83 -86 83 -188q0 -128 -90 -233q-89 -104 -206 -104
q-135 0 -230 89q-94 88 -94 211q0 118 76 215q77 98 187 125l6 -15q-89 -16 -145 -105q-54 -89 -54 -207q0 -125 73 -210q74 -86 189 -86q93 0 153 90q60 91 60 210q0 118 -58 194q-59 77 -150 77q-55 0 -95 -35q-38 -35 -38 -75q0 -22 18 -36.5t38 -14.5q25 0 42.5 12
t17.5 29q0 14 -10.5 23.5t-22.5 9.5q-28 0 -28 -9q0 -8 31 -23zM487 791q-42 -73 -68 -90q-26 -15 -51 -15q-14 0 -25.5 7.5t-29.5 39.5q-17 33 -36 33q-21 0 -27 -66q-23 11 -35 8q19 47 39 62t50 15q19 0 43 -37q23 -32 44 -32q11 0 24.5 6.5t16.5 14.5q2 5 4.5 20.5
t6.5 42.5q18 0 44 -9z" />
    <glyph glyph-name="Scaron" unicode="&#x160;" horiz-adv-x="481" 
d="M278 556q-12 6 -22 6q-14 0 -14 -31q0 -10 9.5 -19t21.5 -9q45 0 45 79q0 16 -7 30.5t-18.5 25t-26.5 16.5t-32 6q-45 0 -78 -34q-33 -35 -33 -76q0 -34 26 -69q24 -32 104 -76q39 -21 66.5 -37.5l44.5 -27.5q33 -22 56.5 -54t23.5 -74q0 -78 -71 -151q-71 -71 -157 -71
q-64 0 -110 48q-46 49 -46 113q0 51 45 92q45 42 93 42q45 0 72 -21t27 -57q0 -38 -31 -66q-30 -27 -69 -27q-17 0 -28 12t-11 27t11.5 24.5t28.5 9.5q14 0 20 -11q-26 -8 -26 -19q0 -27 25 -27q19 0 31.5 20.5t12.5 44.5q0 30 -20.5 51.5t-49.5 21.5q-39 0 -59.5 -35.5
t-20.5 -93.5q0 -53 33 -90q33 -38 81 -38q76 0 128 52q54 52 54 139q0 40 -23 67.5t-57 45.5q-35 18 -93 42q-30 12 -53.5 22.5t-42.5 21t-34 22.5t-27 27q-25 31 -25 77q0 62 55 105t130 43q48 0 81 -23.5t33 -60.5q0 -43 -22 -73t-59 -30q-28 0 -48.5 12.5t-20.5 33.5
q0 17 12.5 31.5t31.5 14.5q33 0 33 -24zM322 823q-12 -17 -46 -52q-17 -18 -28.5 -31.5t-17.5 -21.5q-18 30 -50 62l-26 26.5t-14 15.5l26 17q22 -16 39 -50q9 -17 15.5 -28t11.5 -18q14 15 24 30.5t17.5 29t11.5 24t6 14.5q1 -1 5.5 -3t10 -4t10 -5t5.5 -6z" />
    <glyph glyph-name="Uacute" unicode="&#xda;" horiz-adv-x="659" 
d="M463 508q0 -6 -7.5 -11t-13.5 -5q-9 0 -16.5 7.5t-7.5 15.5q0 11 10.5 23.5t22.5 12.5q19 0 36.5 -14t17.5 -30q0 -26 -22.5 -43t-49.5 -17q-29 0 -55 26q-24 25 -24 55q0 44 31 74q31 31 71 31q60 0 101 -83q41 -84 41 -217q0 -147 -68 -253q-68 -104 -187 -104
q-104 0 -181 80q-76 79 -76 188q0 26 1.5 49.5t3.5 44.5q4 43 18 132l17 113h-57v19q38 1 64.5 2t42.5 2q29 3 90 20v-24l-57 -13q-10 -28 -29 -106q-20 -80 -27 -133q-4 -27 -5.5 -58.5t-1.5 -68.5q0 -92 57 -159q57 -68 140 -68q108 0 168 95q61 94 61 239
q0 130 -29 196.5t-86 66.5q-29 0 -50 -23t-21 -53q0 -25 17 -41.5t36 -16.5q14 0 26 11t12 24q0 15 -9 30.5t-16 15.5q-14 0 -14 -12q0 -10 25 -20zM473 784q-17 -8 -31.5 -14l-27.5 -11t-28.5 -12.5t-34.5 -18.5q-18 -11 -30.5 -17.5l-20.5 -10.5q-1 4 -10 17
q66 31 163 108q1 -2 9 -22q8 -18 11 -19z" />
    <glyph glyph-name="Ucircumflex" unicode="&#xdb;" horiz-adv-x="659" 
d="M463 508q0 -6 -7.5 -11t-13.5 -5q-9 0 -16.5 7.5t-7.5 15.5q0 11 10.5 23.5t22.5 12.5q19 0 36.5 -14t17.5 -30q0 -26 -22.5 -43t-49.5 -17q-29 0 -55 26q-24 25 -24 55q0 44 31 74q31 31 71 31q60 0 101 -83q41 -84 41 -217q0 -147 -68 -253q-68 -104 -187 -104
q-104 0 -181 80q-76 79 -76 188q0 26 1.5 49.5t3.5 44.5q4 43 18 132l17 113h-57v19q38 1 64.5 2t42.5 2q29 3 90 20v-24l-57 -13q-10 -28 -29 -106q-20 -80 -27 -133q-4 -27 -5.5 -58.5t-1.5 -68.5q0 -92 57 -159q57 -68 140 -68q108 0 168 95q61 94 61 239
q0 130 -29 196.5t-86 66.5q-29 0 -50 -23t-21 -53q0 -25 17 -41.5t36 -16.5q14 0 26 11t12 24q0 15 -9 30.5t-16 15.5q-14 0 -14 -12q0 -10 25 -20zM449 720q-28 -16 -44 -22q-10 19 -23.5 41t-31.5 47q-47 -77 -54 -93q-32 15 -43 24l16.5 16l29.5 27q37 31 54 54
q16 -26 96 -94z" />
    <glyph glyph-name="Udieresis" unicode="&#xdc;" horiz-adv-x="659" 
d="M463 508q0 -6 -7.5 -11t-13.5 -5q-9 0 -16.5 7.5t-7.5 15.5q0 11 10.5 23.5t22.5 12.5q19 0 36.5 -14t17.5 -30q0 -26 -22.5 -43t-49.5 -17q-29 0 -55 26q-24 25 -24 55q0 44 31 74q31 31 71 31q60 0 101 -83q41 -84 41 -217q0 -147 -68 -253q-68 -104 -187 -104
q-104 0 -181 80q-76 79 -76 188q0 26 1.5 49.5t3.5 44.5q4 43 18 132l17 113h-57v19q38 1 64.5 2t42.5 2q29 3 90 20v-24l-57 -13q-10 -28 -29 -106q-20 -80 -27 -133q-4 -27 -5.5 -58.5t-1.5 -68.5q0 -92 57 -159q57 -68 140 -68q108 0 168 95q61 94 61 239
q0 130 -29 196.5t-86 66.5q-29 0 -50 -23t-21 -53q0 -25 17 -41.5t36 -16.5q14 0 26 11t12 24q0 15 -9 30.5t-16 15.5q-14 0 -14 -12q0 -10 25 -20zM301 758q10 0 18.5 -11.5t8.5 -23.5q0 -25 -38 -25q-10 0 -22 11.5t-12 21.5q0 13 13 20t32 7zM449 765q32 0 32 -19
q0 -23 -8 -32t-24 -9q-24 0 -24 35q0 14 5 19.5t19 5.5z" />
    <glyph glyph-name="Ugrave" unicode="&#xd9;" horiz-adv-x="659" 
d="M463 508q0 -6 -7.5 -11t-13.5 -5q-9 0 -16.5 7.5t-7.5 15.5q0 11 10.5 23.5t22.5 12.5q19 0 36.5 -14t17.5 -30q0 -26 -22.5 -43t-49.5 -17q-29 0 -55 26q-24 25 -24 55q0 44 31 74q31 31 71 31q60 0 101 -83q41 -84 41 -217q0 -147 -68 -253q-68 -104 -187 -104
q-104 0 -181 80q-76 79 -76 188q0 26 1.5 49.5t3.5 44.5q4 43 18 132l17 113h-57v19q38 1 64.5 2t42.5 2q29 3 90 20v-24l-57 -13q-10 -28 -29 -106q-20 -80 -27 -133q-4 -27 -5.5 -58.5t-1.5 -68.5q0 -92 57 -159q57 -68 140 -68q108 0 168 95q61 94 61 239
q0 130 -29 196.5t-86 66.5q-29 0 -50 -23t-21 -53q0 -25 17 -41.5t36 -16.5q14 0 26 11t12 24q0 15 -9 30.5t-16 15.5q-14 0 -14 -12q0 -10 25 -20zM438 701q-9 -13 -10 -17q-5 1 -47 26q-39 23 -67 33l-27.5 11t-31.5 14q3 1 11 19q8 20 9 22q97 -77 163 -108z" />
    <glyph glyph-name="Yacute" unicode="&#xdd;" horiz-adv-x="728" 
d="M749 589l-72 9l-56 -95l-81 -155l-87 -169l-35 -57.5t-37 -55.5q-22 -31 -38 -48.5t-35 -32.5t-41 -25t-43 -10q-60 0 -91 27t-31 75q0 32 30 64q32 32 67 32q47 0 62 -14.5t15 -44.5q0 -16 -24 -35q-24 -18 -37 -18q-14 0 -23.5 9t-9.5 24q24 -7 37 -7q15 0 27 8.5
t12 16.5q0 26 -35 26q-42 0 -70 -13.5t-28 -32.5q0 -26 31 -43.5t82 -17.5q27 0 55 15t54 42.5t51 66t46 85.5q-66 63 -137 246q-33 82 -78 129t-91 47q-35 0 -63 -24q-29 -23 -29 -59q0 -33 19.5 -50.5t51.5 -17.5q29 0 46.5 13.5t17.5 34.5q0 26 -37 26q-21 0 -21 -21
q0 -10 6 -23q-15 0 -24 9.5t-9 19.5q0 19 15.5 35.5t40.5 16.5q20 0 32.5 -21t12.5 -50q0 -26 -21 -54t-49 -28q-35 0 -69 32q-33 31 -33 67q0 57 43 99t108 42q25 0 61 -19t70 -70t78 -183q51 -160 73 -176l130 264.5t54 102.5q-10 2 -27.5 4.5l-43.5 6.5l8 25
q40 -14 174 -27zM537 788q-17 -8 -31.5 -14l-27.5 -11t-28.5 -12.5t-34.5 -18.5q-18 -11 -30.5 -17.5l-20.5 -10.5q-1 4 -10 17q66 31 163 108q1 -2 9 -22q8 -18 11 -19z" />
    <glyph glyph-name="Ydieresis" unicode="&#x178;" horiz-adv-x="728" 
d="M749 589l-72 9l-56 -95l-81 -155l-87 -169l-35 -57.5t-37 -55.5q-22 -31 -38 -48.5t-35 -32.5t-41 -25t-43 -10q-60 0 -91 27t-31 75q0 32 30 64q32 32 67 32q47 0 62 -14.5t15 -44.5q0 -16 -24 -35q-24 -18 -37 -18q-14 0 -23.5 9t-9.5 24q24 -7 37 -7q15 0 27 8.5
t12 16.5q0 26 -35 26q-42 0 -70 -13.5t-28 -32.5q0 -26 31 -43.5t82 -17.5q27 0 55 15t54 42.5t51 66t46 85.5q-66 63 -137 246q-33 82 -78 129t-91 47q-35 0 -63 -24q-29 -23 -29 -59q0 -33 19.5 -50.5t51.5 -17.5q29 0 46.5 13.5t17.5 34.5q0 26 -37 26q-21 0 -21 -21
q0 -10 6 -23q-15 0 -24 9.5t-9 19.5q0 19 15.5 35.5t40.5 16.5q20 0 32.5 -21t12.5 -50q0 -26 -21 -54t-49 -28q-35 0 -69 32q-33 31 -33 67q0 57 43 99t108 42q25 0 61 -19t70 -70t78 -183q51 -160 73 -176l130 264.5t54 102.5q-10 2 -27.5 4.5l-43.5 6.5l8 25
q40 -14 174 -27zM353 778q10 0 18.5 -11.5t8.5 -23.5q0 -25 -38 -25q-10 0 -22 11.5t-12 21.5q0 13 13 20t32 7zM501 785q32 0 32 -19q0 -23 -8 -32t-24 -9q-24 0 -24 35q0 14 5 19.5t19 5.5z" />
    <glyph glyph-name="Zcaron" unicode="&#x17d;" horiz-adv-x="547" 
d="M446 175q18 0 18 -24q0 -11 -15.5 -20t-30.5 -9q-19 0 -35 19q-15 19 -15 29q0 31 26 57q28 26 53 26q24 0 50 -24t26 -65q0 -56 -51 -108t-127 -52q-11 0 -34.5 2t-61.5 6q-37 4 -66 6t-51 2q-75 0 -101 -14l-6 12q170 199 241 322q35 63 69.5 134.5t68.5 155.5
q-114 -53 -277 -53q-4 -34 -8 -62.5t-9 -51.5l-29 3q23 84 23 122q0 17 -2 40.5t-6 53.5q3 2 22 3l9 -56q17 -1 32 -1h29q51 0 95.5 4t78.5 10.5t56 15t30 17.5q6 -9 34 -32l-46 -93.5l-52 -98.5q-28 -50 -53.5 -89.5t-50.5 -70.5l-54.5 -67.5l-68.5 -80.5l-58 -68.5
t-26 -31.5q25 13 71 20q48 9 82 9q19 0 84 -14q62 -13 106 -13q30 0 52 31q24 31 24 66q0 24 -19 49q-20 26 -40 26q-24 0 -37 -12t-13 -24q0 -35 39 -35q7 0 15.5 10t8.5 19zM370 807q-12 -17 -46 -52q-17 -18 -28.5 -31.5t-17.5 -21.5q-18 30 -50 62l-26 26.5t-14 15.5
l26 17q22 -16 39 -50q9 -17 15.5 -28t11.5 -18q14 15 24 30.5t17.5 29t11.5 24t6 14.5q1 -1 5.5 -3t10 -4t10 -5t5.5 -6z" />
    <glyph glyph-name="aacute" unicode="&#xe1;" horiz-adv-x="361" 
d="M225 147q-42 -2 -66.5 -6.5t-40.5 -23.5q-15 -18 -15 -39q0 -19 10.5 -32t27.5 -13q29 0 67 38l17 76v0zM160 320q-3 -20 -23 -20q-11 0 -17.5 7.5t-6.5 19.5q0 14 12.5 26.5t26.5 12.5q66 0 66 -38q0 -32 -34 -59q-35 -26 -58 -26q-29 0 -49 16.5t-20 43.5q0 56 53 115
q54 59 111 59q24 0 44.5 -11t35.5 -29.5t23.5 -44.5t8.5 -56q0 -43 -12 -73q-13 -32 -36 -71q-63 -104 -63 -190v-10t1 -10h-20l1 65q-61 -40 -88 -40q-33 0 -54.5 20t-21.5 53q0 31 32 54q31 24 71 24q27 0 89 6q36 79 36 140q0 142 -65 142q-60 0 -85.5 -38.5
t-25.5 -105.5q0 -19 11 -32t27 -13q10 0 20 5t18 13.5t13 19t5 21.5q0 12 -11 21t-25 9q-6 0 -10.5 -6t-4.5 -12q0 -12 10 -12q8 0 15 4zM317 620q-17 -8 -31.5 -14l-27.5 -11t-28.5 -12.5t-34.5 -18.5q-18 -11 -30.5 -17.5l-20.5 -10.5q-1 4 -10 17q66 31 163 108
q1 -2 9 -22q8 -18 11 -19z" />
    <glyph glyph-name="acircumflex" unicode="&#xe2;" horiz-adv-x="361" 
d="M225 147q-42 -2 -66.5 -6.5t-40.5 -23.5q-15 -18 -15 -39q0 -19 10.5 -32t27.5 -13q29 0 67 38l17 76v0zM160 320q-3 -20 -23 -20q-11 0 -17.5 7.5t-6.5 19.5q0 14 12.5 26.5t26.5 12.5q66 0 66 -38q0 -32 -34 -59q-35 -26 -58 -26q-29 0 -49 16.5t-20 43.5q0 56 53 115
q54 59 111 59q24 0 44.5 -11t35.5 -29.5t23.5 -44.5t8.5 -56q0 -43 -12 -73q-13 -32 -36 -71q-63 -104 -63 -190v-10t1 -10h-20l1 65q-61 -40 -88 -40q-33 0 -54.5 20t-21.5 53q0 31 32 54q31 24 71 24q27 0 89 6q36 79 36 140q0 142 -65 142q-60 0 -85.5 -38.5
t-25.5 -105.5q0 -19 11 -32t27 -13q10 0 20 5t18 13.5t13 19t5 21.5q0 12 -11 21t-25 9q-6 0 -10.5 -6t-4.5 -12q0 -12 10 -12q8 0 15 4zM321 548q-28 -16 -44 -22q-10 19 -23.5 41t-31.5 47q-47 -77 -54 -93q-32 15 -43 24l16.5 16l29.5 27q37 31 54 54q16 -26 96 -94z" />
    <glyph glyph-name="adieresis" unicode="&#xe4;" horiz-adv-x="361" 
d="M225 147q-42 -2 -66.5 -6.5t-40.5 -23.5q-15 -18 -15 -39q0 -19 10.5 -32t27.5 -13q29 0 67 38l17 76v0zM160 320q-3 -20 -23 -20q-11 0 -17.5 7.5t-6.5 19.5q0 14 12.5 26.5t26.5 12.5q66 0 66 -38q0 -32 -34 -59q-35 -26 -58 -26q-29 0 -49 16.5t-20 43.5q0 56 53 115
q54 59 111 59q24 0 44.5 -11t35.5 -29.5t23.5 -44.5t8.5 -56q0 -43 -12 -73q-13 -32 -36 -71q-63 -104 -63 -190v-10t1 -10h-20l1 65q-61 -40 -88 -40q-33 0 -54.5 20t-21.5 53q0 31 32 54q31 24 71 24q27 0 89 6q36 79 36 140q0 142 -65 142q-60 0 -85.5 -38.5
t-25.5 -105.5q0 -19 11 -32t27 -13q10 0 20 5t18 13.5t13 19t5 21.5q0 12 -11 21t-25 9q-6 0 -10.5 -6t-4.5 -12q0 -12 10 -12q8 0 15 4zM141 594q10 0 18.5 -11.5t8.5 -23.5q0 -25 -38 -25q-10 0 -22 11.5t-12 21.5q0 13 13 20t32 7zM289 601q32 0 32 -19q0 -23 -8 -32
t-24 -9q-24 0 -24 35q0 14 5 19.5t19 5.5z" />
    <glyph glyph-name="agrave" unicode="&#xe0;" horiz-adv-x="361" 
d="M225 147q-42 -2 -66.5 -6.5t-40.5 -23.5q-15 -18 -15 -39q0 -19 10.5 -32t27.5 -13q29 0 67 38l17 76v0zM160 320q-3 -20 -23 -20q-11 0 -17.5 7.5t-6.5 19.5q0 14 12.5 26.5t26.5 12.5q66 0 66 -38q0 -32 -34 -59q-35 -26 -58 -26q-29 0 -49 16.5t-20 43.5q0 56 53 115
q54 59 111 59q24 0 44.5 -11t35.5 -29.5t23.5 -44.5t8.5 -56q0 -43 -12 -73q-13 -32 -36 -71q-63 -104 -63 -190v-10t1 -10h-20l1 65q-61 -40 -88 -40q-33 0 -54.5 20t-21.5 53q0 31 32 54q31 24 71 24q27 0 89 6q36 79 36 140q0 142 -65 142q-60 0 -85.5 -38.5
t-25.5 -105.5q0 -19 11 -32t27 -13q10 0 20 5t18 13.5t13 19t5 21.5q0 12 -11 21t-25 9q-6 0 -10.5 -6t-4.5 -12q0 -12 10 -12q8 0 15 4zM314 557q-9 -13 -10 -17q-5 1 -47 26q-39 23 -67 33l-27.5 11t-31.5 14q3 1 11 19q8 20 9 22q97 -77 163 -108z" />
    <glyph glyph-name="aring" unicode="&#xe5;" horiz-adv-x="361" 
d="M225 147q-42 -2 -66.5 -6.5t-40.5 -23.5q-15 -18 -15 -39q0 -19 10.5 -32t27.5 -13q29 0 67 38l17 76v0zM160 320q-3 -20 -23 -20q-11 0 -17.5 7.5t-6.5 19.5q0 14 12.5 26.5t26.5 12.5q66 0 66 -38q0 -32 -34 -59q-35 -26 -58 -26q-29 0 -49 16.5t-20 43.5q0 56 53 115
q54 59 111 59q24 0 44.5 -11t35.5 -29.5t23.5 -44.5t8.5 -56q0 -43 -12 -73q-13 -32 -36 -71q-63 -104 -63 -190v-10t1 -10h-20l1 65q-61 -40 -88 -40q-33 0 -54.5 20t-21.5 53q0 31 32 54q31 24 71 24q27 0 89 6q36 79 36 140q0 142 -65 142q-60 0 -85.5 -38.5
t-25.5 -105.5q0 -19 11 -32t27 -13q10 0 20 5t18 13.5t13 19t5 21.5q0 12 -11 21t-25 9q-6 0 -10.5 -6t-4.5 -12q0 -12 10 -12q8 0 15 4zM214 568q24 0 40.5 12.5t16.5 32.5q0 75 -42 75q-25 0 -47 -24q-21 -23 -21 -43q0 -26 14.5 -39.5t38.5 -13.5zM212 713q31 0 61 -24
t30 -56q0 -39 -28 -71q-27 -33 -52 -33q-28 0 -58 30q-29 32 -29 62q0 40 21.5 66t54.5 26z" />
    <glyph glyph-name="atilde" unicode="&#xe3;" horiz-adv-x="361" 
d="M225 147q-42 -2 -66.5 -6.5t-40.5 -23.5q-15 -18 -15 -39q0 -19 10.5 -32t27.5 -13q29 0 67 38l17 76v0zM160 320q-3 -20 -23 -20q-11 0 -17.5 7.5t-6.5 19.5q0 14 12.5 26.5t26.5 12.5q66 0 66 -38q0 -32 -34 -59q-35 -26 -58 -26q-29 0 -49 16.5t-20 43.5q0 56 53 115
q54 59 111 59q24 0 44.5 -11t35.5 -29.5t23.5 -44.5t8.5 -56q0 -43 -12 -73q-13 -32 -36 -71q-63 -104 -63 -190v-10t1 -10h-20l1 65q-61 -40 -88 -40q-33 0 -54.5 20t-21.5 53q0 31 32 54q31 24 71 24q27 0 89 6q36 79 36 140q0 142 -65 142q-60 0 -85.5 -38.5
t-25.5 -105.5q0 -19 11 -32t27 -13q10 0 20 5t18 13.5t13 19t5 21.5q0 12 -11 21t-25 9q-6 0 -10.5 -6t-4.5 -12q0 -12 10 -12q8 0 15 4zM339 639q-42 -73 -68 -90q-26 -15 -51 -15q-14 0 -25.5 7.5t-29.5 39.5q-17 33 -36 33q-21 0 -27 -66q-23 11 -35 8q19 47 39 62t50 15
q19 0 43 -37q23 -32 44 -32q11 0 24.5 6.5t16.5 14.5q2 5 4.5 20.5t6.5 42.5q18 0 44 -9z" />
    <glyph glyph-name="ccedilla" unicode="&#xe7;" horiz-adv-x="407" 
d="M219 11q-80 8 -130 79t-50 159q0 87 68 157q69 70 156 70q41 0 81 -25q42 -26 42 -60q0 -29 -28 -56q-27 -27 -58 -27q-28 0 -50 15t-22 39q0 22 14 34.5t39 12.5q14 0 25.5 -7t11.5 -18q0 -7 -9 -14t-17 -7h-6q5 18 5 21q0 12 -15 12q-9 0 -15.5 -10.5t-6.5 -20.5
q0 -39 36 -39q24 0 39.5 18t15.5 43q0 15 -7 28.5t-18.5 23t-26.5 15.5t-31 6q-66 0 -111 -69q-44 -70 -44 -146q0 -86 34 -153t92 -67q44 0 66 37l21 -38q-46 -13 -75 -14q-4 -8 -10.5 -23t-11.5 -23q27 2 56 -15t29 -42q0 -19 -27 -35q-26 -18 -49 -18q-6 0 -14.5 2
t-16.5 5t-14 5.5t-8 2.5q6 10 9 23q16 -16 45 -16q34 0 34 27q0 20 -18 33.5t-46 12.5q11 27 16 62z" />
    <glyph glyph-name="eacute" unicode="&#xe9;" horiz-adv-x="421" 
d="M292 105q23 0 23 -22q0 -14 -12.5 -24t-23.5 -10q-14 0 -29 13.5t-15 33.5q0 28 18 44t45 16q32 0 53.5 -23t21.5 -58q0 -41 -37 -66q-36 -24 -79 -24q-79 0 -147 65q-68 66 -68 160q0 88 66 160q66 73 140 73q57 0 103 -37q48 -38 48 -77q0 -25 -11 -46t-30 -36
t-45.5 -23t-56.5 -8q-60 0 -92 16.5t-32 46.5q0 27 20 44t42 17q19 0 35 -10t16 -24t-11 -27t-21 -13q-20 0 -20 14q23 6 23 22q0 12 -9 19t-21 7q-9 0 -16.5 -14.5t-7.5 -29.5q0 -21 30.5 -36.5t73.5 -15.5q37 0 57.5 22.5t20.5 60.5q0 39 -30 75q-28 37 -73 37
q-55 0 -92 -61q-38 -62 -38 -165q0 -87 43 -142q44 -56 108 -56q30 0 59 20q30 21 30 53q0 22 -21 37t-46 15q-13 0 -23 -9t-10 -21q0 -21 25 -21q7 0 11.5 9t4.5 19zM361 588q-17 -8 -31.5 -14l-27.5 -11t-28.5 -12.5t-34.5 -18.5q-18 -11 -30.5 -17.5l-20.5 -10.5
q-1 4 -10 17q66 31 163 108q1 -2 9 -22q8 -18 11 -19z" />
    <glyph glyph-name="ecircumflex" unicode="&#xea;" horiz-adv-x="421" 
d="M292 105q23 0 23 -22q0 -14 -12.5 -24t-23.5 -10q-14 0 -29 13.5t-15 33.5q0 28 18 44t45 16q32 0 53.5 -23t21.5 -58q0 -41 -37 -66q-36 -24 -79 -24q-79 0 -147 65q-68 66 -68 160q0 88 66 160q66 73 140 73q57 0 103 -37q48 -38 48 -77q0 -25 -11 -46t-30 -36
t-45.5 -23t-56.5 -8q-60 0 -92 16.5t-32 46.5q0 27 20 44t42 17q19 0 35 -10t16 -24t-11 -27t-21 -13q-20 0 -20 14q23 6 23 22q0 12 -9 19t-21 7q-9 0 -16.5 -14.5t-7.5 -29.5q0 -21 30.5 -36.5t73.5 -15.5q37 0 57.5 22.5t20.5 60.5q0 39 -30 75q-28 37 -73 37
q-55 0 -92 -61q-38 -62 -38 -165q0 -87 43 -142q44 -56 108 -56q30 0 59 20q30 21 30 53q0 22 -21 37t-46 15q-13 0 -23 -9t-10 -21q0 -21 25 -21q7 0 11.5 9t4.5 19zM355 540q-28 -16 -44 -22q-10 19 -23.5 41t-31.5 47q-47 -77 -54 -93q-32 15 -43 24l16.5 16l29.5 27
q37 31 54 54q16 -26 96 -94z" />
    <glyph glyph-name="edieresis" unicode="&#xeb;" horiz-adv-x="421" 
d="M292 105q23 0 23 -22q0 -14 -12.5 -24t-23.5 -10q-14 0 -29 13.5t-15 33.5q0 28 18 44t45 16q32 0 53.5 -23t21.5 -58q0 -41 -37 -66q-36 -24 -79 -24q-79 0 -147 65q-68 66 -68 160q0 88 66 160q66 73 140 73q57 0 103 -37q48 -38 48 -77q0 -25 -11 -46t-30 -36
t-45.5 -23t-56.5 -8q-60 0 -92 16.5t-32 46.5q0 27 20 44t42 17q19 0 35 -10t16 -24t-11 -27t-21 -13q-20 0 -20 14q23 6 23 22q0 12 -9 19t-21 7q-9 0 -16.5 -14.5t-7.5 -29.5q0 -21 30.5 -36.5t73.5 -15.5q37 0 57.5 22.5t20.5 60.5q0 39 -30 75q-28 37 -73 37
q-55 0 -92 -61q-38 -62 -38 -165q0 -87 43 -142q44 -56 108 -56q30 0 59 20q30 21 30 53q0 22 -21 37t-46 15q-13 0 -23 -9t-10 -21q0 -21 25 -21q7 0 11.5 9t4.5 19zM185 568q10 0 18.5 -11.5t8.5 -23.5q0 -25 -38 -25q-10 0 -22 11.5t-12 21.5q0 13 13 20t32 7zM333 575
q32 0 32 -19q0 -23 -8 -32t-24 -9q-24 0 -24 35q0 14 5 19.5t19 5.5z" />
    <glyph glyph-name="egrave" unicode="&#xe8;" horiz-adv-x="421" 
d="M292 105q23 0 23 -22q0 -14 -12.5 -24t-23.5 -10q-14 0 -29 13.5t-15 33.5q0 28 18 44t45 16q32 0 53.5 -23t21.5 -58q0 -41 -37 -66q-36 -24 -79 -24q-79 0 -147 65q-68 66 -68 160q0 88 66 160q66 73 140 73q57 0 103 -37q48 -38 48 -77q0 -25 -11 -46t-30 -36
t-45.5 -23t-56.5 -8q-60 0 -92 16.5t-32 46.5q0 27 20 44t42 17q19 0 35 -10t16 -24t-11 -27t-21 -13q-20 0 -20 14q23 6 23 22q0 12 -9 19t-21 7q-9 0 -16.5 -14.5t-7.5 -29.5q0 -21 30.5 -36.5t73.5 -15.5q37 0 57.5 22.5t20.5 60.5q0 39 -30 75q-28 37 -73 37
q-55 0 -92 -61q-38 -62 -38 -165q0 -87 43 -142q44 -56 108 -56q30 0 59 20q30 21 30 53q0 22 -21 37t-46 15q-13 0 -23 -9t-10 -21q0 -21 25 -21q7 0 11.5 9t4.5 19zM354 525q-9 -13 -10 -17q-5 1 -47 26q-39 23 -67 33l-27.5 11t-31.5 14q3 1 11 19q8 20 9 22
q97 -77 163 -108z" />
    <glyph glyph-name="iacute" unicode="&#xed;" horiz-adv-x="223" 
d="M223 -11q-57 0 -92 -1t-49 -3t-25.5 -4l-22.5 -4v27l63 2q0 106 -5.5 207t-16.5 198l-54 2v18q25 -1 42 -1h28q34 0 93 18v-22l-44 -11l-10 -157l-12 -248q55 0 105 6v-27v0zM197 588q-17 -8 -31.5 -14l-27.5 -11t-28.5 -12.5t-34.5 -18.5q-18 -11 -30.5 -17.5
l-20.5 -10.5q-1 4 -10 17q66 31 163 108q1 -2 9 -22q8 -18 11 -19z" />
    <glyph glyph-name="icircumflex" unicode="&#xee;" horiz-adv-x="223" 
d="M223 -11q-57 0 -92 -1t-49 -3t-25.5 -4l-22.5 -4v27l63 2q0 106 -5.5 207t-16.5 198l-54 2v18q25 -1 42 -1h28q34 0 93 18v-22l-44 -11l-10 -157l-12 -248q55 0 105 6v-27v0zM205 540q-28 -16 -44 -22q-10 19 -23.5 41t-31.5 47q-47 -77 -54 -93q-32 15 -43 24l16.5 16
l29.5 27q37 31 54 54q16 -26 96 -94z" />
    <glyph glyph-name="idieresis" unicode="&#xef;" horiz-adv-x="223" 
d="M223 -11q-57 0 -92 -1t-49 -3t-25.5 -4l-22.5 -4v27l63 2q0 106 -5.5 207t-16.5 198l-54 2v18q25 -1 42 -1h28q34 0 93 18v-22l-44 -11l-10 -157l-12 -248q55 0 105 6v-27v0zM47 598q10 0 18.5 -11.5t8.5 -23.5q0 -25 -38 -25q-10 0 -22 11.5t-12 21.5q0 13 13 20t32 7z
M195 605q32 0 32 -19q0 -23 -8 -32t-24 -9q-24 0 -24 35q0 14 5 19.5t19 5.5z" />
    <glyph glyph-name="igrave" unicode="&#xec;" horiz-adv-x="223" 
d="M223 -11q-57 0 -92 -1t-49 -3t-25.5 -4l-22.5 -4v27l63 2q0 106 -5.5 207t-16.5 198l-54 2v18q25 -1 42 -1h28q34 0 93 18v-22l-44 -11l-10 -157l-12 -248q55 0 105 6v-27v0zM195 521q-9 -13 -10 -17q-5 1 -47 26q-39 23 -67 33l-27.5 11t-31.5 14q3 1 11 19q8 20 9 22
q97 -77 163 -108z" />
    <glyph glyph-name="ntilde" unicode="&#xf1;" horiz-adv-x="517" 
d="M133 304q53 146 154 146q73 0 131 -61t58 -144q0 -90 -54 -174q-53 -83 -113 -83q-25 0 -51 23q-24 22 -24 48q0 10 6 20t15 17t20.5 11.5t22.5 4.5q51 0 51 -32q0 -30 -37 -30q-17 0 -20 7l4 5q8 -2 11 -2q10 0 10 18q0 20 -19 20q-10 0 -18.5 -15.5t-8.5 -30.5
q0 -47 42 -47q95 0 95 254q0 62 -37 115q-38 54 -86 54q-21 0 -40 -8.5t-35.5 -23.5t-30 -35t-23.5 -42q-19 -42 -19 -49l-19 -257l53 13l6 -22q-51 -13 -77 -13q-24 0 -70 3l4 22l65 -5q1 10 1 21v25q0 202 -37 378l-55 -9l-6 18q34 4 69 15t71 28l-9 -183v0zM411 667
q-42 -73 -68 -90q-26 -15 -51 -15q-14 0 -25.5 7.5t-29.5 39.5q-17 33 -36 33q-21 0 -27 -66q-23 11 -35 8q19 47 39 62t50 15q19 0 43 -37q23 -32 44 -32q11 0 24.5 6.5t16.5 14.5q2 5 4.5 20.5t6.5 42.5q18 0 44 -9z" />
    <glyph glyph-name="oacute" unicode="&#xf3;" 
d="M252 328q-8 -11 -17 -11q-6 0 -11.5 6t-5.5 16q0 12 10.5 19.5t23.5 7.5q14 0 26.5 -12t12.5 -25q0 -31 -17.5 -49.5t-45.5 -18.5q-20 0 -34.5 21t-14.5 51q0 36 31 64q31 30 63 30q66 0 120 -59q55 -58 55 -132q0 -92 -63 -165q-61 -73 -134 -73q-83 0 -147 66
q-65 67 -65 156q0 76 60 144q60 69 141 87l6 -12q-63 -11 -103 -72q-41 -62 -41 -133q0 -98 41 -160q40 -61 107 -61q51 0 93 62q43 61 43 145q0 80 -37 133q-38 54 -90 54q-29 0 -48 -22.5t-19 -49.5q0 -17 13 -29.5t25 -12.5q8 0 16.5 3.5t15 8.5t11 11t4.5 12
q0 24 -27 24q-11 0 -11 -12q0 -6 13 -12zM333 592q-17 -8 -31.5 -14l-27.5 -11t-28.5 -12.5t-34.5 -18.5q-18 -11 -30.5 -17.5l-20.5 -10.5q-1 4 -10 17q66 31 163 108q1 -2 9 -22q8 -18 11 -19z" />
    <glyph glyph-name="ocircumflex" unicode="&#xf4;" 
d="M252 328q-8 -11 -17 -11q-6 0 -11.5 6t-5.5 16q0 12 10.5 19.5t23.5 7.5q14 0 26.5 -12t12.5 -25q0 -31 -17.5 -49.5t-45.5 -18.5q-20 0 -34.5 21t-14.5 51q0 36 31 64q31 30 63 30q66 0 120 -59q55 -58 55 -132q0 -92 -63 -165q-61 -73 -134 -73q-83 0 -147 66
q-65 67 -65 156q0 76 60 144q60 69 141 87l6 -12q-63 -11 -103 -72q-41 -62 -41 -133q0 -98 41 -160q40 -61 107 -61q51 0 93 62q43 61 43 145q0 80 -37 133q-38 54 -90 54q-29 0 -48 -22.5t-19 -49.5q0 -17 13 -29.5t25 -12.5q8 0 16.5 3.5t15 8.5t11 11t4.5 12
q0 24 -27 24q-11 0 -11 -12q0 -6 13 -12zM349 540q-28 -16 -44 -22q-10 19 -23.5 41t-31.5 47q-47 -77 -54 -93q-32 15 -43 24l16.5 16l29.5 27q37 31 54 54q16 -26 96 -94z" />
    <glyph glyph-name="odieresis" unicode="&#xf6;" 
d="M252 328q-8 -11 -17 -11q-6 0 -11.5 6t-5.5 16q0 12 10.5 19.5t23.5 7.5q14 0 26.5 -12t12.5 -25q0 -31 -17.5 -49.5t-45.5 -18.5q-20 0 -34.5 21t-14.5 51q0 36 31 64q31 30 63 30q66 0 120 -59q55 -58 55 -132q0 -92 -63 -165q-61 -73 -134 -73q-83 0 -147 66
q-65 67 -65 156q0 76 60 144q60 69 141 87l6 -12q-63 -11 -103 -72q-41 -62 -41 -133q0 -98 41 -160q40 -61 107 -61q51 0 93 62q43 61 43 145q0 80 -37 133q-38 54 -90 54q-29 0 -48 -22.5t-19 -49.5q0 -17 13 -29.5t25 -12.5q8 0 16.5 3.5t15 8.5t11 11t4.5 12
q0 24 -27 24q-11 0 -11 -12q0 -6 13 -12zM181 588q10 0 18.5 -11.5t8.5 -23.5q0 -25 -38 -25q-10 0 -22 11.5t-12 21.5q0 13 13 20t32 7zM329 595q32 0 32 -19q0 -23 -8 -32t-24 -9q-24 0 -24 35q0 14 5 19.5t19 5.5z" />
    <glyph glyph-name="ograve" unicode="&#xf2;" 
d="M252 328q-8 -11 -17 -11q-6 0 -11.5 6t-5.5 16q0 12 10.5 19.5t23.5 7.5q14 0 26.5 -12t12.5 -25q0 -31 -17.5 -49.5t-45.5 -18.5q-20 0 -34.5 21t-14.5 51q0 36 31 64q31 30 63 30q66 0 120 -59q55 -58 55 -132q0 -92 -63 -165q-61 -73 -134 -73q-83 0 -147 66
q-65 67 -65 156q0 76 60 144q60 69 141 87l6 -12q-63 -11 -103 -72q-41 -62 -41 -133q0 -98 41 -160q40 -61 107 -61q51 0 93 62q43 61 43 145q0 80 -37 133q-38 54 -90 54q-29 0 -48 -22.5t-19 -49.5q0 -17 13 -29.5t25 -12.5q8 0 16.5 3.5t15 8.5t11 11t4.5 12
q0 24 -27 24q-11 0 -11 -12q0 -6 13 -12zM350 537q-9 -13 -10 -17q-5 1 -47 26q-39 23 -67 33l-27.5 11t-31.5 14q3 1 11 19q8 20 9 22q97 -77 163 -108z" />
    <glyph glyph-name="otilde" unicode="&#xf5;" 
d="M252 328q-8 -11 -17 -11q-6 0 -11.5 6t-5.5 16q0 12 10.5 19.5t23.5 7.5q14 0 26.5 -12t12.5 -25q0 -31 -17.5 -49.5t-45.5 -18.5q-20 0 -34.5 21t-14.5 51q0 36 31 64q31 30 63 30q66 0 120 -59q55 -58 55 -132q0 -92 -63 -165q-61 -73 -134 -73q-83 0 -147 66
q-65 67 -65 156q0 76 60 144q60 69 141 87l6 -12q-63 -11 -103 -72q-41 -62 -41 -133q0 -98 41 -160q40 -61 107 -61q51 0 93 62q43 61 43 145q0 80 -37 133q-38 54 -90 54q-29 0 -48 -22.5t-19 -49.5q0 -17 13 -29.5t25 -12.5q8 0 16.5 3.5t15 8.5t11 11t4.5 12
q0 24 -27 24q-11 0 -11 -12q0 -6 13 -12zM383 607q-42 -73 -68 -90q-26 -15 -51 -15q-14 0 -25.5 7.5t-29.5 39.5q-17 33 -36 33q-21 0 -27 -66q-23 11 -35 8q19 47 39 62t50 15q19 0 43 -37q23 -32 44 -32q11 0 24.5 6.5t16.5 14.5q2 5 4.5 20.5t6.5 42.5q18 0 44 -9z" />
    <glyph glyph-name="scaron" unicode="&#x161;" horiz-adv-x="307" 
d="M142 67q-22 20 -36 20q-4 0 -9.5 -4t-10.5 -9t-8.5 -11t-3.5 -10q0 -12 7.5 -24t20.5 -21t31.5 -15t39.5 -6t43 25q24 25 24 55q0 25 -19 53q-19 29 -106 99q-18 15 -30.5 27t-21 23.5t-14 22.5t-9.5 23q-8 27 -8 52q0 46 38 87q37 40 93 40q21 0 40.5 -5.5t34.5 -15
t24 -24t9 -32.5q0 -15 -6 -29.5t-16 -25.5t-23 -18t-28 -7q-12 0 -21.5 6.5t-17 16.5t-11.5 22t-4 23q0 27 31 27q11 0 18 -4q-1 -1 -2 -2.5t-3 -3.5q-17 -20 -17 -35q0 -6 5 -11t12.5 -8t15.5 -5t14 -2q10 0 17.5 10.5t7.5 20.5q0 16 -6.5 31.5t-17.5 27.5t-26 19t-32 7
q-15 0 -28.5 -6.5t-23.5 -17.5t-15.5 -24.5t-5.5 -27.5q0 -95 87 -161q92 -71 92 -140q0 -40 -16.5 -69t-40.5 -48q-12 -9 -20 -14.5t-16.5 -8.5t-18 -3.5t-24.5 -0.5q-31 0 -53 31q-22 29 -22 64q0 12 5 24t13.5 21t18.5 14.5t21 5.5q14 0 25 -7.5t11 -19.5q0 -9 -8 -22z
M262 639q-12 -17 -46 -52q-17 -18 -28.5 -31.5t-17.5 -21.5q-18 30 -50 62l-26 26.5t-14 15.5l26 17q22 -16 39 -50q9 -17 15.5 -28t11.5 -18q14 15 24 30.5t17.5 29t11.5 24t6 14.5q1 -1 5.5 -3t10 -4t10 -5t5.5 -6z" />
    <glyph glyph-name="uacute" unicode="&#xfa;" 
d="M478 -3q-28 -8 -51 -17t-40 -17l-11 115q-62 -89 -148 -89q-66 0 -121 52t-55 128q0 30 18 68t41 61q12 12 22 25.5t18 27.5t12.5 26t4.5 21q0 52 -45 52q-19 0 -37 -11t-18 -28q0 -11 9 -19.5t20 -8.5q13 0 16 2.5t3 7.5q0 11 -21 16q10 12 17 12q9 0 16 -8t7 -19
q0 -16 -13.5 -30t-29.5 -14q-15 0 -28 15t-13 31q0 30 22 58q23 29 48 29q28 0 46 -23t18 -56q0 -45 -24 -87q-52 -91 -52 -143q0 -76 36.5 -119.5t97.5 -43.5q75 0 129 101q-18 157 -51 307l-52 -3l2 21q87 1 162 27l5 -20l-50 -14q0 -165 18 -432q37 8 65 22l7 -23v0z
M349 608q-17 -8 -31.5 -14l-27.5 -11t-28.5 -12.5t-34.5 -18.5q-18 -11 -30.5 -17.5l-20.5 -10.5q-1 4 -10 17q66 31 163 108q1 -2 9 -22q8 -18 11 -19z" />
    <glyph glyph-name="ucircumflex" unicode="&#xfb;" 
d="M478 -3q-28 -8 -51 -17t-40 -17l-11 115q-62 -89 -148 -89q-66 0 -121 52t-55 128q0 30 18 68t41 61q12 12 22 25.5t18 27.5t12.5 26t4.5 21q0 52 -45 52q-19 0 -37 -11t-18 -28q0 -11 9 -19.5t20 -8.5q13 0 16 2.5t3 7.5q0 11 -21 16q10 12 17 12q9 0 16 -8t7 -19
q0 -16 -13.5 -30t-29.5 -14q-15 0 -28 15t-13 31q0 30 22 58q23 29 48 29q28 0 46 -23t18 -56q0 -45 -24 -87q-52 -91 -52 -143q0 -76 36.5 -119.5t97.5 -43.5q75 0 129 101q-18 157 -51 307l-52 -3l2 21q87 1 162 27l5 -20l-50 -14q0 -165 18 -432q37 8 65 22l7 -23v0z
M353 540q-28 -16 -44 -22q-10 19 -23.5 41t-31.5 47q-47 -77 -54 -93q-32 15 -43 24l16.5 16l29.5 27q37 31 54 54q16 -26 96 -94z" />
    <glyph glyph-name="udieresis" unicode="&#xfc;" 
d="M478 -3q-28 -8 -51 -17t-40 -17l-11 115q-62 -89 -148 -89q-66 0 -121 52t-55 128q0 30 18 68t41 61q12 12 22 25.5t18 27.5t12.5 26t4.5 21q0 52 -45 52q-19 0 -37 -11t-18 -28q0 -11 9 -19.5t20 -8.5q13 0 16 2.5t3 7.5q0 11 -21 16q10 12 17 12q9 0 16 -8t7 -19
q0 -16 -13.5 -30t-29.5 -14q-15 0 -28 15t-13 31q0 30 22 58q23 29 48 29q28 0 46 -23t18 -56q0 -45 -24 -87q-52 -91 -52 -143q0 -76 36.5 -119.5t97.5 -43.5q75 0 129 101q-18 157 -51 307l-52 -3l2 21q87 1 162 27l5 -20l-50 -14q0 -165 18 -432q37 8 65 22l7 -23v0z
M189 594q10 0 18.5 -11.5t8.5 -23.5q0 -25 -38 -25q-10 0 -22 11.5t-12 21.5q0 13 13 20t32 7zM337 601q32 0 32 -19q0 -23 -8 -32t-24 -9q-24 0 -24 35q0 14 5 19.5t19 5.5z" />
    <glyph glyph-name="ugrave" unicode="&#xf9;" 
d="M478 -3q-28 -8 -51 -17t-40 -17l-11 115q-62 -89 -148 -89q-66 0 -121 52t-55 128q0 30 18 68t41 61q12 12 22 25.5t18 27.5t12.5 26t4.5 21q0 52 -45 52q-19 0 -37 -11t-18 -28q0 -11 9 -19.5t20 -8.5q13 0 16 2.5t3 7.5q0 11 -21 16q10 12 17 12q9 0 16 -8t7 -19
q0 -16 -13.5 -30t-29.5 -14q-15 0 -28 15t-13 31q0 30 22 58q23 29 48 29q28 0 46 -23t18 -56q0 -45 -24 -87q-52 -91 -52 -143q0 -76 36.5 -119.5t97.5 -43.5q75 0 129 101q-18 157 -51 307l-52 -3l2 21q87 1 162 27l5 -20l-50 -14q0 -165 18 -432q37 8 65 22l7 -23v0z
M346 549q-9 -13 -10 -17q-5 1 -47 26q-39 23 -67 33l-27.5 11t-31.5 14q3 1 11 19q8 20 9 22q97 -77 163 -108z" />
    <glyph glyph-name="yacute" unicode="&#xfd;" horiz-adv-x="395" 
d="M298 448q3 -5 3 -9q0 -8 -8.5 -16t-15.5 -8q-15 0 -27 15.5t-12 29.5q0 22 19 44t38 22q26 0 49 -23t23 -49q0 -28 -13 -66q-12 -40 -61 -136q-50 -96 -72 -150q-11 -27 -19.5 -54t-15.5 -55q-27 -112 -67 -134t-63 -22q-38 0 -61.5 17.5t-23.5 41.5q0 25 26.5 43.5
t60.5 18.5q15 0 26.5 -10.5t11.5 -25.5q0 -13 -16 -24t-31 -11q-12 0 -12 10q6 0 15 8.5t9 20.5q0 18 -13 18q-20 0 -32.5 -9.5t-12.5 -26.5q0 -22 17.5 -40t40.5 -18q26 0 51 40q27 41 39 82l17 50l24 67q-89 251 -172 353q-11 -3 -28.5 -8.5t-40.5 -13.5l-5 19
q49 10 131 50q27 -34 49.5 -90t42.5 -128l41 -144l76 153q32 64 42.5 100t10.5 60q0 23 -15 37.5t-39 14.5q-11 0 -18.5 -6t-7.5 -15q0 -29 16 -29q9 0 23 6zM297 668q-17 -8 -31.5 -14l-27.5 -11t-28.5 -12.5t-34.5 -18.5q-18 -11 -30.5 -17.5l-20.5 -10.5q-1 4 -10 17
q66 31 163 108q1 -2 9 -22q8 -18 11 -19z" />
    <glyph glyph-name="ydieresis" unicode="&#xff;" horiz-adv-x="395" 
d="M298 448q3 -5 3 -9q0 -8 -8.5 -16t-15.5 -8q-15 0 -27 15.5t-12 29.5q0 22 19 44t38 22q26 0 49 -23t23 -49q0 -28 -13 -66q-12 -40 -61 -136q-50 -96 -72 -150q-11 -27 -19.5 -54t-15.5 -55q-27 -112 -67 -134t-63 -22q-38 0 -61.5 17.5t-23.5 41.5q0 25 26.5 43.5
t60.5 18.5q15 0 26.5 -10.5t11.5 -25.5q0 -13 -16 -24t-31 -11q-12 0 -12 10q6 0 15 8.5t9 20.5q0 18 -13 18q-20 0 -32.5 -9.5t-12.5 -26.5q0 -22 17.5 -40t40.5 -18q26 0 51 40q27 41 39 82l17 50l24 67q-89 251 -172 353q-11 -3 -28.5 -8.5t-40.5 -13.5l-5 19
q49 10 131 50q27 -34 49.5 -90t42.5 -128l41 -144l76 153q32 64 42.5 100t10.5 60q0 23 -15 37.5t-39 14.5q-11 0 -18.5 -6t-7.5 -15q0 -29 16 -29q9 0 23 6zM117 646q10 0 18.5 -11.5t8.5 -23.5q0 -25 -38 -25q-10 0 -22 11.5t-12 21.5q0 13 13 20t32 7zM265 653
q32 0 32 -19q0 -23 -8 -32t-24 -9q-24 0 -24 35q0 14 5 19.5t19 5.5z" />
    <glyph glyph-name="zcaron" unicode="&#x17e;" horiz-adv-x="392" 
d="M357 449q-41 -94 -135 -215q-95 -122 -170 -178q29 4 51.5 6t39.5 2q103 0 178 -35q3 20 5 43t3 49l24 -2q-20 -89 -18 -171l-19 1q-1 8 -1 13v7q0 7 1.5 16l3.5 21q-72 28 -139 28q-77 0 -176 -29l-16 28q80 45 168 169t114 222q-106 -26 -140 -26q-39 0 -74 20
q-34 19 -34 53q0 14 7.5 25.5t20.5 19.5t28.5 12.5t32.5 4.5q26 0 46.5 -11t20.5 -30q0 -17 -24 -27q-23 -10 -45 -10q-27 0 -27 23q0 10 21 13q0 -21 23 -21q7 0 13.5 3t6.5 8q0 14 -17.5 24t-34.5 10q-18 0 -34.5 -11.5t-16.5 -27.5q0 -21 23 -32.5t84 -11.5q114 0 195 30
l11 -13v0zM306 675q-12 -17 -46 -52q-17 -18 -28.5 -31.5t-17.5 -21.5q-18 30 -50 62l-26 26.5t-14 15.5l26 17q22 -16 39 -50q9 -17 15.5 -28t11.5 -18q14 15 24 30.5t17.5 29t11.5 24t6 14.5q1 -1 5.5 -3t10 -4t10 -5t5.5 -6z" />
    <glyph glyph-name="foursuperior" unicode="&#xf003;" horiz-adv-x="290" 
d="M283 418q0 -3 -6 -34h-63v-120h58v-6q0 -4 -1 -12q-94 0 -166 -23q-3 7 -3 21l93 17q-3 85 -6 122q-60 0 -105 -0.5t-76 -1.5q2 13 24 41l43 57l19 28.5t17.5 30t12.5 28t5 23.5q0 41 -38 41q-19 0 -35.5 -13t-16.5 -29q0 -10 8.5 -22t15.5 -12q4 0 8.5 4.5t4.5 8.5
q0 13 -11 15q0 12 17 12q14 0 14 -19q0 -14 -14 -25.5t-29 -11.5q-17 0 -27 13t-10 32q0 20 26 40q27 21 54 21q30 0 53.5 -18.5t23.5 -47.5q0 -22 -15 -49t-59 -70q-45 -45 -46 -53q62 0 134 3q-2 147 6 234q5 -1 17.5 -3t34.5 -5q-11 -52 -19 -108.5t-13 -118.5
q40 0 70 10z" />
    <glyph glyph-name="quotedbl" unicode="&#x22;" horiz-adv-x="211" 
d="M93 671q-23 -110 -23 -171v-13t1 -11h-11t-11 -1q-2 73 -5 121t-8 71q6 1 25 1q20 0 32 3zM177 688q-27 -146 -27 -198l-28 -1q8 27 8 81q0 52 -6 114q4 -1 13 -1q8 0 21.5 2.5t18.5 2.5z" />
    <glyph glyph-name="exclam" unicode="!" horiz-adv-x="218" 
d="M59 19q-6 1 -11 6.5t-8 12.5t-5 14.5t-2 12.5q0 18 26 35t48 17q76 0 76 -82q0 -27 -18.5 -42.5t-45.5 -15.5q-17 0 -29.5 20t-12.5 42q0 13 6.5 21.5t16.5 8.5q31 0 31 -41q-5 2 -12.5 8.5t-14.5 6.5q-5 0 -9 -4.5t-4 -10.5q0 -17 28 -17q36 0 36 34q0 9 -5.5 18.5
t-14.5 17t-20 12.5t-22 5q-16 0 -28 -17.5t-12 -38.5q0 -13 6 -23zM184 644q-11 -46 -21.5 -104.5t-21.5 -130.5q-21 -143 -21 -248q-20 7 -29 8l3.5 158.5t1.5 118.5q0 39 -3 84.5t-8 98.5q76 10 99 15z" />
    <glyph glyph-name="notequal" unicode="&#x2260;" horiz-adv-x="549" 
d="M237 136l-90 -161l-49 28l74 133h-157v55h188l77 139h-265v55h296l91 164l49 -28l-76 -136h165v-55h-195l-78 -139h273v-55h-303z" />
    <glyph glyph-name="infinity" unicode="&#x221e;" horiz-adv-x="713" 
d="M305 288q-47 105 -130 105q-27 0 -49.5 -10t-38.5 -27.5t-25 -42t-9 -54.5q0 -59 32 -102q33 -41 80 -41q39 0 73 32q33 32 62 124zM366 227q31 -67 65.5 -98t86.5 -31q62 0 101 44q40 44 40 115q0 67 -41 117q-40 49 -97 49q-41 0 -67 -22t-48 -76l-40 -98v0zM319 326
q35 83 77 109q44 26 104 26q79 0 133 -57t54 -147q0 -92 -55 -148q-54 -57 -116 -57q-23 0 -43 7t-39.5 23.5t-39.5 43.5t-42 66q-57 -114 -158 -114q-73 0 -121 51q-47 52 -47 129t43 127q43 52 107 52q39 0 72 -21q33 -19 71 -90z" />
    <glyph glyph-name="lessequal" unicode="&#x2264;" horiz-adv-x="549" 
d="M29 0v55h497v-55h-497zM29 347v62l497 230v-62l-433 -199l433 -199v-62z" />
    <glyph glyph-name="greaterequal" unicode="&#x2265;" horiz-adv-x="549" 
d="M29 0v55h497v-55h-497zM29 117v62l433 199l-433 199v62l497 -230v-62z" />
    <glyph glyph-name="partialdiff" unicode="&#x2202;" horiz-adv-x="494" 
d="M445 307q-41 110 -139 110q-88 0 -140 -93q-52 -92 -52 -195q0 -54 26.5 -85t69.5 -31q66 0 136 79t99 215zM122 547q64 148 185 148q39 0 72 -15.5t57 -46.5t37 -77t13 -107q0 -175 -81 -320q-80 -144 -208 -144q-76 0 -120.5 44.5t-44.5 119.5q0 116 81 205
q83 89 188 89q108 0 152 -93h2q2 35 3.5 57.5t1.5 33.5q0 85 -45 134.5t-124 49.5q-95 0 -147 -78h-22z" />
    <glyph glyph-name="summation" unicode="&#x2211;" horiz-adv-x="713" 
d="M695 116q-16 -61 -26.5 -117t-16.5 -107l-50 8t-27 3h-503q-10 0 -29 -1.5t-29 -1.5l349 398l-347 454q34 -3 60 -5t44 -2h497l6 -159h-20q-8 25 -14.5 42t-11.5 27q-10 18 -39 32q-15 6 -37 9.5t-51 3.5h-263l273 -358l-294 -339h371q62 0 86 25q24 24 49 88h23v0z" />
    <glyph glyph-name="product" unicode="&#x220f;" horiz-adv-x="823" 
d="M496 -101v23q59 0 78 20t19 61v693h-358v-693q0 -41 19 -61t78 -20v-23h-307v23q59 0 78 20t19 61v626q0 99 -95 99v23h774v-23q-95 0 -95 -99v-626q0 -41 19 -61t78 -20v-23h-307z" />
    <glyph glyph-name="pi" unicode="&#x3c0;" horiz-adv-x="549" 
d="M530 151q-2 -38 -11.5 -69t-25.5 -52.5t-37 -33.5t-45 -12q-19 0 -36.5 11t-31 33.5t-21.5 56.5t-8 81q0 21 1 39.5t3 34.5l17 161h-113q-29 -305 -48 -363t-64 -58q-19 0 -36 15.5t-17 40.5q0 21 35 62q35 40 40 74l29 229h-47q-20 0 -38.5 -9.5t-27.5 -22.5l-21 -31
h-17q48 149 139 149h373v-86h-126q-12 -119 -12 -235q0 -40 18.5 -65t46.5 -25q17 0 35.5 14t21.5 36q1 11 2 17t1 8h21v0z" />
    <glyph glyph-name="integral" unicode="&#x222b;" horiz-adv-x="274" 
d="M294 859q0 -19 -14.5 -31t-36.5 -12q-9 0 -16.5 3.5t-13.5 8l-11 8.5t-10 4q-18 0 -18 -28q0 -17 9 -125q5 -54 7.5 -121t2.5 -148q0 -247 -15 -347q-13 -99 -38 -137q-13 -20 -33.5 -30.5t-41.5 -10.5q-24 0 -42 17t-18 42q0 18 12.5 31.5t31.5 13.5q16 0 31 -16
q17 -17 23 -17q12 0 19 21.5t7 75.5q0 18 -3 96t-3 275q0 118 2 195.5t6 115.5q9 76 20 106q15 34 34.5 50.5t40.5 16.5q28 0 48 -16t20 -41z" />
    <glyph glyph-name="Ohm" unicode="&#x2126;" horiz-adv-x="768" 
d="M440 0l17 152q78 29 110 97q32 70 32 153q0 111 -53 182q-53 72 -161 72q-110 0 -162 -72q-52 -70 -52 -182q0 -85 31 -153q32 -69 111 -97l16 -152h-295v162h15q8 -32 19.5 -46.5t46.5 -14.5h158l-2 28q-116 32 -167 108q-50 77 -50 162q0 126 94 207q94 82 237 82
q144 0 236 -82q94 -81 94 -207q0 -85 -50 -162q-49 -76 -166 -108l-2 -28h157q35 0 47 14.5t20 46.5h14v-162h-295z" />
    <glyph glyph-name="radical" unicode="&#x221a;" horiz-adv-x="549" 
d="M365 -38l-243 502l-96 -47l-16 33l146 72l197 -403l127 798l35 -5z" />
    <glyph glyph-name="approxequal" unicode="&#x2248;" horiz-adv-x="549" 
d="M524 238q-10 -76 -46.5 -116.5t-91.5 -40.5q-46 0 -131 47q-84 48 -120 48q-74 0 -87 -91h-23q10 75 45 115.5t89 40.5q22 0 55 -11q16 -5 42.5 -17.5t64.5 -32.5q57 -30 94 -30q71 0 84 88h25zM524 427q-10 -76 -46.5 -116.5t-91.5 -40.5q-48 0 -148 57q-68 38 -103 38
q-74 0 -87 -91h-23q10 75 45 116t89 41q25 0 52 -10q15 -5 42.5 -17.5t67.5 -34.5q57 -30 94 -30q71 0 84 88h25z" />
    <glyph glyph-name="Delta" unicode="&#x2206;" horiz-adv-x="612" 
d="M72 49h412l-194 468zM608 0h-602l320 688z" />
    <glyph glyph-name="nonbreakingspace" unicode="&#xa0;" horiz-adv-x="301" 
 />
    <glyph glyph-name="lozenge" unicode="&#x25ca;" horiz-adv-x="494" 
d="M246 691l-163 -318l163 -319l164 319zM276 0h-60l-194 373l194 372h60l194 -372z" />
    <glyph glyph-name="periodcentered" unicode="&#xb7;" horiz-adv-x="198" 
d="M90 291q18 0 30.5 -17t12.5 -37q0 -18 -32 -18q-36 0 -36 34q0 17 7.5 27.5t17.5 10.5z" />
    <glyph glyph-name="periodcentered" unicode="&#x2219;" horiz-adv-x="198" 
d="M90 291q18 0 30.5 -17t12.5 -37q0 -18 -32 -18q-36 0 -36 34q0 17 7.5 27.5t17.5 10.5z" />
    <glyph glyph-name="apple" unicode="&#xf000;" horiz-adv-x="302" 
 />
    <glyph glyph-name="macron" unicode="&#xaf;" horiz-adv-x="231" 
d="M209 560q-2 -6 -2 -27q-19 2 -43.5 3t-55.5 1q-22 0 -41 -0.5t-35 -1.5l-6 29q76 -6 127 -6q16 0 30 0.5t26 1.5z" />
    <glyph glyph-name="macron" unicode="&#x2c9;" horiz-adv-x="231" 
d="M209 560q-2 -6 -2 -27q-19 2 -43.5 3t-55.5 1q-22 0 -41 -0.5t-35 -1.5l-6 29q76 -6 127 -6q16 0 30 0.5t26 1.5z" />
    <glyph glyph-name="sfthyphen" unicode="&#xad;" horiz-adv-x="319" 
d="M288 286q-7 -21 -7 -49q-35 12 -98 12q-20 0 -40.5 -1.5t-43.5 -3.5t-40 -3t-28 -2q0 25 -3 39q29 0 61.5 1t69.5 3t69 3t60 1z" />
    <glyph glyph-name="afii10017" unicode="&#x410;" horiz-adv-x="670" 
d="M507 652q-84 3 -138 -56t-69 -245q-2 -17 -3 -28.5t-2 -18.5q20 -2 36 -3t28 -1q26 0 58.5 3t71.5 8q-1 29 -1.5 51.5t-0.5 39.5q0 67 5 129t15 121zM654 11q-44 -20 -123 -28q-16 72 -26 145t-14 150q-10 -1 -26.5 -1.5t-39.5 -0.5q-79 0 -134 9q-26 -139 -75 -211.5
t-118 -72.5q-34 0 -60 32t-26 68q0 28 23 63q24 34 51 34q7 0 14.5 -4.5t14 -11t10.5 -14.5t4 -15q0 -9 -3 -18.5t-7.5 -17.5t-11 -13t-13.5 -5q-3 0 -7 3q14 11 14 27q0 10 -7.5 20t-16.5 10q-46 0 -46 -41q0 -37 20.5 -55t69.5 -18q70 0 97 81q27 82 27 170
q-164 38 -164 112q0 22 13.5 39.5t32.5 17.5h10q-17 -22 -17 -47q0 -37 33.5 -64.5t90.5 -40.5q-3 37 -3 75q0 75 19 124.5t64 87.5t100.5 57t115.5 19q37 0 41 -1q-43 -199 -48 -355q5 1 11.5 3l15.5 5l2 -43q-22 -2 -29 -3v-35q0 -78 4.5 -136.5t14.5 -98.5q37 2 96 25
l6 -26v0z" />
    <glyph glyph-name="afii10019" unicode="&#x412;" horiz-adv-x="564" 
d="M300 308q89 0 130 51q40 50 40 96q0 69 -29 106q-29 36 -56 50t-82 21q0 -68 -15 -242q-8 -88 -18 -174t-23 -174q56 -3 120 26q63 30 63 92q0 124 -130 124v24v0zM304 651q121 -10 180 -62q58 -51 58 -111q0 -59 -58 -113q-59 -53 -141 -69q69 -11 112 -46
q44 -36 44 -77q0 -16 -9.5 -36t-26.5 -39t-41.5 -35t-55.5 -24q-20 -7 -38.5 -11t-34.5 -6t-43 -3t-65 -1h-32t-27 1l6 28q20 -4 41.5 -6t45.5 -2q11 85 16.5 168t5.5 165q0 131 -9 260q-173 -11 -173 -123q0 -46 53 -46q5 0 12.5 2.5t14 7t11.5 10t5 11.5q0 4 -6 6.5
t-11 2.5q-9 0 -19 -13q-8 3 -8 14q0 19 31 19q11 0 18.5 -10t7.5 -22q0 -23 -17.5 -37.5t-39.5 -14.5q-29 0 -60 25t-31 56q0 45 52.5 82t157.5 47q0 28 -1.5 51t-5.5 43q57 0 82 -7v-51q0 -21 -1 -34z" />
    <glyph glyph-name="afii10020" unicode="&#x413;" horiz-adv-x="457" 
d="M27 615l-2 23q31 -4 55 -5.5t43 -1.5q39 0 116 15q74 16 116 16q97 0 97 -90q0 -44 -29 -82q-28 -37 -62 -37q-10 0 -20 5.5t-17.5 14.5t-12 20.5t-4.5 23.5q0 32 15 50t38 18q7 0 15 -4.5t14.5 -11.5t10.5 -15t4 -14q0 -34 -20 -34q-9 0 -17 8q20 15 20 26q0 18 -29 18
q-20 0 -29 -4.5t-9 -23.5t18.5 -30t45.5 -11q23 0 35.5 20.5t12.5 51.5q0 12 -8 23t-21.5 19t-31.5 13t-38 5q-24 0 -96 -6q-35 -4 -48.5 -5t-26.5 -1q6 -116 6 -202q0 -74 -7.5 -170.5t-21.5 -216.5h94v-28q-59 9 -106 9q-29 0 -53.5 -0.5t-55.5 -1.5l-2 26q26 -2 54 -3
t42 -1q2 19 3.5 67t1.5 129q0 91 -7.5 190t-22.5 205z" />
    <glyph glyph-name="afii10022" unicode="&#x415;" horiz-adv-x="556" 
d="M431 130q22 -6 22 -18q0 -18 -9.5 -31.5t-25.5 -13.5q-17 0 -28.5 15t-11.5 33q0 29 25 54q26 26 45 26q43 0 67.5 -18t24.5 -52q0 -14 -5 -29.5t-13.5 -30.5t-19.5 -29t-23 -24q-12 -9 -23 -14.5t-24 -8.5t-29 -4t-37 -1q-19 0 -86 9q-34 4 -60.5 6t-46.5 2
q-31 0 -81 -10v26l56 4q-17 205 -33 321q-8 58 -21.5 120.5t-31.5 131.5l-52 -4v25q84 3 158.5 11t140.5 21l110 22q-8 -46 -11.5 -86t-1.5 -75h-24l3 110l-228 -15q8 -113 12 -189.5t4 -118.5q142 6 226 35v-39q-51 -10 -107 -15.5t-119 -7.5q1 -25 1.5 -57t0.5 -71v-59
q0 -29 -1 -58l190 -6q87 0 112 20q24 19 24 60q0 69 -70 69q-10 0 -21 -12.5t-11 -29.5q0 -12 10 -19.5t19 -7.5q10 0 10 11q0 10 -10 16l4 6v0z" />
    <glyph glyph-name="afii10031" unicode="&#x41d;" horiz-adv-x="722" 
d="M493 362q-10 76 -15 128.5t-5 81.5q0 67 38 111q39 44 96 44q38 0 67 -29q30 -29 30 -68q0 -21 -25 -43q-23 -22 -48 -22q-10 0 -20.5 4t-19 10.5t-14 13.5t-5.5 13q0 15 14.5 29t26.5 14q17 0 21.5 -4.5t4.5 -12.5t-6 -18q-12 18 -22 18q-9 0 -9 -20q0 -14 10 -24.5
t18 -10.5q6 0 11.5 6.5t10 17t7.5 23.5t3 25q0 10 -4 21t-10.5 20t-16.5 14.5t-22 5.5q-32 0 -53 -49q-21 -48 -21 -113q0 -37 3.5 -97t10.5 -144q14 -167 33 -278q35 0 85 22l8 -27q-31 -8 -55.5 -13t-44.5 -7t-44 -9.5t-53 -18.5l-2 33l79 17q-51 244 -57 312
q-37 -13 -76.5 -22.5t-82.5 -17.5q-86 -15 -140 -15q0 -119 -1.5 -193.5t-5.5 -105.5q-6 -62 -32 -108q-26 -45 -74 -45q-25 0 -50 22t-25 54q0 18 26 38q25 19 45 19q25 0 38.5 -13.5t13.5 -28.5q0 -12 -9 -21t-20 -9q-17 0 -22 23l5 4q9 -9 12 -9q10 0 10 17q0 7 -7 14.5
t-14 7.5q-12 0 -22 -12.5t-10 -28.5q0 -24 9 -41t24 -17q39 0 60 44t21 125q0 58 -5.5 127.5t-16.5 151.5q-21 165 -54 315q-5 -1 -17 -1q-20 0 -48 3v22q159 -3 227 12v-26q-22 -2 -40 -4t-32 -4q12 -218 12 -301q13 -1 24 -1h22q29 0 56.5 3t54.5 8q28 6 62.5 15.5
t76.5 22.5z" />
    <glyph glyph-name="afii10057" unicode="&#x408;" horiz-adv-x="442" 
d="M405 618q-38 -1 -67 -6q1 -56 9 -150q4 -48 5.5 -92t1.5 -86q0 -90 -21 -178t-70 -129q-47 -43 -110 -43q-59 0 -105 43t-46 98q0 56 44 100q46 44 88 44q41 0 70 -30q30 -30 30 -70q0 -27 -27 -49q-25 -22 -53 -22q-22 0 -40.5 17.5t-18.5 39.5q0 17 11 28t28 11
q30 0 30 -26q-14 3 -19 3q-6 0 -11 -6t-5 -13q0 -16 7.5 -27t14.5 -11q8 0 14.5 6t11.5 15t8 20t3 21q0 33 -13.5 54t-37.5 21q-17 0 -31 -9.5t-24.5 -26t-16.5 -39t-6 -47.5q0 -57 24.5 -92t69.5 -35q74 0 113 64q40 64 40 222q0 73 -19 180q-9 55 -19.5 101t-21.5 84
q-10 -2 -36.5 -3.5t-69.5 -3.5v25q68 2 113 4.5t68 5.5l44 8t40 9v-30v0z" />
    <glyph glyph-name="afii10105" unicode="&#x458;" horiz-adv-x="316" 
d="M223 439q-6 -83 -6 -165q0 -35 3 -83.5t10 -111.5q7 -62 10 -96.5t3 -42.5q0 -69 -24 -104t-82 -35q-25 0 -47.5 6t-39.5 17.5t-27 28t-10 37.5q0 43 32 84q31 40 67 40q27 0 51 -18t24 -48q0 -22 -13.5 -40.5t-31.5 -18.5q-44 0 -44 48q0 26 26 26q9 0 10 -13
q-7 4 -11 4q-8 0 -8 -14q0 -6 5 -10.5t10 -4.5q22 0 22 33q0 14 -13 27.5t-27 13.5q-15 0 -32 -35q-16 -33 -16 -70q0 -36 19.5 -57.5t53.5 -21.5q36 0 59.5 29.5t23.5 83.5q0 40 -19 128l-15.5 82t-10.5 63q-7 54 -18 233l-102 1l-2 22q18 0 37 -0.5t36 -0.5h30h18
q19 0 48 1.5t69 5.5v-22z" />
    <glyph glyph-name="afii10030" unicode="&#x41c;" horiz-adv-x="834" 
d="M744 72q13 -4 13 -15q0 -24 -34 -24q-8 0 -16 4t-15 10t-11.5 13.5t-4.5 14.5q0 11 7 21.5t18 19t24.5 14t27.5 5.5q21 0 38 -19t17 -48q0 -32 -33 -69q-32 -38 -59 -38q-26 0 -44.5 8.5t-31 23.5t-20 34.5t-10.5 41.5q-2 23 -3.5 52t-1.5 65l6 266q0 20 -0.5 40.5
t-1.5 41.5q-65 -129 -103.5 -220t-51.5 -148l-28 -2q-42 92 -104 214q-31 61 -51 108t-29 81q-6 -77 -6 -180q0 -170 18 -360q35 0 92 -6l-3 -19q-203 6 -211 8l2 24q62 -9 98 -7q-39 247 -35 580q-40 0 -67.5 -1.5t-43.5 -3.5q-32 -5 -50 -26q-20 -23 -20 -58
q0 -27 20.5 -44t44.5 -17q14 0 26 7.5t12 16.5q0 5 -6.5 12t-10.5 7q-24 0 -40 -19q-10 7 -10 16q0 13 12.5 22.5t21.5 9.5t18.5 -4t17.5 -10.5t13.5 -14.5t5.5 -17q0 -12 -5 -23t-13 -19.5t-18 -13.5t-20 -5q-33 0 -58.5 27t-25.5 75q0 38 31 69q32 32 72 32q18 0 44 1
t61 3q70 4 96 9l7 -21q-18 -2 -31.5 -3t-22.5 -1q46 -138 199 -353q29 74 53 128.5l41 90.5q18 36 33 70.5t26 67.5q-4 1 -20.5 3.5t-46.5 7.5l6 20q16 -5 99 -15q42 -5 77.5 -8t64.5 -5l-5 -21q-36 0 -97 9q-2 -8 -7.5 -64l-15.5 -159q-18 -206 -18 -303q0 -106 57 -106
q28 0 48 23t20 58q0 64 -31 64q-11 0 -23 -10t-12 -22q0 -16 8 -29t17 -13q13 0 13 25z" />
    <glyph glyph-name="afii10028" unicode="&#x41a;" horiz-adv-x="617" 
d="M160 335q44 39 80 76.5t65.5 75.5t54 79t46.5 88l-43 28l11 17q24 -15 43.5 -25t37 -17t34.5 -12t36 -10l-12 -19l-51 13q-24 -39 -53.5 -76.5t-61.5 -72t-64.5 -65l-61.5 -55.5l72 -115q25 -41 50 -73t52 -55t58.5 -35t71.5 -12q20 0 35 18.5t15 43.5q0 22 -11 37
t-29 15q-30 0 -30 -28q0 -11 6 -21.5t13 -10.5q16 0 17 25q13 0 13 -18q0 -8 -10 -14t-24 -6q-16 0 -31 12.5t-15 29.5q0 16 18 29t42 13q15 0 28.5 -5.5t24.5 -14.5t17.5 -21t6.5 -25q0 -31 -29 -52t-61 -21q-55 0 -96.5 13.5t-78.5 41.5q-19 14 -42 37t-47.5 52
t-49.5 63.5t-47 71.5zM144 22q42 0 99 18v-26q-56 -12 -110 -12q-13 0 -37.5 -2.5t-62.5 -7.5v27l87 2l-37 587l-72 -2v23q40 1 68 1.5t45 2.5q33 4 95 21v-27l-60 -13z" />
    <glyph glyph-name="afii10024" unicode="&#x416;" horiz-adv-x="993" 
d="M463 285q-44 39 -80 76.5t-65.5 75.5t-54 79t-46.5 88l43 28l-11 17q-24 -15 -43.5 -25t-37 -17t-34.5 -12t-36 -10l12 -19l51 13q24 -39 53.5 -76.5t61.5 -72t64.5 -65l61.5 -55.5l-72 -115q-26 -41 -50.5 -73t-51.5 -55t-58.5 -35t-71.5 -12q-20 0 -35 18.5t-15 43.5
q0 22 11 37t29 15q30 0 30 -28q0 -11 -6 -21.5t-13 -10.5q-16 0 -17 25q-13 0 -13 -18q0 -8 10 -14t24 -6q16 0 31 12.5t15 29.5q0 16 -18 29t-42 13q-15 0 -28.5 -5.5t-24.5 -14.5t-17.5 -21t-6.5 -25q0 -31 29 -52q28 -21 61 -21q55 0 96.5 13.5t78.5 41.5q19 14 42 37
t47.5 52t49 63.5t47.5 71.5zM530 285q44 39 80 76.5t65.5 75.5t54 79t46.5 88l-43 28l11 17q24 -15 43.5 -25t37 -17t34.5 -12t36 -10l-12 -19l-51 13q-24 -39 -53.5 -76.5t-61.5 -72t-64.5 -65l-61.5 -55.5l72 -115q25 -41 50 -73t52 -55t58.5 -35t71.5 -12q20 0 35 18.5
t15 43.5q0 22 -11 37t-29 15q-30 0 -30 -28q0 -11 6 -21.5t13 -10.5q16 0 17 25q13 0 13 -18q0 -8 -10 -14t-24 -6q-16 0 -31 12.5t-15 29.5q0 16 18 29t42 13q15 0 28.5 -5.5t24.5 -14.5t17.5 -21t6.5 -25q0 -31 -29 -52t-61 -21q-55 0 -96.5 13.5t-78.5 41.5
q-19 14 -42 37t-47.5 52t-49.5 63.5t-47 71.5zM514 22q42 0 99 18v-26q-56 -12 -110 -12q-13 0 -37.5 -2.5t-62.5 -7.5v27l87 2l-37 587l-72 -2v23q40 1 68 1.5t45 2.5q33 4 95 21v-27l-60 -13z" />
    <glyph glyph-name="afii10032" unicode="&#x41e;" horiz-adv-x="689" 
d="M326 460q-8 -12 -20 -12q-8 0 -16 13t-8 22q0 11 14 24t29 13q16 0 32 -19q17 -20 17 -35q0 -18 -6.5 -34t-17 -28t-24 -19t-26.5 -7q-15 0 -29 7.5t-24.5 20.5t-17 29t-6.5 33q0 47 47 91t117 44q103 0 186 -87q83 -86 83 -188q0 -128 -90 -233q-89 -104 -206 -104
q-135 0 -230 89q-94 88 -94 211q0 118 76 215q77 98 187 125l6 -15q-89 -16 -145 -105q-54 -89 -54 -207q0 -125 73 -210q74 -86 189 -86q93 0 153 90q60 91 60 210q0 118 -58 194q-59 77 -150 77q-55 0 -95 -35q-38 -35 -38 -75q0 -22 18 -36.5t38 -14.5q25 0 42.5 12
t17.5 29q0 14 -10.5 23.5t-22.5 9.5q-28 0 -28 -9q0 -8 31 -23z" />
    <glyph glyph-name="afii10034" unicode="&#x420;" horiz-adv-x="551" 
d="M266 667q118 0 195 -58q79 -58 79 -137q0 -98 -63 -168q-61 -70 -141 -70q-12 0 -24 5.5t-21.5 15t-15 21.5t-5.5 25q0 15 26 29q27 15 48 15q22 0 22 -29q0 -8 -18 -24q-1 1 -4 6.5t-6.5 10.5t-8 9.5t-9.5 4.5q-22 0 -22 -35q0 -17 13.5 -28.5t32.5 -11.5q53 0 90 55
q39 55 39 132q0 89 -52 146.5t-157 62.5q-5 -54 -7.5 -136t-2.5 -194q0 -29 3 -68.5t8 -90.5q6 -51 9.5 -86.5t4.5 -55.5l122 -10l-7 -29q-54 9 -143 15q-45 3 -79.5 4t-60.5 0l-3 29q22 0 44.5 -1t45.5 -3q50 -3 56 -2q-2 22 -5.5 56t-10.5 81q-16 109 -23.5 203.5
t-7.5 175.5q0 46 0.5 74t1.5 39q-74 -3 -129 -34t-55 -77q0 -21 19 -34t43 -13q60 0 60 22q0 6 -6 10t-13 4q-16 0 -16 -18q-15 1 -15 17q0 24 28 24q13 0 25 -10.5t12 -20.5q0 -25 -23 -42.5t-56 -17.5q-36 0 -61 21.5t-25 51.5q0 38 45 79q48 42 168 58v34q0 25 1 65
q32 -2 50.5 -3.5t23.5 -1.5q-9 -38 -13.5 -61t-5.5 -31z" />
    <glyph glyph-name="afii10035" unicode="&#x421;" horiz-adv-x="520" 
d="M507 190q-5 -106 -58 -163t-146 -57q-101 0 -190 98q-88 97 -88 216q0 73 39 165q41 92 106 147q68 56 147 56q74 0 118 -39q45 -39 45 -86q0 -46 -42 -83q-42 -36 -92 -36q-28 0 -59 23q-29 23 -29 57q0 32 19.5 49t49.5 17q22 0 39 -14t17 -28q0 -23 -10 -37.5
t-24 -14.5q-16 0 -22 15q10 0 23 9t13 18q0 31 -19 31q-22 0 -41 -17.5t-19 -41.5q0 -8 5 -17t14 -17t20 -13.5t23 -5.5q33 0 56 32q24 33 24 74t-30 74q-29 33 -78 33q-102 0 -164 -89q-60 -89 -60 -219q0 -141 69 -237q71 -95 170 -95q61 0 92.5 36.5t31.5 96.5
q0 11 -1 27.5t-3 39.5l54 -4v0z" />
    <glyph glyph-name="afii10026" unicode="&#x418;" horiz-adv-x="722" 
d="M201 187q-1 -78 -2.5 -128.5t-4.5 -74.5q-6 -62 -32 -108q-26 -45 -74 -45q-25 0 -50 22t-25 54q0 18 26 38q25 19 45 19q25 0 38.5 -13.5t13.5 -28.5q0 -12 -9 -21t-20 -9q-17 0 -22 23l5 4q9 -9 12 -9q10 0 10 17q0 7 -7 14.5t-14 7.5q-12 0 -22 -12.5t-10 -28.5
q0 -24 9 -41t24 -17q39 0 60 44t21 125q0 58 -5.5 127.5t-16.5 151.5q-21 165 -54 315q-5 -1 -17 -1q-20 0 -48 3v22q159 -3 227 12v-26q-22 -2 -40 -4t-32 -4q3 -54 5.5 -105l4.5 -94.5t3 -77.5t1 -55v-58l80 48t73 54l26 26l34 34.5l36.5 38l33.5 35.5q-5 37 -7 65.5
t-2 45.5q0 67 38 111q39 44 96 44q38 0 67 -29q30 -29 30 -68q0 -21 -25 -43q-23 -22 -48 -22q-10 0 -20.5 4t-19 10.5t-14 13.5t-5.5 13q0 15 14.5 29t26.5 14q17 0 21.5 -4.5t4.5 -12.5t-6 -18q-12 18 -22 18q-9 0 -9 -20q0 -14 10 -24.5t18 -10.5q6 0 11.5 6.5t10 17
t7.5 23.5t3 25q0 10 -4 21t-10.5 20t-16.5 14.5t-22 5.5q-32 0 -53 -49q-21 -48 -21 -113q0 -37 3.5 -97t10.5 -144q14 -167 33 -278q35 0 85 22l8 -27q-31 -8 -55.5 -13t-44.5 -7t-44 -9.5t-53 -18.5l-2 33l79 17q-26 123 -39.5 200.5t-17.5 111.5q-3 24 -6.5 46.5
t-5.5 44.5l-29 -32l-34 -34.5l-36.5 -34.5l-34.5 -31l-38 -30l-43 -31.5l-41 -28.5t-31 -20z" />
    <glyph glyph-name="afii10036" unicode="&#x422;" horiz-adv-x="548" 
d="M380 702q-3 4 -3 10q0 10 8 17t17 7q16 0 29.5 -12t13.5 -24q0 -23 -20.5 -41t-47.5 -18q-29 0 -50.5 20t-21.5 47q0 26 33 52q34 25 81 25t87 -28q41 -29 41 -67q0 -64 -52 -95q-54 -32 -190 -47q2 -58 3 -106t1 -88q0 -104 -9 -327q76 0 127 20v-31q-69 -10 -143 -12
q-13 -1 -30.5 -3.5t-40.5 -7.5v27l61 4q0 49 -4 116t-12 152t-16.5 146t-18.5 99q-31 -7 -77 -13t-107 -12l7 -92l-26 -3q-2 44 -5.5 77t-8.5 56l25 4l4 -20q67 6 131 14.5t126 19.5q124 23 166 50q43 28 43 82q0 31 -22.5 51t-61.5 20q-14 0 -27.5 -5.5t-24 -14t-17.5 -20
t-7 -23.5q0 -19 12.5 -36t28.5 -17q17 0 27.5 10t10.5 25q0 7 -5.5 14.5t-13.5 7.5t-21 -10z" />
    <glyph glyph-name="afii10039" unicode="&#x425;" horiz-adv-x="630" 
d="M620 16q-116 -16 -242 -68l-11 25q22 8 48 16.5t57 17.5q-19 48 -53.5 107.5t-85.5 132.5q-7 -12 -18.5 -34.5l-27.5 -56.5q-16 -33 -30.5 -57.5t-27.5 -41.5q-26 -34 -69 -59q-42 -27 -75 -27q-42 0 -63 30.5t-21 85.5q0 28 21 54q22 27 45 27q48 0 48 -59
q0 -13 -13 -25t-26 -12q-12 0 -17 7t-5 28q16 -6 22 -6q22 0 22 15q0 23 -27 23q-21 0 -37.5 -16t-16.5 -42q0 -35 22.5 -52.5t77.5 -17.5q26 0 50.5 18.5t49 52.5t49 82t50.5 108q-54 75 -120 191t-83 168q-12 -1 -67 3l8 27q100 -15 230 -21l-6 -22q-26 2 -43.5 3.5
t-27.5 1.5q13 -57 46.5 -129t90.5 -161l72.5 160l65.5 148q-11 7 -29.5 13.5t-43.5 14.5l17 24q35 -16 76.5 -28.5t89.5 -23.5l-8 -31q-50 19 -71 23l-100.5 -213.5t-51.5 -115.5q31 -54 66.5 -126l77.5 -163l107 26l8 -25v0z" />
    <glyph glyph-name="afii10037" unicode="&#x423;" horiz-adv-x="765" 
d="M749 589l-72 9l-56 -95l-81 -155l-87 -169l-35 -57.5t-37 -55.5q-22 -31 -38 -48.5t-35 -32.5t-41 -25t-43 -10q-60 0 -91 27t-31 75q0 32 30 64q32 32 67 32q47 0 62 -14.5t15 -44.5q0 -16 -24 -35q-24 -18 -37 -18q-14 0 -23.5 9t-9.5 24q24 -7 37 -7q15 0 27 8.5
t12 16.5q0 26 -35 26q-42 0 -70 -13.5t-28 -32.5q0 -26 31 -43.5t82 -17.5q27 0 55 15t54 42.5t51 66t46 85.5q-66 63 -137 246q-33 82 -78 129t-91 47q-35 0 -63 -24q-29 -23 -29 -59q0 -33 19.5 -50.5t51.5 -17.5q29 0 46.5 13.5t17.5 34.5q0 26 -37 26q-21 0 -21 -21
q0 -10 6 -23q-15 0 -24 9.5t-9 19.5q0 19 15.5 35.5t40.5 16.5q20 0 32.5 -21t12.5 -50q0 -26 -21 -54t-49 -28q-35 0 -69 32q-33 31 -33 67q0 57 43 99t108 42q25 0 61 -19t70 -70t78 -183q51 -160 73 -176l130 264.5t54 102.5q-10 2 -27.5 4.5l-43.5 6.5l8 25
q40 -14 174 -27z" />
    <glyph glyph-name="afii10029" unicode="&#x41b;" horiz-adv-x="757" 
d="M443 599q-33 -39 -67 -116q-17 -38 -26 -74t-13 -68q-5 -38 -12.5 -80.5t-16.5 -80.5t-17.5 -67.5t-14.5 -41.5q-13 -26 -29 -45.5t-38 -34.5q-43 -31 -98 -25q-42 4 -66.5 30t-21.5 63q2 11 9.5 22t23.5 22q31 20 58 17q7 -1 15.5 -4.5t15 -9t11 -11t3.5 -10.5
q-2 -21 -17 -33t-36 -10q-14 1 -19.5 6.5t-3.5 20.5q16 -11 36 -14q5 0 12 3.5t8 8.5q1 24 -46 28q-41 4 -44 -21q-3 -31 24.5 -53t69.5 -26q51 -5 76.5 34t45.5 125q4 21 10.5 50l12.5 57l11 49.5t6 29.5q11 76 50 159t108 165l18 -1q0 -25 3 -57.5t9 -64.5t16.5 -80.5
l25.5 -114.5t29 -114.5t27 -80.5l26 -64l26 -66l95 1l3 -23q-186 9 -280 -6q-2 10 -3 16t0 10l101 1q-26 60 -55 203.5t-61 375.5z" />
    <glyph glyph-name="afii10058" unicode="&#x409;" horiz-adv-x="883" 
d="M649 276q-25 1 -25 21q0 14 10.5 25t23.5 11q16 0 27.5 -14.5t11.5 -34.5q0 -26 -17.5 -41t-39.5 -15q-26 0 -43 19t-17 49q0 43 37 79t82 36q33 0 62.5 -17.5t52 -44.5t35.5 -59.5t13 -63.5q0 -37 -16 -77t-42.5 -73.5t-62 -55t-74.5 -21.5q-51 0 -87.5 24t-54.5 70
q-29 76 -49.5 202t-42.5 304q-33 -39 -67 -116q-17 -38 -26 -74t-13 -68q-5 -38 -13 -83.5t-17 -87.5t-17.5 -74.5t-13.5 -44.5q-11 -26 -28 -45.5t-39 -34.5q-43 -31 -98 -25q-42 4 -66.5 30t-21.5 63q2 11 9.5 22t23.5 22q31 20 58 17q7 -1 15.5 -4.5t15 -9t11 -11
t3.5 -10.5q-2 -21 -17 -33t-36 -10q-14 1 -19.5 6.5t-3.5 20.5q16 -11 36 -14q5 0 12 3.5t8 8.5q1 24 -46 28q-41 4 -44 -21q-3 -31 24.5 -53t69.5 -26q25 -2 44 6.5t33 28t24.5 50.5t20.5 74l10.5 53l12.5 63.5l11 56.5t6 33q11 76 50 159t108 165l18 -1q0 -25 3 -57.5
t9 -64.5q2 -13 7 -42.5l12 -68.5t16 -84.5t20.5 -91t25.5 -88t30 -75t35 -52t40 -19.5q30 0 53.5 21.5t39.5 52.5t24.5 65.5t8.5 60.5q0 22 -7 51t-21 55t-34.5 43.5t-46.5 17.5q-18 0 -34 -7t-28.5 -18.5t-20 -27.5t-7.5 -34q0 -15 14.5 -28.5t29.5 -13.5q14 0 27.5 9
t13.5 19q0 19 -27 19q-10 0 -10 -11q0 -3 5 -18z" />
    <glyph glyph-name="afii10059" unicode="&#x40a;" horiz-adv-x="896" 
d="M665 276q-25 1 -25 21q0 14 10.5 25t23.5 11q16 0 27.5 -14.5t11.5 -34.5q0 -26 -17.5 -41t-39.5 -15q-26 0 -43 19t-17 49q0 43 37 79t82 36q33 0 62.5 -17.5t52 -44.5t35.5 -59.5t13 -63.5q0 -37 -16 -77t-42.5 -73.5t-62 -55t-74.5 -21.5q-25 0 -48.5 7.5t-43 21.5
t-34 33t-21.5 42q-7 21 -13.5 55t-11.5 69.5t-8.5 66t-4.5 44.5q-37 -13 -76.5 -22.5t-82.5 -17.5q-86 -15 -140 -15q0 -119 -1.5 -193.5t-5.5 -105.5q-6 -62 -32 -108q-26 -45 -74 -45q-25 0 -50 22t-25 54q0 18 26 38q25 19 45 19q25 0 38.5 -13.5t13.5 -28.5
q0 -12 -9 -21t-20 -9q-17 0 -22 23l5 4q9 -9 12 -9q10 0 10 17q0 7 -7 14.5t-14 7.5q-12 0 -22 -12.5t-10 -28.5q0 -24 9 -41t24 -17q39 0 60 44t21 125q0 58 -5.5 127.5t-16.5 151.5q-21 165 -54 315q-5 -1 -17 -1q-20 0 -48 3v22q159 -3 227 12v-26q-22 -2 -40 -4t-32 -4
q12 -218 12 -301q13 -1 24 -1h22q29 0 56.5 3t54.5 8q28 6 62.5 15.5t76.5 22.5q-10 76 -15 128.5t-5 81.5q0 67 38 111q39 44 96 44q38 0 67 -29q30 -29 30 -68q0 -21 -25 -43q-23 -22 -48 -22q-10 0 -20.5 4t-19 10.5t-14 13.5t-5.5 13q0 15 14.5 29t26.5 14
q17 0 21.5 -4.5t4.5 -12.5t-6 -18q-12 18 -22 18q-9 0 -9 -20q0 -14 10 -24.5t18 -10.5q6 0 11.5 6.5t10 17t7.5 23.5t3 25q0 10 -4 21t-10.5 20t-16.5 14.5t-22 5.5q-32 0 -53 -49q-21 -48 -21 -113q0 -37 3.5 -97t10.5 -144q6 -52 19 -103.5t31 -92t40 -66t46 -25.5
q30 0 53.5 21.5t39.5 52.5t24.5 65.5t8.5 60.5q0 22 -7 51t-21 55t-34.5 43.5t-46.5 17.5q-18 0 -34 -7t-28.5 -18.5t-20 -27.5t-7.5 -34q0 -15 14.5 -28.5t29.5 -13.5q14 0 27.5 9t13.5 19q0 19 -27 19q-10 0 -10 -11q0 -3 5 -18z" />
    <glyph glyph-name="uniE003" unicode="&#xe003;" horiz-adv-x="500" 
 />
    <glyph glyph-name="afii10018" unicode="&#x411;" horiz-adv-x="496" 
d="M259 276q-25 1 -25 21q0 14 10.5 25t23.5 11q16 0 27.5 -14.5t11.5 -34.5q0 -26 -17.5 -41t-39.5 -15q-26 0 -43 19t-17 49q0 43 37 79t82 36q62 0 112 -59q51 -59 51 -126q0 -87 -64 -157q-32 -35 -67.5 -50.5t-73.5 -19.5q-15 -2 -32.5 -1.5l-35 1t-34 1.5t-28.5 1
q-29 0 -58.5 -0.5t-60.5 -1.5l-2 26q52 -3 81 -3q30 210 30 391q0 81 -1.5 130t-3.5 68l-85 4l-2 23q31 -4 55 -5.5t43 -1.5q39 0 116 15q74 16 116 16q97 0 97 -90q0 -44 -29 -82q-28 -37 -62 -37q-10 0 -20 5.5t-17.5 14.5t-12 20.5t-4.5 23.5q0 32 15 50t38 18
q7 0 15 -4.5t14.5 -11.5t10.5 -15t4 -14q0 -34 -20 -34q-9 0 -17 8q20 15 20 26q0 18 -29 18q-20 0 -29 -4.5t-9 -23.5t18.5 -30t45.5 -11q23 0 35.5 20.5t12.5 51.5q0 12 -8 23t-21.5 19t-31.5 13t-38 5q-24 0 -96 -6q-35 -4 -59.5 -5.5t-38.5 -1.5q14 -120 21.5 -215.5
t7.5 -169.5q0 -88 -6 -203h71q35 0 68 15.5t53 46.5q41 62 41 138q0 61 -33 114t-76 53q-18 0 -34 -7t-28.5 -18.5t-20 -27.5t-7.5 -34q0 -15 14.5 -28.5t29.5 -13.5q14 0 27.5 9t13.5 19q0 19 -27 19q-10 0 -10 -11q0 -3 5 -18z" />
    <glyph glyph-name="afii10021" unicode="&#x414;" horiz-adv-x="666" 
d="M136 52q42 16 61 74q15 43 20 79.5t5.5 68t-1 59.5t-1.5 55q1 75 19.5 124.5t63.5 87.5t100.5 57t115.5 19q37 0 41 -1q-11 -50 -19.5 -98.5t-14.5 -99.5t-9.5 -107.5t-4.5 -122.5q0 -60 2.5 -109t8.5 -87q14 2 20.5 3t16.5 1q97 0 97 -90q0 -44 -29 -82q-28 -37 -62 -37
q-10 0 -20 5.5t-17.5 14.5t-12 20.5t-4.5 23.5q0 32 15 50t38 18q7 0 15 -4.5t14.5 -11.5t10.5 -15t4 -14q0 -34 -20 -34q-9 0 -17 8q20 15 20 26q0 18 -29 18q-20 0 -29 -4.5t-9 -23.5t18.5 -30t45.5 -11q23 0 35.5 20.5t12.5 51.5q0 12 -8 23.5t-21.5 20t-31.5 13t-38 3.5
q-43 -3 -89.5 -11t-110.5 -8q-20 0 -45 2t-51.5 4.5t-50.5 5.5t-42 6q-27 4 -49 -0.5t-37.5 -13.5t-24 -21t-8.5 -24q0 -31 12.5 -51.5t35.5 -20.5q27 0 45.5 11t18.5 30t-9 23.5t-29 4.5q-29 0 -29 -18q0 -11 20 -26q-8 -8 -17 -8q-20 0 -20 34q0 6 4 14t10.5 15t14.5 11.5
t15 4.5q23 0 38 -18t15 -50q0 -12 -4.5 -23.5t-12 -20.5t-17.5 -14.5t-20 -5.5q-34 0 -62 37q-29 38 -29 82q0 90 97 90q3 0 12 -0.5t17 -2.5zM171 45q48 -6 87.5 -9t76.5 -3t75.5 3t85.5 10q-16 87 -23 178.5t-7 177.5q0 67 5 129t15 121q-84 3 -138 -56q-27 -29 -43.5 -90
t-25.5 -155q-5 -48 -14 -93t-22.5 -85t-31.5 -72.5t-40 -55.5z" />
    <glyph glyph-name="afii10038" unicode="&#x424;" horiz-adv-x="688" 
d="M356 697q-19 -24 -28 -54.5t-10 -64t4 -69t13 -70.5q64 66 147 66q73 0 134 -73q63 -74 63 -165q0 -74 -55 -132q-54 -59 -120 -59q-32 0 -63 30q-31 28 -31 64q0 30 14.5 51t34.5 21q28 0 45.5 -18.5t17.5 -49.5q0 -13 -12.5 -25t-26.5 -12q-13 0 -23.5 7.5t-10.5 19.5
q0 10 5.5 16t11.5 6q9 0 17 -11q-13 -6 -13 -12q0 -12 11 -12q27 0 27 24q0 6 -4.5 12t-11 11t-15 8.5t-16.5 3.5q-12 0 -25 -12.5t-13 -29.5q0 -27 19 -49.5t48 -22.5q52 0 90 54q37 53 37 133q0 84 -43 145q-42 62 -93 62q-67 0 -107 -61q-8 -11 -14 -24.5t-11 -27.5
l21 -91t23 -107t18.5 -101.5t7.5 -72.5q0 -32 -9.5 -59.5t-33.5 -50.5q-47 -46 -107 -46q-48 0 -77 26.5t-29 74.5q0 25 25 47q23 22 55 22q56 0 56 -49q0 -12 -14.5 -23.5t-26.5 -11.5q-11 0 -21.5 7t-10.5 17q0 3 4.5 9.5t10.5 7.5q2 -29 15 -29q5 0 10.5 7.5t5.5 19.5
q0 14 -9.5 24t-22.5 10q-17 0 -29.5 -17.5t-12.5 -40.5q0 -38 20.5 -64.5t52.5 -26.5q34 0 63 38q28 37 28 92q0 14 -2 33.5t-4.5 39.5t-5.5 39.5t-4 34.5q-63 -60 -141 -60q-73 0 -134 73q-63 73 -63 165q0 74 55 132q54 59 120 59q31 0 63 -30q31 -28 31 -64
q0 -30 -14.5 -51t-34.5 -21q-28 0 -45.5 18.5t-17.5 49.5q0 13 12.5 25t26.5 12q13 0 23.5 -7.5t10.5 -19.5q0 -10 -5.5 -16t-11.5 -6q-9 0 -17 11q13 6 13 12q0 12 -11 12q-27 0 -27 -24q0 -6 4.5 -12t11 -11t15 -8.5t16.5 -3.5q12 0 25 12.5t13 29.5q0 27 -19 49.5
t-48 22.5q-53 0 -90 -54q-37 -53 -37 -133q0 -84 43 -145q42 -62 93 -62q67 0 107 61q14 24 24 50q-11 66 -24 121.5l-21 90.5q-6 24 -11 50.5t-8 50.5t-5 44t-2 30q0 31 13 59t34.5 49.5t49.5 34.5t58 13q48 0 77 -26.5t29 -74.5q0 -25 -25 -47q-23 -22 -55 -22
q-56 0 -56 49q0 12 14.5 23.5t26.5 11.5q11 0 21.5 -7t10.5 -17q0 -3 -4.5 -9.5t-10.5 -7.5q-2 29 -15 29q-5 0 -10.5 -7.5t-5.5 -19.5q0 -14 9.5 -24t22.5 -10q17 0 29.5 17.5t12.5 40.5q0 38 -20.5 64.5t-52.5 26.5q-34 0 -63 -38z" />
    <glyph glyph-name="afii10033" unicode="&#x41f;" horiz-adv-x="802" 
d="M205 613q-38 0 -70.5 -3.5t-56.5 -12.5t-37 -25t-12 -41q1 -15 18 -24t41 -8q16 1 28.5 11.5t11.5 22.5q0 7 -7.5 13.5t-14.5 6.5q-17 0 -17 -11q0 -2 9 -11l-4 -5q-23 3 -23 21q-1 11 8 20t21 10q15 0 29 -13t14 -38q1 -19 -17 -45q-19 -27 -37 -28q-34 0 -55 24
q-12 12 -17.5 24t-6.5 25q-1 28 13.5 49t36.5 34.5t49 20t51 7.5q164 3 302 7t259 15v-26q-22 -2 -40 -4t-32 -4q2 -73 3.5 -146t5.5 -146.5t11.5 -149t22.5 -154.5q25 2 42 6.5t43 15.5l8 -27q-31 -8 -55.5 -13t-44.5 -7t-44 -9.5t-53 -18.5l-2 33l79 17
q-17 75 -29.5 141.5t-22.5 130.5q-11 83 -24 166.5t-30 158.5l-264 -10q3 -54 5.5 -104.5l4.5 -93.5t3 -77t1 -55q0 -71 0.5 -107.5t0 -58.5t-2.5 -39l-6 -49q25 4 42 7.5t43 14.5l8 -27q-31 -8 -55.5 -13t-44.5 -7t-44 -9.5t-53 -18.5l-2 33l79 17q4 33 3.5 72t-4 76t-8 70
t-6.5 54l-25 161.5t-29 153.5z" />
    <glyph glyph-name="afii10025" unicode="&#x417;" horiz-adv-x="490" 
d="M255 344q39 -9 82 -27.5t71 -46.5q55 -59 55 -123q0 -66 -55 -121q-28 -29 -70.5 -48.5t-100.5 -19.5q-50 0 -90.5 13t-70 33.5t-45.5 46t-16 49.5q0 34 29 61q28 27 57 27q20 0 37.5 -15t17.5 -41q0 -13 -7.5 -24t-18.5 -11q-29 0 -29 21q0 12 8 15q10 -14 18 -14
q5 0 10.5 2.5t5.5 7.5q0 14 -15.5 23.5t-25.5 9.5q-50 0 -50 -49q0 -62 51 -96t133 -34q36 0 65 14t50 39t32.5 59.5t11.5 75.5q0 33 -19 62t-49 51t-66 33.5t-70 8.5q-5 0 -14.5 -0.5t-25.5 -1.5v47q35 -16 51 -16q38 0 68 7.5t53 35.5q47 54 47 130q0 46 -39 75
q-38 30 -88 30q-38 0 -72 -32q-35 -35 -35 -66q0 -13 16 -28t28 -15q21 0 37 12.5t16 29.5q0 29 -10 29q-28 0 -28 -26l2 -20q-5 0 -13.5 10t-8.5 15q0 6 5 12.5t13 11t16.5 7.5t16.5 3q9 0 29 -15q18 -14 18 -26q0 -24 -29 -41q-27 -17 -59 -17q-38 0 -61.5 27t-23.5 65
q0 34 62 58q61 24 111 24q69 0 120 -42q52 -43 52 -102q0 -38 -60 -93q-15 -14 -31 -24t-32 -18t-32.5 -14.5z" />
    <glyph glyph-name="afii10041" unicode="&#x427;" horiz-adv-x="556" 
d="M381 352q-3 65 -5 133t-2 141l-72 -2l1 23q45 -1 75.5 0.5t47.5 3.5t38 7t46 12l5 -25l-65 -13q-18 -230 -18 -399q0 -52 1.5 -104t3.5 -106h46t54 1l-2 -27q-26 2 -54 3.5t-57 1.5q-13 0 -37.5 -2.5t-62.5 -7.5v28l87 2q-10 66 -16.5 138.5t-11.5 153.5q-15 -21 -36 -37
t-43.5 -26.5t-46 -16t-44.5 -5.5q-33 0 -73 13t-68 39q-55 52 -55 128q0 30 18 68t41 61q12 12 22 25.5t18 27.5t12.5 26t4.5 21q0 52 -45 52q-19 0 -37 -11t-18 -28q0 -11 9 -19.5t20 -8.5q13 0 16 2.5t3 7.5q0 11 -21 16q10 12 17 12q9 0 16 -8t7 -19q0 -16 -13.5 -30
t-29.5 -14q-15 0 -28 15t-13 31q0 30 22 58q23 29 48 29q28 0 46 -23t18 -56q0 -45 -24 -87q-26 -46 -34 -81.5t-8 -61.5q0 -38 12.5 -68t33 -51t46 -32.5t52.5 -11.5q19 0 40 6.5t41.5 19t39 31.5t32.5 44z" />
    <glyph glyph-name="afii10040" unicode="&#x426;" horiz-adv-x="670" 
d="M548 -4q-118 3 -249.5 -1l-287.5 -9l-1 22l34 3.5t31 1.5q13 76 21 155l16 163q1 23 4 59.5t4.5 78t-0.5 82.5t-11 74q-1 0 -16.5 -0.5t-35.5 -0.5q-23 -1 -51 -1l1 23q45 -1 75.5 0.5t47.5 3.5t38 7t46 12l5 -25l-91 -17q10 -29 15 -60q3 -15 5 -29t4 -36.5t4 -58.5
t5 -95q1 -21 2 -55t1.5 -77t0.5 -94v-104l264 4q13 76 22 160t15 167q6 65 15.5 133t21.5 143l-97 -2l1 23q45 -1 75.5 0.5t47.5 3.5t38 7t46 12l5 -25l-87 -17q-11 -80 -14.5 -156.5t-4 -151t1.5 -148l4 -146.5q13 -1 28.5 -1.5t34.5 -2.5q38 -3 56.5 -19t18.5 -56
q0 -44 -29 -82q-28 -37 -62 -37q-10 0 -20 5.5t-17.5 14.5t-12 20.5t-4.5 23.5q0 32 15 50t38 18q7 0 15 -4.5t14.5 -11.5t10.5 -15t4 -14q0 -34 -20 -34q-9 0 -17 8q20 15 20 26q0 18 -29 18q-20 0 -29 -4.5t-9 -23.5t18.5 -30t45.5 -11q23 0 35.5 20.5t12.5 51.5
q0 23 -26 41.5t-63 19.5z" />
    <glyph glyph-name="uni040F" unicode="&#x40f;" horiz-adv-x="649" 
d="M119 625q-1 0 -16.5 -0.5t-35.5 -0.5q-23 -1 -51 -1l1 23q45 -1 75.5 0.5t47.5 3.5t38 7t46 12l5 -25l-91 -17q10 -29 15 -60q3 -15 5 -29t4 -36.5t4 -58.5t5 -95q1 -21 2 -55t1.5 -77t0.5 -94v-104l264 4q13 76 22 160t15 167q6 65 15.5 133t21.5 143l-97 -2l1 23
q45 -1 75.5 0.5t47.5 3.5t38 7t46 12l5 -25l-87 -17q-11 -80 -14.5 -156.5t-4 -151t1.5 -148l4 -146.5q14 -2 32 -2.5t40 -2.5l2 -26q-55 2 -117.5 3t-123.5 0q5 -11 3 -23.5t-2 -28.5q0 -44 -29 -82q-28 -37 -62 -37q-10 0 -20 5.5t-17.5 14.5t-12 20.5t-4.5 23.5
q0 32 20 50t43 18q14 0 24 -16t10 -29q0 -34 -20 -34q-9 0 -17 8q20 15 20 26q0 18 -29 18q-20 0 -29 -4.5t-9 -23.5t18.5 -30t45.5 -11q23 0 35.5 20.5t12.5 51.5q0 10 -4.5 21.5t-13.5 20.5t-22 14.5t-30 4.5l-121 -4t-131 -5l-1 22l34 3.5t31 1.5q13 76 21 155l16 163
q1 23 4 59.5t4.5 78t-0.5 82.5t-11 74z" />
    <glyph glyph-name="uni0428" unicode="&#x428;" horiz-adv-x="904" 
d="M471 548q3 19 2 46.5t-8.5 53t-21.5 44t-36 18.5q-12 0 -22 -5.5t-16.5 -14.5t-10.5 -20t-4 -21q0 -12 3 -25t7.5 -23.5t10 -17t11.5 -6.5q8 0 18 10.5t10 24.5q0 20 -9 20q-10 0 -22 -18q-6 10 -6 18t4.5 12.5t21.5 4.5q12 0 26.5 -14t14.5 -29q0 -6 -5.5 -13t-14 -13.5
t-19 -10.5t-20.5 -4q-25 0 -48 22q-25 22 -25 43q0 39 30 68q29 29 67 29q30 0 51 -13t33.5 -34.5t17.5 -50t4 -58.5q-15 -144 -27 -278t-9 -268l224 -3q13 76 22 160t15 167q6 65 15.5 133t21.5 143l-97 -2l1 23q45 -1 75.5 0.5t47.5 3.5t38 7t46 12l5 -25l-87 -17
q-11 -80 -14.5 -156.5t-4 -151t1.5 -148l4 -146.5q14 -2 32 -2.5t40 -2.5l2 -26q-42 0 -106 0.5t-140 0l-159.5 -1t-165 -1.5t-155 -2.5t-130.5 -3.5l-1 22l34 3.5t31 1.5q13 76 21 155l16 163q1 23 4 59.5t4.5 78t-0.5 82.5t-11 74q-1 0 -16.5 -0.5t-35.5 -0.5
q-23 -1 -51 -1l1 23q45 -1 75.5 0.5t47.5 3.5t38 7t46 12l5 -25l-91 -17q10 -29 15 -60q3 -15 5 -29t4 -36.5t4 -58.5t5 -95q1 -21 2 -55t1.5 -77t0.5 -94v-104l224 4q23 128 44 261t38 265z" />
    <glyph glyph-name="afii10060" unicode="&#x40b;" horiz-adv-x="691" 
d="M309 316q-1 -103 -9 -289q76 0 127 20v-31q-69 -10 -143 -12q-13 -1 -30.5 -3.5t-40.5 -7.5v27l61 4q0 49 -4 116t-12 152t-16.5 146t-18.5 99q-31 -7 -77 -13t-107 -12l7 -92l-26 -3q-2 44 -5.5 77t-8.5 56l25 4l4 -20q67 6 131 14.5t126 19.5q124 23 166 50
q43 28 43 82q0 31 -22.5 51t-61.5 20q-14 0 -27.5 -5.5t-24 -14t-17.5 -20t-7 -23.5q0 -19 12.5 -36t28.5 -17q17 0 27.5 10t10.5 25q0 7 -5.5 14.5t-13.5 7.5t-21 -10q-3 4 -3 10q0 10 8 17t17 7q16 0 29.5 -12t13.5 -24q0 -23 -20.5 -41t-47.5 -18q-29 0 -50.5 20
t-21.5 47q0 26 33 52q34 25 81 25t87 -28q41 -29 41 -67q0 -64 -52 -95q-54 -32 -190 -47q2 -57 3 -104.5t1 -86.5q15 20 35.5 35.5t43 26t45.5 15.5t44 5q33 0 73 -13t68 -39q55 -52 55 -128q0 -31 -18 -68q-18 -38 -41 -61q-12 -12 -22 -25.5t-18 -27.5t-12.5 -26
t-4.5 -21q0 -52 45 -52q19 0 37 11t18 28q0 11 -9 19.5t-20 8.5q-13 0 -16 -2.5t-3 -7.5q0 -12 21 -16q-11 -12 -17 -12q-9 0 -16 8t-7 19q0 16 13.5 30t29.5 14q15 0 28 -15t13 -31q0 -30 -22 -58q-23 -29 -48 -29q-28 0 -46 23t-18 56q0 45 24 87q26 46 34 81.5t8 61.5
q0 38 -12.5 68t-33 51t-46 32.5t-52.5 11.5q-19 0 -40 -6.5t-41.5 -19t-39.5 -31.5t-32 -44z" />
    <glyph glyph-name="afii10051" unicode="&#x402;" horiz-adv-x="684" 
d="M530 -20q27 19 42.5 50t23 65t9 66t1.5 53q0 49 -11 87t-30.5 63.5t-46 39t-56.5 13.5q-19 0 -40 -6.5t-41.5 -19t-39.5 -31.5t-32 -44q-1 -103 -9 -289q9 0 30.5 2.5t46.5 12.5v-31q-27 -5 -53 -5.5t-40 -1.5q-13 -1 -30.5 -3.5t-40.5 -7.5v27l61 4q0 49 -4 116t-12 152
t-16.5 146t-18.5 99q-31 -7 -77 -13t-107 -12l7 -92l-26 -3q-2 44 -5.5 77t-8.5 56l25 4l4 -20q67 6 131 14.5t126 19.5q124 23 166 50q43 28 43 82q0 31 -22.5 51t-61.5 20q-14 0 -27.5 -5.5t-24 -14t-17.5 -20t-7 -23.5q0 -19 12.5 -36t28.5 -17q17 0 27.5 10t10.5 25
q0 7 -5.5 14.5t-13.5 7.5t-21 -10q-3 4 -3 10q0 10 8 17t17 7q16 0 29.5 -12t13.5 -24q0 -23 -20.5 -41t-47.5 -18q-29 0 -50.5 20t-21.5 47q0 26 33 52q34 25 81 25t87 -28q41 -29 41 -67q0 -64 -52 -95q-54 -32 -190 -47q2 -57 3 -104.5t1 -86.5q15 20 35.5 35.5t43 26
t45.5 15.5t44 5q48 0 84.5 -17t61 -46.5t37.5 -70t13 -86.5q0 -40 -12.5 -79.5t-32.5 -74.5t-45 -62t-50 -41q-29 -16 -58 -11t-43 29q-12 22 2 56q15 33 40 48q7 4 16 4.5t18 -1t16 -6t11 -11.5q8 -14 2 -32.5t-20 -26.5q-10 -5 -20 -3t-15 10q-3 5 2 21q15 -17 25 -11
q5 3 5 7t-6 15q-5 10 -16.5 13.5t-21.5 -2.5q-8 -4 -12 -12t-4.5 -17.5t1.5 -19.5t7 -18q22 -39 68 -14z" />
    <glyph glyph-name="afii10065" unicode="&#x430;" horiz-adv-x="361" 
d="M225 147q-42 -2 -66.5 -6.5t-40.5 -23.5q-15 -18 -15 -39q0 -19 10.5 -32t27.5 -13q29 0 67 38l17 76v0zM160 320q-3 -20 -23 -20q-11 0 -17.5 7.5t-6.5 19.5q0 14 12.5 26.5t26.5 12.5q66 0 66 -38q0 -32 -34 -59q-35 -26 -58 -26q-29 0 -49 16.5t-20 43.5q0 56 53 115
q54 59 111 59q24 0 44.5 -11t35.5 -29.5t23.5 -44.5t8.5 -56q0 -43 -12 -73q-13 -32 -36 -71q-63 -104 -63 -190v-10t1 -10h-20l1 65q-61 -40 -88 -40q-33 0 -54.5 20t-21.5 53q0 31 32 54q31 24 71 24q27 0 89 6q36 79 36 140q0 142 -65 142q-60 0 -85.5 -38.5
t-25.5 -105.5q0 -19 11 -32t27 -13q10 0 20 5t18 13.5t13 19t5 21.5q0 12 -11 21t-25 9q-6 0 -10.5 -6t-4.5 -12q0 -12 10 -12q8 0 15 4z" />
    <glyph glyph-name="afii10083" unicode="&#x441;" horiz-adv-x="407" 
d="M320 24q-54 -14 -87 -14q-82 0 -138 71q-56 73 -56 168q0 87 68 157q69 70 156 70q41 0 81 -25q42 -26 42 -60q0 -29 -28 -56q-27 -27 -58 -27q-28 0 -50 15t-22 39q0 22 14 34.5t39 12.5q14 0 25.5 -7t11.5 -18q0 -7 -9 -14t-17 -7h-6q5 18 5 21q0 12 -15 12
q-9 0 -15.5 -10.5t-6.5 -20.5q0 -39 36 -39q24 0 39.5 18t15.5 43q0 15 -7 28.5t-18.5 23t-26.5 15.5t-31 6q-66 0 -111 -69q-44 -70 -44 -146q0 -86 34 -153t92 -67q44 0 66 37l21 -38v0z" />
    <glyph glyph-name="afii10070" unicode="&#x435;" horiz-adv-x="421" 
d="M292 105q23 0 23 -22q0 -14 -12.5 -24t-23.5 -10q-14 0 -29 13.5t-15 33.5q0 28 18 44t45 16q32 0 53.5 -23t21.5 -58q0 -41 -37 -66q-36 -24 -79 -24q-79 0 -147 65q-68 66 -68 160q0 88 66 160q66 73 140 73q57 0 103 -37q48 -38 48 -77q0 -25 -11 -46t-30 -36
t-45.5 -23t-56.5 -8q-60 0 -92 16.5t-32 46.5q0 27 20 44t42 17q19 0 35 -10t16 -24t-11 -27t-21 -13q-20 0 -20 14q23 6 23 22q0 12 -9 19t-21 7q-9 0 -16.5 -14.5t-7.5 -29.5q0 -21 30.5 -36.5t73.5 -15.5q37 0 57.5 22.5t20.5 60.5q0 39 -30 75q-28 37 -73 37
q-55 0 -92 -61q-38 -62 -38 -165q0 -87 43 -142q44 -56 108 -56q30 0 59 20q30 21 30 53q0 22 -21 37t-46 15q-13 0 -23 -9t-10 -21q0 -21 25 -21q7 0 11.5 9t4.5 19z" />
    <glyph glyph-name="afii10108" unicode="&#x45b;" horiz-adv-x="617" 
d="M547 21q-26 -2 -26 24q0 13 13 24.5t27 11.5q9 0 29 -9q19 -7 19 -31q0 -21 -6.5 -38.5t-18 -31t-26 -21t-30.5 -7.5q-21 0 -42 26q-21 25 -21 52q0 39 26 105t26 113q0 158 -118 158q-39 0 -74 -41q-34 -40 -34 -64l4 -151l4 -151q14 1 32 1.5t41 -0.5l-2 -26
q-27 3 -69 3q-35 0 -61.5 -1.5t-45.5 -5.5l-1 23q25 0 45 1t36 3q2 45 -5 128t-21 206q-8 66 -16 124t-16 109q-69 6 -93 6q-20 0 -38 -5t-31.5 -13t-21.5 -19t-8 -23q0 -31 12.5 -51.5t35.5 -20.5q27 0 45.5 11t18.5 30t-9 23.5t-29 4.5q-29 0 -29 -18q0 -11 20 -26
q-8 -8 -17 -8q-20 0 -20 34q0 6 4 14t10.5 15t14.5 11.5t15 4.5q23 0 38 -18t15 -50q0 -12 -4.5 -23.5t-12 -20.5t-17.5 -14.5t-20 -5.5q-34 0 -62 37q-29 38 -29 82q0 90 97 90q38 0 110 -15q-6 35 -12 65t-12 57q-21 -3 -69 -6l-1 20q66 1 204 27l1 -19q-18 -4 -32.5 -6.5
l-25.5 -4.5q3 -25 6 -60.5t5 -82.5q24 -3 44.5 -4.5t33.5 -1.5q19 0 43 1.5t55 5.5l-2 -23l-112 -7q-12 -1 -27 -0.5t-33 1.5l12 -216q21 48 60 75.5t81 27.5q65 0 107 -47q43 -46 43 -102q0 -74 -61 -162q-18 -27 -26 -45t-8 -43q0 -32 24 -45q26 -14 43 -14q16 0 25 11
t9 28t-9 33t-20 16q-14 0 -14 -27q0 -14 4 -18z" />
    <glyph glyph-name="afii10076" unicode="&#x43a;" horiz-adv-x="468" 
d="M100 435q-13 0 -30.5 1.5l-39.5 3.5l2 18q23 -2 46.5 -3t53.5 -1q34 0 56.5 1.5t42.5 3.5v-14q-49 -2 -74 -6q-2 -22 -4.5 -42l-5 -41.5l-5 -44.5l-5.5 -51l225 166q-3 3 -24 18q-21 16 -28 26l13 15q67 -66 135 -84l-2 -15q-39 7 -63 24q-100 -72 -164 -111.5t-73 -47.5
q19 -2 38.5 -6t36.5 -10t30 -14.5t19 -17.5q14 -20 15 -34q1 -7 1 -23v-38q-1 -28 4 -45t14 -26t22 -12.5t28 -5.5q15 0 27 6.5t21 16.5t13.5 23t4.5 26q0 36 -39 36q-13 0 -18.5 -2.5t-5.5 -12.5q0 -12 19 -12q3 0 9 2.5t9 2.5q1 -3 1 -8q0 -9 -6.5 -15t-16.5 -6
q-15 0 -22.5 11t-7.5 27q0 14 18 31q19 17 36 17q20 0 32 -19.5t12 -44.5q0 -48 -32.5 -75t-89.5 -27q-16 0 -30 7t-24.5 17.5t-16.5 24t-6 27.5q0 35 -14 88q-3 13 -13.5 24.5t-25 20.5t-31.5 16.5t-35 13.5l-26 -203l79 -4l-4 -23q-48 7 -93 10t-83 1l3 23l78 -3
q2 26 4 58t3.5 73.5t3 92.5t2.5 115q0 16 0.5 31t0.5 29z" />
    <glyph glyph-name="afii10072" unicode="&#x436;" horiz-adv-x="712" 
d="M336 235q-35 -10 -62.5 -32t-37.5 -48q-7 -21 -11.5 -48t-13.5 -51t-26 -40.5t-50 -17.5q-28 -1 -50 7.5t-37 23.5t-22.5 35t-5.5 44q2 25 15 43.5t33 17.5q19 -2 36 -19q15 -18 15 -33q-1 -16 -9.5 -26.5t-23.5 -8.5q-10 0 -16 6.5t-5 15.5q0 2 0.5 4t0.5 4q3 0 9 -3
t9 -4q20 0 19 11q2 10 -3.5 13t-18.5 4q-39 3 -41 -34q-1 -13 3 -26.5t12 -24.5t19.5 -17.5t26.5 -6.5q15 1 28 3.5t23 11t16 25t7 44.5q1 33 5 55t16 38q14 19 46.5 35t70.5 16q-8 8 -55.5 49l-142.5 120q-13 -8 -29 -12.5t-36 -6.5v15q67 12 140 74l11 -16
q-3 -5 -10.5 -11t-18.5 -13l-17 -11t-8 -5l190 -175v104q-1 16 -0.5 31t-0.5 29q-13 -1 -30.5 0t-39.5 3l2 18q23 -2 46.5 -2.5t53.5 0.5q34 1 58.5 3t44.5 5l1 -14q-24 -2 -42.5 -4t-31.5 -4q-2 -22 -4 -40.5l-4 -37.5t-4 -41t-4 -50l201 171q-4 4 -25 18q-20 14 -28 25
l12 15q67 -63 137 -80l-1 -15q-41 6 -64 22l-151.5 -115.5t-61.5 -48.5q19 -1 37 -6.5t33.5 -13t27 -17t18.5 -18.5q6 -10 9.5 -18.5t5 -18.5t2.5 -23.5t1 -34.5q0 -28 5 -44.5t14.5 -25.5t22.5 -12.5t28 -4.5q15 0 27 6.5t20.5 17t12.5 23.5t4 26q0 37 -40 35
q-13 0 -18.5 -2.5t-4.5 -12.5q0 -12 19 -12q3 0 9 3t9 3q1 -3 1 -8q0 -9 -6 -15.5t-16 -6.5q-15 0 -23 10.5t-8 26.5q-2 15 17 32q18 16 36 18q20 0 32 -19t13 -44q2 -48 -30 -75.5t-89 -29.5q-34 -1 -50.5 16t-24.5 42t-11 53.5t-9 50.5q-8 26 -35 48.5t-63 33.5l-20 -213
l79 -2l-4 -23q-48 5 -95.5 7t-85.5 -1l3 24l78 -2q2 35 2.5 89.5t1.5 120.5z" />
    <glyph glyph-name="afii10080" unicode="&#x43e;" 
d="M252 328q-8 -11 -17 -11q-6 0 -11.5 6t-5.5 16q0 12 10.5 19.5t23.5 7.5q14 0 26.5 -12t12.5 -25q0 -31 -17.5 -49.5t-45.5 -18.5q-20 0 -34.5 21t-14.5 51q0 36 31 64q31 30 63 30q66 0 120 -59q55 -58 55 -132q0 -92 -63 -165q-61 -73 -134 -73q-83 0 -147 66
q-65 67 -65 156q0 76 60 144q60 69 141 87l6 -12q-63 -11 -103 -72q-41 -62 -41 -133q0 -98 41 -160q40 -61 107 -61q51 0 93 62q43 61 43 145q0 80 -37 133q-38 54 -90 54q-29 0 -48 -22.5t-19 -49.5q0 -17 13 -29.5t25 -12.5q8 0 16.5 3.5t15 8.5t11 11t4.5 12
q0 24 -27 24q-11 0 -11 -12q0 -6 13 -12z" />
    <glyph glyph-name="afii10082" unicode="&#x440;" 
d="M238 348q0 10 4 14t17 4q11 0 24 -16q15 -17 15 -24q0 -20 -25 -38q-24 -18 -48 -18q-28 0 -43.5 17.5t-15.5 46.5q0 25 35 57t68 32q82 0 132 -54q51 -54 51 -138q0 -67 -65 -130q-65 -62 -157 -62q-53 0 -107 55q-9 -117 -9 -187q0 -45 3 -76q29 1 70 17l3 -28
q-53 -12 -84 -12q-11 0 -32 -1.5t-53 -3.5l1 21q30 2 49 3t27 1q-10 71 -14.5 156t-4.5 186q0 178 16 261q-11 -2 -33.5 -7t-54.5 -15l-4 21q92 20 166 49q-19 -59 -31 -186q-12 -125 -12 -165q48 -67 120 -67q53 0 95 53q43 52 43 121q0 73 -34 122q-33 50 -77 50
q-29 0 -50 -22t-21 -54q0 -18 11 -32t22 -14q14 0 22 11t8 26q0 26 -27 26z" />
    <glyph glyph-name="afii10087" unicode="&#x445;" horiz-adv-x="438" 
d="M369 124q6 -5 6 -11q0 -11 -11.5 -18.5t-22.5 -7.5q-15 0 -24.5 10.5t-9.5 24.5t18 29q19 16 32 16q15 0 28 -6t23 -16.5t16 -23.5t6 -26q0 -28 -30 -53q-29 -24 -61 -24q-25 0 -46 9.5t-40 30.5t-37.5 54.5t-39.5 81.5q-85 -79 -108 -182l67 -9l-4 -21q-55 8 -94 17
t-62 17l2 21q22 -7 37 -11t24 -6q7 23 16.5 44.5t21.5 41.5q24 40 90 105q-70 176 -89 207l-56 -20l-7 20q105 28 125 47q8 -42 23.5 -97.5t38.5 -124.5q79 89 91 178q-10 2 -39 -4l-1 23q5 -1 11 -1h13q73 0 98 19l6 -21q-4 -1 -11.5 -2.5l-15.5 -3t-15 -3.5t-10 -3
q0 -9 -23 -66q-23 -56 -97 -138q40 -117 63 -151q22 -33 66 -33q12 0 23 7t19 17.5t12.5 24t4.5 26.5q0 41 -26 41q-31 0 -31 -29q0 -16 11 -16q9 0 19 16z" />
    <glyph glyph-name="afii10085" unicode="&#x443;" horiz-adv-x="453" 
d="M368 448q3 -5 3 -9q0 -8 -8.5 -16t-15.5 -8q-15 0 -27 15.5t-12 29.5q0 22 19 44t38 22q26 0 49 -23t23 -49q0 -28 -13 -66q-12 -40 -61 -136q-50 -96 -72 -150q-11 -27 -19.5 -54t-15.5 -55q-27 -112 -67 -134t-63 -22q-38 0 -61.5 17.5t-23.5 41.5q0 25 26.5 43.5
t60.5 18.5q15 0 26.5 -10.5t11.5 -25.5q0 -13 -16 -24t-31 -11q-12 0 -12 10q6 0 15 8.5t9 20.5q0 18 -13 18q-20 0 -32.5 -9.5t-12.5 -26.5q0 -22 17.5 -40t40.5 -18q26 0 51 40q27 41 39 82l17 50l24 67q-89 251 -172 353q-11 -3 -28.5 -8.5t-40.5 -13.5l-5 19
q49 10 131 50q27 -34 49.5 -90t42.5 -128l41 -144l76 153q32 64 42.5 100t10.5 60q0 23 -15 37.5t-39 14.5q-11 0 -18.5 -6t-7.5 -15q0 -29 16 -29q9 0 23 6z" />
    <glyph glyph-name="afii10074" unicode="&#x438;" horiz-adv-x="600" 
d="M222 87q41 40 72.5 74t58.5 67.5t52.5 70l55.5 82.5q-2 11 -2.5 20.5t-2.5 18.5h-52l3 21q85 -4 163 17l4 -20l-51 -11q-5 -81 -7 -184t-1 -233q24 0 74 6v-27q-21 0 -63.5 -2t-95.5 -10v27l62 2l-26 335l-55 -72.5l-64 -81.5l-66 -78.5t-61 -64.5l-2 -34q25 0 75 6v-27
q-21 0 -63.5 -2t-95.5 -10v27l63 2q0 191 -18 368q-5 44 -19 77q-21 49 -53 49q-12 0 -22 -5.5t-16.5 -14.5t-10.5 -20t-4 -21q0 -12 3 -25t7.5 -23.5t10 -17t11.5 -6.5q8 0 18 10.5t10 24.5q0 20 -9 20q-10 0 -22 -18q-6 10 -6 18t4.5 12.5t21.5 4.5q12 0 26.5 -14
t14.5 -29q0 -6 -5.5 -13t-14 -13.5t-19 -10.5t-20.5 -4q-25 0 -48 22q-25 22 -25 43q0 39 30 68q29 29 67 29q57 0 96 -44q37 -42 32 -111z" />
    <glyph glyph-name="afii10099" unicode="&#x452;" horiz-adv-x="627" 
d="M399 397q-39 0 -74 -41q-34 -40 -34 -64l4 -151l4 -151q14 1 32 1.5t41 -0.5l-2 -26q-27 3 -69 3q-35 0 -61.5 -1.5t-45.5 -5.5l-1 23q25 0 45 1t36 3q2 45 -5 128t-21 206q-8 66 -16 124t-16 109q-69 6 -93 6q-20 0 -38 -5t-31.5 -13t-21.5 -19t-8 -23q0 -31 12.5 -51.5
t35.5 -20.5q27 0 45.5 11t18.5 30t-9 23.5t-29 4.5q-29 0 -29 -18q0 -11 20 -26q-8 -8 -17 -8q-20 0 -20 34q0 6 4 14t10.5 15t14.5 11.5t15 4.5q23 0 38 -18t15 -50q0 -12 -4.5 -23.5t-12 -20.5t-17.5 -14.5t-20 -5.5q-34 0 -62 37q-29 38 -29 82q0 90 97 90q38 0 110 -15
q-6 35 -12 65t-12 57q-21 -3 -69 -6l-1 20q66 1 204 27l1 -19q-18 -4 -32.5 -6.5l-25.5 -4.5q3 -25 6 -60.5t5 -82.5q24 -3 44.5 -4.5t33.5 -1.5q19 0 43 1.5t55 5.5l-2 -23l-112 -7q-12 -1 -27 -0.5t-33 1.5l12 -216q21 48 60 75.5t81 27.5q48 0 82.5 -22.5t57 -59.5
t33 -83t10.5 -92q0 -59 -8 -110t-22.5 -92t-34.5 -70.5t-45 -44.5q-29 -17 -58 -11.5t-43 29.5q-12 22 2 56q15 33 40 48q7 4 16 4.5t18 -1t16 -6t11 -11.5q8 -14 2 -32.5t-20 -26.5q-10 -5 -20 -3t-15 10q-3 5 2 21q15 -17 25 -11q5 3 5 7t-6 15q-5 10 -16.5 13.5
t-21.5 -2.5q-8 -4 -12 -12t-4.5 -17.5t1.5 -19.5t7 -18q11 -20 28 -25t40 11q28 24 43.5 71.5t19.5 105t-4.5 118t-29 110t-53 81t-77.5 31.5z" />
    <glyph glyph-name="afii10079" unicode="&#x43d;" horiz-adv-x="598" 
d="M477 209q-59 -8 -123.5 -15t-127.5 -11l-8 -173q25 0 75 6v-27q-21 0 -63.5 -2t-95.5 -10v27l63 2q0 191 -18 368q-5 44 -19 77q-21 49 -53 49q-12 0 -22 -5.5t-16.5 -14.5t-10.5 -20t-4 -21q0 -12 3 -25t7.5 -23.5t10 -17t11.5 -6.5q8 0 18 10.5t10 24.5q0 20 -9 20
q-10 0 -22 -18q-6 10 -6 18t4.5 12.5t21.5 4.5q12 0 26.5 -14t14.5 -29q0 -6 -5.5 -13t-14 -13.5t-19 -10.5t-20.5 -4q-25 0 -48 22q-25 22 -25 43q0 39 30 68q29 29 67 29q57 0 96 -44q37 -42 32 -111l-10 -154q35 0 65.5 1t60 4t59 8t62.5 12l-18 187h-52l3 21
q85 -4 163 17l4 -20l-51 -11q-5 -81 -7 -184t-1 -233q24 0 74 6v-27q-21 0 -63.5 -2t-95.5 -10v27l62 2z" />
    <glyph glyph-name="afii10107" unicode="&#x45a;" horiz-adv-x="767" 
d="M516 -15q-21 -3 -42 -4.5t-44 -3.5v27l62 2l-15 203q-59 -8 -123.5 -15t-127.5 -11l-8 -173q25 0 75 6v-27q-21 0 -63.5 -2t-95.5 -10v27l63 2q0 191 -18 368q-5 44 -19 77q-21 49 -53 49q-12 0 -22 -5.5t-16.5 -14.5t-10.5 -20t-4 -21q0 -12 3 -25t7.5 -23.5t10 -17
t11.5 -6.5q8 0 18 10.5t10 24.5q0 20 -9 20q-10 0 -22 -18q-6 10 -6 18t4.5 12.5t21.5 4.5q12 0 26.5 -14t14.5 -29q0 -6 -5.5 -13t-14 -13.5t-19 -10.5t-20.5 -4q-25 0 -48 22q-25 22 -25 43q0 39 30 68q29 29 67 29q57 0 96 -44q37 -42 32 -111l-10 -154q35 0 65.5 1t60 4
t59 8t62.5 12l-18 187h-52l3 21q85 -4 163 17l4 -20l-51 -11q-5 -81 -7 -184t-1 -233q22 2 51.5 6t57.5 17t48.5 37t25.5 65q5 50 -6 83t-43 38q-24 4 -40.5 -15t-21.5 -52q-1 -10 0 -21t5 -20.5t9.5 -16.5t13.5 -8q7 -1 16 9t11 25q2 7 -2.5 13.5t-10.5 7.5t-19 0
q3 25 33 22q17 -3 26.5 -15.5t6.5 -29.5q-3 -21 -23.5 -36t-42.5 -12q-29 5 -49 30q-25 26 -20 52q6 40 40 65q32 26 73 20q28 -4 48 -17t32.5 -32t17 -43t2.5 -49q-3 -39 -25 -65t-55.5 -43t-75 -26.5t-82.5 -13.5z" />
    <glyph glyph-name="afii10077" unicode="&#x43b;" horiz-adv-x="566" 
d="M202 112q12 40 23 90.5t32 101t57.5 96.5t99.5 78q4 -58 13.5 -121t23.5 -132q13 -70 30 -119t25 -75l51 -4l-3 -24q-61 9 -95 6q-18 0 -41 -2.5t-51 -7.5l-3 23l60 7l-25 204q-5 45 -7.5 94l-5.5 105q-39 -21 -65 -59t-44 -84t-30 -94t-24 -90q-16 -56 -54 -89
q-20 -15 -37 -21.5t-34 -1.5q-49 12 -74 58q-27 46 -14 92q4 11 11 22t20 21q25 19 45 14q26 -7 46 -37q19 -30 10 -59q-13 -52 -51 -41q-11 3 -19.5 16.5t-6.5 22.5q6 19 28 13q-8 -23 4 -26q10 -2 21 3.5t13 14.5q4 15 -10.5 29.5t-34.5 19.5q-18 5 -33 -8t-21 -36
q-7 -26 9 -48t48 -31q17 -5 34.5 -0.5t33 15.5t27.5 27.5t18 36.5z" />
    <glyph glyph-name="afii10106" unicode="&#x459;" horiz-adv-x="717" 
d="M414 478q4 -58 13.5 -121t23.5 -132q12 -67 29 -115.5t25 -74.5q21 3 45 10t44.5 20.5t35 35t18.5 54.5q5 50 -6 83t-43 38q-24 4 -40.5 -15t-21.5 -52q-1 -10 0 -21t5 -20.5t9.5 -16.5t13.5 -8q7 -1 16 9t11 25q2 7 -2.5 13.5t-10.5 7.5t-19 0q3 25 33 22
q17 -3 26.5 -15.5t6.5 -29.5q-3 -21 -23.5 -36t-42.5 -12q-29 5 -49 30q-25 26 -20 52q6 40 40 65q32 26 73 20q28 -4 48 -17t32.5 -32t17 -43t2.5 -49q-3 -39 -25 -65t-55.5 -43t-75 -26.5t-82.5 -13.5q-21 -3 -48.5 -6t-50.5 -5l-3 25l60 7l-25 207q-5 45 -7.5 94
l-5.5 105q-39 -21 -65 -59t-44 -84t-30 -94t-24 -90q-16 -56 -54 -89q-20 -15 -37 -21.5t-34 -1.5q-49 12 -74 58q-27 46 -14 92q4 11 11 22t20 21q25 19 45 14q26 -7 46 -37q19 -30 10 -59q-13 -52 -51 -41q-11 3 -19.5 16.5t-6.5 22.5q6 19 28 13q-8 -23 4 -26
q10 -2 21 3.5t13 14.5q4 15 -10.5 29.5t-34.5 19.5q-18 5 -33 -8t-21 -36q-7 -26 9 -48t48 -31q17 -5 34.5 -0.5t33 15.5t27.5 27.5t18 36.5q12 40 23 91t32 102t57.5 96.5t99.5 76.5z" />
    <glyph glyph-name="afii10088" unicode="&#x446;" horiz-adv-x="591" 
d="M468 -4q-59 1 -109 1q-49 0 -100.5 -1.5t-110.5 -4t-137 -5.5l-1 22l34.5 3.5t31.5 1.5q5 81 7.5 187t1.5 236q-25 0 -74 -6v27q21 0 63.5 2t95.5 10v-27l-62 -2l36 -422l228 4q5 81 7 182.5t1 231.5q-24 0 -73 -6v27q21 0 63.5 2t95.5 10v-27l-63 -2l36 -415
q13 -1 28.5 -1.5t34.5 -2.5q38 -3 56.5 -19t18.5 -56q0 -44 -29 -82q-28 -37 -62 -37q-10 0 -20 5.5t-17.5 14.5t-12 20.5t-4.5 23.5q0 32 15 50t38 18q7 0 15 -4.5t14.5 -11.5t10.5 -15t4 -14q0 -34 -20 -34q-9 0 -17 8q20 15 20 26q0 18 -29 18q-20 0 -29 -4.5t-9 -23.5
t18.5 -30t45.5 -11q23 0 35.5 20.5t12.5 51.5q0 23 -26 41.5t-63 19.5z" />
    <glyph glyph-name="afii10193" unicode="&#x45f;" horiz-adv-x="546" 
d="M382 21q5 81 7 183t1 232q-24 0 -73 -6v27q21 0 63.5 2t95.5 10v-27l-63 -2l36 -415q14 -2 32 -2.5t40 -2.5l2 -26q-55 2 -103 3t-109 0q11 -22 11 -52q0 -44 -29 -82q-28 -37 -62 -37q-10 0 -20 5.5t-17.5 14.5t-12 20.5t-4.5 23.5q0 32 15 50t38 18q7 0 15 -4.5
t14.5 -11.5t10.5 -15t4 -14q0 -34 -20 -34q-9 0 -17 8q20 15 20 26q0 18 -29 18q-20 0 -29 -4.5t-9 -23.5t18.5 -30t45.5 -11q23 0 35.5 20.5t12.5 51.5q0 10 -6 21.5t-17 20.5t-25.5 14.5t-31.5 4.5q-30 -1 -52 -2l-43.5 -2t-46 -2.5t-59.5 -2.5l-1 22q20 2 34.5 3t31.5 2
q5 81 7.5 187t1.5 236q-25 0 -74 -6v27q21 0 63.5 2t95.5 10v-27l-62 -2l36 -422z" />
    <glyph glyph-name="afii10090" unicode="&#x448;" horiz-adv-x="770" 
d="M389 20l218 1q5 81 7 183t1 232q-24 0 -73 -6v27q21 0 63.5 2t95.5 10v-27l-63 -2l36 -415q14 -2 32 -2.5t40 -2.5l2 -26q-27 0 -61.5 0.5t-71.5 0.5h-72h-66q-55 0 -124.5 0.5t-130.5 -0.5q-30 -1 -52 -2l-43.5 -2t-46 -2.5t-59.5 -2.5l-1 22q20 2 34.5 3t31.5 2
q5 81 7.5 187t1.5 236q-25 0 -74 -6v27q21 0 63.5 2t95.5 10v-27l-62 -2l36 -422l168 3q5 75 6.5 168.5t1.5 210.5q0 17 4 37t14 37t26.5 29t41.5 13q10 0 20 -5t18 -13.5t13.5 -20t5.5 -23.5q2 -32 -12.5 -50.5t-37.5 -19.5q-7 0 -15 4t-15 10.5t-11.5 14.5t-4.5 14
q-1 33 19 35q8 0 17 -7q-19 -16 -19 -27q2 -18 30 -17q20 1 29 6t8 24q-2 19 -20.5 29.5t-45.5 8.5q-23 -1 -32 -22t-7 -52z" />
    <glyph glyph-name="afii10086" unicode="&#x444;" horiz-adv-x="659" 
d="M410 -152l-3 -21q-85 4 -163 -17l-4 20l70 13q12 10 18 28.5t8.5 37t2.5 34.5v22q0 29 -1 54.5t-4 54.5q-32 -30 -68.5 -45t-75.5 -15q-34 0 -66.5 18t-57.5 48.5t-40 69.5t-15 81q0 34 10 69.5t29.5 65t48.5 48t67 18.5q31 0 63 -30q31 -28 31 -64q0 -30 -14.5 -51
t-34.5 -21q-28 0 -45.5 18.5t-17.5 49.5q0 13 12.5 25t26.5 12q13 0 23.5 -7.5t10.5 -19.5q0 -10 -5.5 -16t-11.5 -6q-9 0 -17 11q13 6 13 12q0 12 -11 12q-27 0 -27 -24q0 -6 4.5 -12t11 -11t15 -8.5t16.5 -3.5q12 0 25 12.5t13 29.5q0 27 -19 49.5t-48 22.5q-37 0 -59 -21
t-33.5 -50t-15 -61.5t-3.5 -54.5t9 -54.5t25 -63t38.5 -52t49.5 -21.5q33 0 60 12.5t47 43.5q14 24 24 50q-5 33 -13.5 73.5l-17.5 79.5l-17 71.5l-12 49.5q-11 43 -16 76.5t-5 63.5t5 58t16 60l-72 -2l3 21q85 -4 163 17l4 -20l-70 -12q-14 -27 -15 -59.5t6 -70.5t19 -81.5
l25 -92.5q32 30 69.5 45.5t76.5 15.5q34 0 65.5 -18t55.5 -48.5t38 -69.5t14 -81q0 -34 -10 -69.5t-29.5 -65t-48.5 -48t-67 -18.5q-32 0 -63 30q-31 28 -31 64q0 30 14.5 51t34.5 21q28 0 45.5 -18.5t17.5 -49.5q0 -13 -12.5 -25t-26.5 -12q-13 0 -23.5 7.5t-10.5 19.5
q0 10 5.5 16t11.5 6q9 0 17 -11q-13 -6 -13 -12q0 -12 11 -12q27 0 27 24q0 6 -4.5 12t-11 11t-15 8.5t-16.5 3.5q-12 0 -25 -12.5t-13 -29.5q0 -27 19 -49.5t48 -22.5q37 0 59 21t33.5 50t15 61t3.5 55q0 22 -8 54.5t-23 62.5t-36.5 51.5t-48.5 21.5q-33 0 -60 -12.5
t-47 -43.5q-14 -24 -24 -50q9 -38 18 -85.5t17 -95.5t13 -90t5 -67q0 -32 -14.5 -65t-38.5 -56z" />
    <glyph glyph-name="afii10081" unicode="&#x43f;" horiz-adv-x="617" 
d="M177 433q-33 -1 -60.5 -5.5t-47 -13.5t-30.5 -24.5t-10 -38.5q1 -15 18 -24t41 -8q16 1 28.5 11.5t11.5 22.5q0 7 -7.5 13.5t-14.5 6.5q-17 0 -17 -11q0 -2 9 -11l-4 -5q-23 3 -23 21q-1 11 8 20t21 10q15 0 29 -13t14 -38q1 -19 -17 -45q-19 -27 -37 -28q-34 0 -55 24
q-12 12 -17.5 24t-6.5 25q-1 28 13.5 49t36.5 34.5t49 20t51 7.5q58 1 106 2.5l97.5 3t106.5 3t135 4.5l1 -22l-34.5 -3.5t-31.5 -1.5q-5 -81 -7.5 -187t-1.5 -236q24 0 74 6v-27q-21 0 -63.5 -2t-95.5 -10v27l62 2l-36 422l-228 -4q-5 -81 -7 -182.5t-1 -231.5q23 0 73 6
v-27q-21 0 -63.5 -2t-95.5 -10v27l63 2z" />
    <glyph glyph-name="afii10089" unicode="&#x447;" horiz-adv-x="604" 
d="M462 248q-27 -28 -59.5 -41.5t-58.5 -13.5q-38 0 -66.5 14t-48.5 39t-32.5 57.5t-17.5 70.5q-5 44 -19 77q-21 49 -53 49q-12 0 -22 -5.5t-16.5 -14.5t-10.5 -20t-4 -21q0 -12 3 -25t7.5 -23.5t10 -17t11.5 -6.5q8 0 18 10.5t10 24.5q0 20 -9 20q-10 0 -22 -18
q-6 10 -6 18t4.5 12.5t21.5 4.5q12 0 26.5 -14t14.5 -29q0 -6 -5.5 -13t-14 -13.5t-19 -10.5t-20.5 -4q-25 0 -48 22q-25 22 -25 43q0 39 30 68q29 29 67 29q57 0 96 -44q17 -19 23.5 -42.5t9.5 -52.5q3 -27 8.5 -56t17 -53t29.5 -39t45 -15q73 0 121 67l-13 138h-52l3 21
q85 -4 163 17l4 -20l-51 -11q-5 -81 -7 -184t-1 -233q24 0 74 6v-27q-21 0 -63.5 -2t-95.5 -10v27l62 2z" />
    <glyph glyph-name="afii10084" unicode="&#x442;" horiz-adv-x="506" 
d="M307 436q-5 -81 -7 -188.5t-1 -237.5q24 0 74 6v-27q-21 0 -63.5 -2t-95.5 -10v27l62 2l-36 428l-59 -1q-33 -1 -60.5 -5.5t-47 -13.5t-30.5 -24.5t-10 -38.5q1 -15 18 -24t41 -8q16 1 28.5 11.5t11.5 22.5q0 7 -7.5 13.5t-14.5 6.5q-17 0 -17 -11q0 -2 9 -11l-4 -5
q-23 3 -23 21q-1 11 8 20t21 10q15 0 29 -13t14 -38q1 -19 -17 -45q-19 -27 -37 -28q-34 0 -55 24q-12 12 -17.5 24t-6.5 25q-1 28 13.5 48.5t36.5 34t49 20t51 8.5q25 1 63.5 3t83.5 4t91.5 3.5t86.5 2.5l1 -28z" />
    <glyph glyph-name="afii10078" unicode="&#x43c;" horiz-adv-x="728" 
d="M585 12q17 2 32 2q16 0 45 -1l-1 -19q-51 -3 -87 -4.5t-58.5 -3t-33.5 -1.5h-12v24q32 -2 51.5 -1.5t36.5 2.5q-1 5 -2 26.5l-2.5 52.5t-2.5 68.5t-2.5 75t-2 72t-0.5 59.5l-43 -111.5l-35 -92.5l-30 -77.5l-27 -66.5l-28 -2l-37.5 87l-46 104.5l-45.5 104.5t-35 87
q-1 -61 -3 -107.5t-5 -89.5t-5.5 -87l-5.5 -101q17 2 35 2t47 -1l-1 -19q-51 -3 -87 -4.5t-58.5 -3t-33.5 -1.5h-12v24q32 -2 51.5 -1.5t36.5 2.5q-3 58 -4.5 119t-1.5 118t0.5 106t1.5 84q-17 -1 -34.5 -0.5t-34.5 -1.5t-32.5 -8.5t-29.5 -20.5q-20 -20 -20 -58
q0 -27 20.5 -44t44.5 -17q14 0 26 7.5t12 16.5q0 5 -6.5 12t-10.5 7q-24 0 -40 -19q-10 7 -10 16q0 13 12.5 22.5t21.5 9.5t18.5 -4t17.5 -10.5t13.5 -14.5t5.5 -17q0 -12 -5 -23t-13 -19.5t-18 -13.5t-20 -5q-33 0 -58.5 27t-25.5 75q0 19 6.5 37.5t22.5 34.5t35 21.5
t39 7.5q18 2 36.5 2.5t38.5 1.5q35 2 59 4.5t37 4.5l7 -21q-18 -2 -31.5 -3t-22.5 -1q14 -33 30.5 -67t37.5 -73.5t48.5 -86.5l62.5 -106l40.5 104l30.5 75.5l28.5 70.5l33.5 87q-4 1 -20.5 3.5t-46.5 7.5l6 20q16 -5 99 -15q42 -5 72.5 -8t59.5 -5l-5 -21q-18 0 -37 2
t-50 7q1 7 -2 -18t-7 -68.5t-9.5 -97l-10.5 -103.5t-8 -88.5t-3 -50.5z" />
    <glyph glyph-name="afii10068" unicode="&#x433;" horiz-adv-x="381" 
d="M143 416q2 -103 -2 -201t-17 -198h70v-27q-29 5 -51 6t-31 1h-25h-21t-21.5 -0.5t-26.5 -0.5l-2 26q52 -3 81 -3q3 35 2.5 82.5t-4 101t-9.5 109t-14 107.5l-60 3l-2 23q31 -4 55 -5.5t43 -1.5q17 0 39.5 4t46.5 9.5t46.5 9.5t39.5 4q49 0 73 -20.5t24 -65.5
q0 -44 -29 -82q-28 -37 -62 -37q-10 0 -20 5.5t-17.5 14.5t-12 20.5t-4.5 23.5q0 32 15 50t38 18q7 0 15 -4.5t14.5 -11.5t10.5 -15t4 -14q0 -34 -20 -34q-9 0 -17 8q20 15 20 26q0 18 -29 18q-20 0 -29 -4.5t-9 -23.5t18.5 -30t45.5 -11q23 0 35.5 20.5t12.5 51.5
q0 12 -8 23t-21.5 19t-31.5 13t-38 5q-7 0 -21 -1.5t-30.5 -3.5l-33.5 -4t-30 -3z" />
    <glyph glyph-name="afii10073" unicode="&#x437;" horiz-adv-x="369" 
d="M126 226q36 0 59.5 13.5t38 33t20 41t5.5 36.5q0 14 -3.5 29.5t-12.5 28t-24.5 20.5t-39.5 8q-20 0 -39.5 -7.5t-35 -20.5t-25 -31.5t-9.5 -39.5q0 -15 16 -31t29 -16q21 0 37.5 13.5t16.5 32.5q0 32 -11 32q-28 0 -28 -28l2 -23q-5 0 -13.5 11t-8.5 17q0 7 5 14t13 12
t17 8.5t17 3.5q10 0 29 -17q19 -16 19 -29q0 -26 -30 -45q-28 -19 -60 -19q-38 0 -62.5 20t-24.5 62q0 19 14.5 39t37.5 36t53 26t62 10q35 0 59 -10t38.5 -26.5t21 -38t6.5 -45.5q0 -13 -4.5 -31t-18 -36.5t-38 -34.5t-65.5 -25q90 -5 127.5 -36.5t37.5 -82.5
q0 -35 -19.5 -59.5t-49 -40t-65 -23t-68.5 -7.5q-54 0 -96 30q-41 30 -41 72q0 24 31 52q32 29 63 29t51.5 -14t20.5 -32q0 -29 -21 -48.5t-54 -19.5q-22 0 -33 44q27 -11 54 -11q22 0 22 14q0 6 -4.5 13t-11 13t-15 10t-15.5 4q-22 0 -42 -12.5t-20 -34.5q0 -36 30.5 -62
t85.5 -26q61 0 96 31t35 74q0 53 -43.5 79.5t-118.5 26.5v24z" />
    <glyph glyph-name="afii10069" unicode="&#x434;" horiz-adv-x="569" 
d="M136 52q21 34 26 69t5 71q0 37 2 75t18 78q22 56 84.5 88.5t147.5 32.5h13t14 -1q-10 -41 -17 -98t-10 -116.5t-2.5 -113t6.5 -86.5q14 2 20.5 3t16.5 1q97 0 97 -90q0 -44 -29 -82q-28 -37 -62 -37q-10 0 -20 5.5t-17.5 14.5t-12 20.5t-4.5 23.5q0 32 15 50t38 18
q7 0 15 -4.5t14.5 -11.5t10.5 -15t4 -14q0 -34 -20 -34q-9 0 -17 8q20 15 20 26q0 18 -29 18q-20 0 -29 -4.5t-9 -23.5t18.5 -30t45.5 -11q23 0 35.5 20.5t12.5 51.5q0 12 -8 23.5t-21.5 20t-31.5 13t-38 3.5q-41 -3 -74 -6t-65.5 -4t-68 0.5t-81.5 8.5q-27 4 -49 -0.5
t-37.5 -13.5t-24 -21t-8.5 -24q0 -31 12.5 -51.5t35.5 -20.5q27 0 45.5 11t18.5 30t-9 23.5t-29 4.5q-29 0 -29 -18q0 -11 20 -26q-8 -8 -17 -8q-20 0 -20 34q0 6 4 14t10.5 15t14.5 11.5t15 4.5q23 0 38 -18t15 -50q0 -12 -4.5 -23.5t-12 -20.5t-17.5 -14.5t-20 -5.5
q-34 0 -62 37q-29 38 -29 82q0 90 97 90q3 0 12 -0.5t17 -2.5zM171 45l52.5 -6.5t35 -4t26.5 -1.5t26 1.5t34 4.5t51 7q-15 33 -22.5 73t-7.5 73q0 67 5 129t15 121q-21 1 -43 -7.5t-41.5 -22.5t-36 -31.5t-26.5 -34.5q-15 -25 -18 -61.5t-6 -77.5t-11 -83.5t-33 -78.5z" />
    <glyph glyph-name="afii10066" unicode="&#x431;" horiz-adv-x="446" 
d="M324 409q-16 27 -46.5 50l-60.5 47t-52.5 51t-22.5 60q0 34 15 58t39.5 39.5t55 22.5t61.5 7q21 0 40.5 -5.5t34.5 -15t24 -24t9 -32.5q0 -15 -6 -29.5t-16 -25.5t-23 -18t-28 -7q-12 0 -21.5 6.5t-17 16.5t-11.5 22t-4 23q0 27 31 27q11 0 18 -4q-1 -1 -2 -2.5t-3 -3.5
q-17 -20 -17 -35q0 -6 5 -11t12.5 -8t15.5 -5t14 -2q10 0 17.5 10.5t7.5 20.5q0 16 -6.5 31.5t-17.5 27.5t-26 19t-32 7q-15 0 -35 -5.5t-37 -16t-29 -27t-12 -37.5q0 -34 17 -64t42.5 -58.5t55 -58t55 -63t43 -73t17.5 -88.5q0 -92 -63 -165q-61 -73 -134 -73
q-83 0 -147 66q-65 67 -65 156q0 76 60 144q60 69 141 87l6 -12q-63 -11 -103 -72q-41 -62 -41 -133q0 -98 41 -160q40 -61 107 -61q51 0 93 62q43 61 43 145q0 80 -37 133q-38 54 -90 54q-29 0 -48 -22.5t-19 -49.5q0 -17 13 -29.5t25 -12.5q8 0 16.5 3.5t15 8.5t11 11
t4.5 12q0 24 -27 24q-11 0 -11 -12q0 -6 13 -12q-8 -11 -17 -11q-6 0 -11.5 6t-5.5 16q0 12 10.5 19.5t23.5 7.5q14 0 26.5 -12t12.5 -25q0 -31 -17.5 -49.5t-45.5 -18.5q-20 0 -34.5 21t-14.5 51q0 36 31 64q31 30 63 30q20 0 35.5 -4t33.5 -15z" />
    </font>
</defs>
</svg>
