<svg xmlns="http://www.w3.org/2000/svg" width="37" height="37" viewBox="0 0 37.493 37.493"><g class="nc-icon-wrapper"><path id="Path_72" data-name="Path 72" d="M291.325 508.668q-.234.038-.47.07.236-.032.47-.07zm0 0" transform="translate(-269.556 -471.419)" fill="#e91e63"/><path id="Path_73" data-name="Path 73" d="M299.563 507.793l-.224.039zm0 0" transform="translate(-277.419 -470.608)" fill="#e91e63"/><path id="Path_74" data-name="Path 74" d="M278.161 510.34q-.274.031-.551.054.276-.023.551-.054zm0 0" transform="translate(-257.281 -472.969)" fill="#e91e63"/><path id="Path_75" data-name="Path 75" d="M286.71 509.738l-.264.033zm0 0" transform="translate(-265.47 -472.411)" fill="#e91e63"/><path id="Path_76" data-name="Path 76" d="M306.862 506.41l-.2.042zm0 0" transform="translate(-284.208 -469.327)" fill="#e91e63"/><path id="Path_77" data-name="Path 77" d="M324.644 502.113l-.16.044zm0 0" transform="translate(-300.723 -465.344)" fill="#e91e63"/><path id="Path_78" data-name="Path 78" d="M319.233 503.543l-.174.045zm0 0" transform="translate(-295.695 -466.67)" fill="#e91e63"/><path id="Path_79" data-name="Path 79" d="M312.251 505.254l-.185.042zm0 0" transform="translate(-289.215 -468.255)" fill="#e91e63"/><path id="Path_80" data-name="Path 80" d="M273.776 511.09l-.3.022zm0 0" transform="translate(-253.454 -473.664)" fill="#e91e63"/><path id="Path_81" data-name="Path 81" d="M37.493 18.746a18.746 18.746 0 1 0-18.747 18.747h.33V22.9h-4.028v-4.7h4.028v-3.453c0-4.006 2.445-6.186 6.019-6.186a33.154 33.154 0 0 1 3.611.184v4.187h-2.465c-1.944 0-2.32.924-2.32 2.28V18.2h4.648l-.606 4.7h-4.042v13.868a18.756 18.756 0 0 0 13.572-18.022zm0 0" fill="#e91e63"/><path id="Path_82" data-name="Path 82" d="M265.478 511.43q-.293.019-.588.029.295-.01.588-.029zm0 0" transform="translate(-245.493 -473.979)" fill="#e91e63"/><path id="Path_83" data-name="Path 83" d="M260.815 511.836l-.311.008zm0 0" transform="translate(-241.428 -474.355)" fill="#e91e63"/></g></svg>