<svg xmlns="http://www.w3.org/2000/svg" width="27" height="27" viewBox="0 0 27.816 27.816"><g class="nc-icon-wrapper"><path id="twitter" d="M13.908 27.816A13.908 13.908 0 0 1 4.073 4.074a13.908 13.908 0 0 1 19.67 19.669 13.818 13.818 0 0 1-9.835 4.073zM6.084 19.38a9.838 9.838 0 0 0 5.2 1.478 9.406 9.406 0 0 0 9.639-9.358l-.01-.426a6.727 6.727 0 0 0 1.69-1.7 6.95 6.95 0 0 1-1.947.518 3.31 3.31 0 0 0 1.49-1.821 6.884 6.884 0 0 1-2.153.8 3.455 3.455 0 0 0-2.473-1.043 3.343 3.343 0 0 0-3.388 3.289 3.235 3.235 0 0 0 .087.751A9.757 9.757 0 0 1 7.234 8.43a3.207 3.207 0 0 0-.459 1.653 3.257 3.257 0 0 0 1.507 2.737 3.413 3.413 0 0 1-1.536-.412v.042a3.324 3.324 0 0 0 2.719 3.226 3.517 3.517 0 0 1-.893.116 3.476 3.476 0 0 1-.637-.059 3.377 3.377 0 0 0 3.165 2.284 6.891 6.891 0 0 1-4.21 1.408 7.333 7.333 0 0 1-.806-.045z" fill="#e91e63"/></g></svg>